G04*
G04 #@! TF.GenerationSoftware,Altium Limited,CircuitStudio,1.5.2 (30)*
G04*
G04 Layer_Color=2162853*
%FSLAX25Y25*%
%MOIN*%
G70*
G01*
G75*
%ADD38C,0.07400*%
%ADD39C,0.07600*%
%ADD40C,0.00800*%
D38*
X690000Y265000D02*
D03*
X630000Y225000D02*
D03*
X640000D02*
D03*
X650000D02*
D03*
X610000D02*
D03*
X620000D02*
D03*
X580000D02*
D03*
X590000D02*
D03*
X600000D02*
D03*
X560000D02*
D03*
X570000D02*
D03*
X530000D02*
D03*
X540000D02*
D03*
X550000D02*
D03*
X500000D02*
D03*
X490000D02*
D03*
X480000D02*
D03*
X520000D02*
D03*
X510000D02*
D03*
X320000D02*
D03*
X330000D02*
D03*
X290000D02*
D03*
X300000D02*
D03*
X310000D02*
D03*
X360000D02*
D03*
X350000D02*
D03*
X340000D02*
D03*
X380000D02*
D03*
X370000D02*
D03*
X410000D02*
D03*
X400000D02*
D03*
X390000D02*
D03*
X430000D02*
D03*
X420000D02*
D03*
X460000D02*
D03*
X450000D02*
D03*
X440000D02*
D03*
X300000Y245000D02*
D03*
Y235000D02*
D03*
Y275000D02*
D03*
Y265000D02*
D03*
Y255000D02*
D03*
X340000Y245000D02*
D03*
Y235000D02*
D03*
Y275000D02*
D03*
Y265000D02*
D03*
Y255000D02*
D03*
X380000Y245000D02*
D03*
Y235000D02*
D03*
Y275000D02*
D03*
Y265000D02*
D03*
Y255000D02*
D03*
X420000Y245000D02*
D03*
Y235000D02*
D03*
Y275000D02*
D03*
Y265000D02*
D03*
Y255000D02*
D03*
X460000Y245000D02*
D03*
Y235000D02*
D03*
Y275000D02*
D03*
Y265000D02*
D03*
Y255000D02*
D03*
X500000Y245000D02*
D03*
Y235000D02*
D03*
Y275000D02*
D03*
Y265000D02*
D03*
Y255000D02*
D03*
X540000Y245000D02*
D03*
Y235000D02*
D03*
Y275000D02*
D03*
Y265000D02*
D03*
Y255000D02*
D03*
X580000Y245000D02*
D03*
Y235000D02*
D03*
Y275000D02*
D03*
Y265000D02*
D03*
Y255000D02*
D03*
X620000Y245000D02*
D03*
Y235000D02*
D03*
Y275000D02*
D03*
Y265000D02*
D03*
Y255000D02*
D03*
X660000Y245000D02*
D03*
Y275000D02*
D03*
Y265000D02*
D03*
Y255000D02*
D03*
X280000Y245000D02*
D03*
Y235000D02*
D03*
Y275000D02*
D03*
Y265000D02*
D03*
Y255000D02*
D03*
X320000Y245000D02*
D03*
X310000D02*
D03*
X320000Y235000D02*
D03*
X310000D02*
D03*
X320000Y275000D02*
D03*
X310000D02*
D03*
X320000Y265000D02*
D03*
X310000D02*
D03*
X320000Y255000D02*
D03*
X310000D02*
D03*
X350000Y245000D02*
D03*
X330000D02*
D03*
X350000Y235000D02*
D03*
X330000D02*
D03*
X350000Y275000D02*
D03*
X330000D02*
D03*
X350000Y265000D02*
D03*
X330000D02*
D03*
X350000Y255000D02*
D03*
X330000D02*
D03*
X370000Y245000D02*
D03*
X360000D02*
D03*
X370000Y235000D02*
D03*
X360000D02*
D03*
X370000Y275000D02*
D03*
X360000D02*
D03*
X370000Y265000D02*
D03*
X360000D02*
D03*
X370000Y255000D02*
D03*
X360000D02*
D03*
X410000Y245000D02*
D03*
X400000D02*
D03*
X410000Y235000D02*
D03*
X400000D02*
D03*
X410000Y275000D02*
D03*
X400000D02*
D03*
X410000Y265000D02*
D03*
X400000D02*
D03*
X410000Y255000D02*
D03*
X400000D02*
D03*
X440000Y245000D02*
D03*
X430000D02*
D03*
X440000Y235000D02*
D03*
X430000D02*
D03*
X440000Y275000D02*
D03*
X430000D02*
D03*
X440000Y265000D02*
D03*
X430000D02*
D03*
X440000Y255000D02*
D03*
X430000D02*
D03*
X480000Y245000D02*
D03*
X470000D02*
D03*
X480000Y235000D02*
D03*
X470000D02*
D03*
X480000Y275000D02*
D03*
X470000D02*
D03*
X480000Y265000D02*
D03*
X470000D02*
D03*
X480000Y255000D02*
D03*
X470000D02*
D03*
X510000Y245000D02*
D03*
X490000D02*
D03*
X510000Y235000D02*
D03*
X490000D02*
D03*
X510000Y275000D02*
D03*
X490000D02*
D03*
X510000Y265000D02*
D03*
X490000D02*
D03*
X510000Y255000D02*
D03*
X490000D02*
D03*
X530000Y245000D02*
D03*
X520000D02*
D03*
X530000Y235000D02*
D03*
X520000D02*
D03*
X530000Y275000D02*
D03*
X520000D02*
D03*
X530000Y265000D02*
D03*
X520000D02*
D03*
X530000Y255000D02*
D03*
X520000D02*
D03*
X570000Y245000D02*
D03*
X560000D02*
D03*
X570000Y235000D02*
D03*
X560000D02*
D03*
X570000Y275000D02*
D03*
X560000D02*
D03*
X570000Y265000D02*
D03*
X560000D02*
D03*
X570000Y255000D02*
D03*
X560000D02*
D03*
X600000Y245000D02*
D03*
X590000D02*
D03*
X600000Y235000D02*
D03*
X590000D02*
D03*
X600000Y275000D02*
D03*
X590000D02*
D03*
X600000Y265000D02*
D03*
X590000D02*
D03*
X600000Y255000D02*
D03*
X590000D02*
D03*
X640000Y245000D02*
D03*
X630000D02*
D03*
X640000Y235000D02*
D03*
X630000D02*
D03*
X640000Y275000D02*
D03*
X630000D02*
D03*
X640000Y265000D02*
D03*
X630000D02*
D03*
X640000Y255000D02*
D03*
X630000D02*
D03*
X650000Y245000D02*
D03*
Y235000D02*
D03*
X670000Y275000D02*
D03*
X650000D02*
D03*
X670000Y265000D02*
D03*
X650000D02*
D03*
X670000Y255000D02*
D03*
X650000D02*
D03*
X690000Y275000D02*
D03*
X680000D02*
D03*
Y265000D02*
D03*
X390000Y245000D02*
D03*
X290000D02*
D03*
X390000Y235000D02*
D03*
X290000D02*
D03*
X390000Y275000D02*
D03*
X290000D02*
D03*
X390000Y265000D02*
D03*
X290000D02*
D03*
X390000Y255000D02*
D03*
X290000D02*
D03*
X450000Y245000D02*
D03*
Y235000D02*
D03*
Y275000D02*
D03*
Y265000D02*
D03*
Y255000D02*
D03*
X610000Y245000D02*
D03*
X550000D02*
D03*
X610000Y235000D02*
D03*
X550000D02*
D03*
X610000Y275000D02*
D03*
X550000D02*
D03*
X610000Y265000D02*
D03*
X550000D02*
D03*
X610000Y255000D02*
D03*
X550000D02*
D03*
X300000Y295000D02*
D03*
Y285000D02*
D03*
Y325000D02*
D03*
Y315000D02*
D03*
Y305000D02*
D03*
X340000Y295000D02*
D03*
Y285000D02*
D03*
Y325000D02*
D03*
Y315000D02*
D03*
Y305000D02*
D03*
X380000Y295000D02*
D03*
Y285000D02*
D03*
Y325000D02*
D03*
Y315000D02*
D03*
Y305000D02*
D03*
X420000Y295000D02*
D03*
Y285000D02*
D03*
Y325000D02*
D03*
Y315000D02*
D03*
Y305000D02*
D03*
X460000Y295000D02*
D03*
Y285000D02*
D03*
Y325000D02*
D03*
Y315000D02*
D03*
Y305000D02*
D03*
X500000Y295000D02*
D03*
Y285000D02*
D03*
Y325000D02*
D03*
Y315000D02*
D03*
Y305000D02*
D03*
X540000Y295000D02*
D03*
Y285000D02*
D03*
Y325000D02*
D03*
Y315000D02*
D03*
Y305000D02*
D03*
X580000Y295000D02*
D03*
Y285000D02*
D03*
Y325000D02*
D03*
Y315000D02*
D03*
Y305000D02*
D03*
X620000Y295000D02*
D03*
Y285000D02*
D03*
Y325000D02*
D03*
Y315000D02*
D03*
Y305000D02*
D03*
X660000Y295000D02*
D03*
Y285000D02*
D03*
Y325000D02*
D03*
Y315000D02*
D03*
Y305000D02*
D03*
X280000Y295000D02*
D03*
Y285000D02*
D03*
Y325000D02*
D03*
Y315000D02*
D03*
Y305000D02*
D03*
X320000Y295000D02*
D03*
X310000D02*
D03*
X320000Y285000D02*
D03*
X310000D02*
D03*
X320000Y325000D02*
D03*
X310000D02*
D03*
X320000Y315000D02*
D03*
X310000D02*
D03*
X320000Y305000D02*
D03*
X310000D02*
D03*
X350000Y295000D02*
D03*
X330000D02*
D03*
X350000Y285000D02*
D03*
X330000D02*
D03*
X350000Y325000D02*
D03*
X330000D02*
D03*
X350000Y315000D02*
D03*
X330000D02*
D03*
X350000Y305000D02*
D03*
X330000D02*
D03*
X370000Y295000D02*
D03*
X360000D02*
D03*
X370000Y285000D02*
D03*
X360000D02*
D03*
X370000Y325000D02*
D03*
X360000D02*
D03*
X370000Y315000D02*
D03*
X360000D02*
D03*
X370000Y305000D02*
D03*
X360000D02*
D03*
X410000Y295000D02*
D03*
X400000D02*
D03*
X410000Y285000D02*
D03*
X400000D02*
D03*
X410000Y325000D02*
D03*
X400000D02*
D03*
X410000Y315000D02*
D03*
X400000D02*
D03*
X410000Y305000D02*
D03*
X400000D02*
D03*
X440000Y295000D02*
D03*
X430000D02*
D03*
X440000Y285000D02*
D03*
X430000D02*
D03*
X440000Y325000D02*
D03*
X430000D02*
D03*
X440000Y315000D02*
D03*
X430000D02*
D03*
X440000Y305000D02*
D03*
X430000D02*
D03*
X480000Y295000D02*
D03*
X470000D02*
D03*
X480000Y285000D02*
D03*
X470000D02*
D03*
X480000Y325000D02*
D03*
X470000D02*
D03*
X480000Y315000D02*
D03*
X470000D02*
D03*
X480000Y305000D02*
D03*
X470000D02*
D03*
X510000Y295000D02*
D03*
X490000D02*
D03*
X510000Y285000D02*
D03*
X490000D02*
D03*
X510000Y325000D02*
D03*
X490000D02*
D03*
X510000Y315000D02*
D03*
X490000D02*
D03*
X510000Y305000D02*
D03*
X490000D02*
D03*
X530000Y295000D02*
D03*
X520000D02*
D03*
X530000Y285000D02*
D03*
X520000D02*
D03*
X530000Y325000D02*
D03*
X520000D02*
D03*
X530000Y315000D02*
D03*
X520000D02*
D03*
X530000Y305000D02*
D03*
X520000D02*
D03*
X570000Y295000D02*
D03*
X560000D02*
D03*
X570000Y285000D02*
D03*
X560000D02*
D03*
X570000Y325000D02*
D03*
X560000D02*
D03*
X570000Y315000D02*
D03*
X560000D02*
D03*
X570000Y305000D02*
D03*
X560000D02*
D03*
X600000Y295000D02*
D03*
X590000D02*
D03*
X600000Y285000D02*
D03*
X590000D02*
D03*
X600000Y325000D02*
D03*
X590000D02*
D03*
X600000Y315000D02*
D03*
X590000D02*
D03*
X600000Y305000D02*
D03*
X590000D02*
D03*
X640000Y295000D02*
D03*
X630000D02*
D03*
X640000Y285000D02*
D03*
X630000D02*
D03*
X640000Y325000D02*
D03*
X630000D02*
D03*
X640000Y315000D02*
D03*
X630000D02*
D03*
X640000Y305000D02*
D03*
X630000D02*
D03*
X670000Y295000D02*
D03*
X650000D02*
D03*
X670000Y285000D02*
D03*
X650000D02*
D03*
X670000Y325000D02*
D03*
X650000D02*
D03*
X670000Y315000D02*
D03*
X650000D02*
D03*
X670000Y305000D02*
D03*
X650000D02*
D03*
X690000Y295000D02*
D03*
X680000D02*
D03*
X690000Y285000D02*
D03*
X680000D02*
D03*
X690000Y325000D02*
D03*
X680000D02*
D03*
X690000Y315000D02*
D03*
X680000D02*
D03*
X690000Y305000D02*
D03*
X680000D02*
D03*
X390000Y295000D02*
D03*
X290000D02*
D03*
X390000Y285000D02*
D03*
X290000D02*
D03*
X390000Y325000D02*
D03*
X290000D02*
D03*
X390000Y315000D02*
D03*
X290000D02*
D03*
X390000Y305000D02*
D03*
X290000D02*
D03*
X450000Y295000D02*
D03*
Y285000D02*
D03*
Y325000D02*
D03*
Y315000D02*
D03*
Y305000D02*
D03*
X610000Y295000D02*
D03*
X550000D02*
D03*
X610000Y285000D02*
D03*
X550000D02*
D03*
X610000Y325000D02*
D03*
X550000D02*
D03*
X610000Y315000D02*
D03*
X550000D02*
D03*
X610000Y305000D02*
D03*
X550000D02*
D03*
X300000Y345000D02*
D03*
Y335000D02*
D03*
Y375000D02*
D03*
Y365000D02*
D03*
Y355000D02*
D03*
X340000Y345000D02*
D03*
Y335000D02*
D03*
Y375000D02*
D03*
Y365000D02*
D03*
Y355000D02*
D03*
X380000Y345000D02*
D03*
Y335000D02*
D03*
Y375000D02*
D03*
Y365000D02*
D03*
Y355000D02*
D03*
X420000Y345000D02*
D03*
Y335000D02*
D03*
Y375000D02*
D03*
Y365000D02*
D03*
Y355000D02*
D03*
X460000Y345000D02*
D03*
Y335000D02*
D03*
Y375000D02*
D03*
Y365000D02*
D03*
Y355000D02*
D03*
X500000Y345000D02*
D03*
Y335000D02*
D03*
Y375000D02*
D03*
Y365000D02*
D03*
Y355000D02*
D03*
X540000Y345000D02*
D03*
Y335000D02*
D03*
Y375000D02*
D03*
Y365000D02*
D03*
Y355000D02*
D03*
X580000Y345000D02*
D03*
Y335000D02*
D03*
Y375000D02*
D03*
Y365000D02*
D03*
Y355000D02*
D03*
X620000Y345000D02*
D03*
Y335000D02*
D03*
Y375000D02*
D03*
Y365000D02*
D03*
Y355000D02*
D03*
X660000Y345000D02*
D03*
Y335000D02*
D03*
Y375000D02*
D03*
Y365000D02*
D03*
Y355000D02*
D03*
X280000Y345000D02*
D03*
Y335000D02*
D03*
Y375000D02*
D03*
Y365000D02*
D03*
Y355000D02*
D03*
X320000Y345000D02*
D03*
X310000D02*
D03*
X320000Y335000D02*
D03*
X310000D02*
D03*
X320000Y375000D02*
D03*
X310000D02*
D03*
X320000Y365000D02*
D03*
X310000D02*
D03*
X320000Y355000D02*
D03*
X310000D02*
D03*
X350000Y345000D02*
D03*
X330000D02*
D03*
X350000Y335000D02*
D03*
X330000D02*
D03*
X350000Y375000D02*
D03*
X330000D02*
D03*
X350000Y365000D02*
D03*
X330000D02*
D03*
X350000Y355000D02*
D03*
X330000D02*
D03*
X370000Y345000D02*
D03*
X360000D02*
D03*
X370000Y335000D02*
D03*
X360000D02*
D03*
X370000Y375000D02*
D03*
X360000D02*
D03*
X370000Y365000D02*
D03*
X360000D02*
D03*
X370000Y355000D02*
D03*
X360000D02*
D03*
X410000Y345000D02*
D03*
X400000D02*
D03*
X410000Y335000D02*
D03*
X400000D02*
D03*
X410000Y375000D02*
D03*
X400000D02*
D03*
X410000Y365000D02*
D03*
X400000D02*
D03*
X410000Y355000D02*
D03*
X400000D02*
D03*
X440000Y345000D02*
D03*
X430000D02*
D03*
X440000Y335000D02*
D03*
X430000D02*
D03*
X440000Y375000D02*
D03*
X430000D02*
D03*
X440000Y365000D02*
D03*
X430000D02*
D03*
X440000Y355000D02*
D03*
X430000D02*
D03*
X480000Y345000D02*
D03*
X470000D02*
D03*
X480000Y335000D02*
D03*
X470000D02*
D03*
X480000Y375000D02*
D03*
X470000D02*
D03*
X480000Y365000D02*
D03*
X470000D02*
D03*
X480000Y355000D02*
D03*
X470000D02*
D03*
X510000Y345000D02*
D03*
X490000D02*
D03*
X510000Y335000D02*
D03*
X490000D02*
D03*
X510000Y375000D02*
D03*
X490000D02*
D03*
X510000Y365000D02*
D03*
X490000D02*
D03*
X510000Y355000D02*
D03*
X490000D02*
D03*
X530000Y345000D02*
D03*
X520000D02*
D03*
X530000Y335000D02*
D03*
X520000D02*
D03*
X530000Y375000D02*
D03*
X520000D02*
D03*
X530000Y365000D02*
D03*
X520000D02*
D03*
X530000Y355000D02*
D03*
X520000D02*
D03*
X570000Y345000D02*
D03*
X560000D02*
D03*
X570000Y335000D02*
D03*
X560000D02*
D03*
X570000Y375000D02*
D03*
X560000D02*
D03*
X570000Y365000D02*
D03*
X560000D02*
D03*
X570000Y355000D02*
D03*
X560000D02*
D03*
X600000Y345000D02*
D03*
X590000D02*
D03*
X600000Y335000D02*
D03*
X590000D02*
D03*
X600000Y375000D02*
D03*
X590000D02*
D03*
X600000Y365000D02*
D03*
X590000D02*
D03*
X600000Y355000D02*
D03*
X590000D02*
D03*
X640000Y345000D02*
D03*
X630000D02*
D03*
X640000Y335000D02*
D03*
X630000D02*
D03*
X640000Y375000D02*
D03*
X630000D02*
D03*
X640000Y365000D02*
D03*
X630000D02*
D03*
X640000Y355000D02*
D03*
X630000D02*
D03*
X670000Y345000D02*
D03*
X650000D02*
D03*
X670000Y335000D02*
D03*
X650000D02*
D03*
X670000Y375000D02*
D03*
X650000D02*
D03*
X670000Y365000D02*
D03*
X650000D02*
D03*
X670000Y355000D02*
D03*
X650000D02*
D03*
X690000Y345000D02*
D03*
X680000D02*
D03*
X690000Y335000D02*
D03*
X680000D02*
D03*
X690000Y375000D02*
D03*
X680000D02*
D03*
X690000Y365000D02*
D03*
X680000D02*
D03*
X690000Y355000D02*
D03*
X680000D02*
D03*
X390000Y345000D02*
D03*
X290000D02*
D03*
X390000Y335000D02*
D03*
X290000D02*
D03*
X390000Y375000D02*
D03*
X290000D02*
D03*
X390000Y365000D02*
D03*
X290000D02*
D03*
X390000Y355000D02*
D03*
X290000D02*
D03*
X450000Y345000D02*
D03*
Y335000D02*
D03*
Y375000D02*
D03*
Y365000D02*
D03*
Y355000D02*
D03*
X610000Y345000D02*
D03*
X550000D02*
D03*
X610000Y335000D02*
D03*
X550000D02*
D03*
X610000Y375000D02*
D03*
X550000D02*
D03*
X610000Y365000D02*
D03*
X550000D02*
D03*
X610000Y355000D02*
D03*
X550000D02*
D03*
X310000Y465000D02*
D03*
X340000Y435000D02*
D03*
Y465000D02*
D03*
Y455000D02*
D03*
Y445000D02*
D03*
X380000Y435000D02*
D03*
Y465000D02*
D03*
Y455000D02*
D03*
Y445000D02*
D03*
X320000Y435000D02*
D03*
X310000D02*
D03*
X320000Y465000D02*
D03*
Y455000D02*
D03*
X310000D02*
D03*
X320000Y445000D02*
D03*
X310000D02*
D03*
X350000Y435000D02*
D03*
X330000D02*
D03*
X350000Y465000D02*
D03*
X330000D02*
D03*
X350000Y455000D02*
D03*
X330000D02*
D03*
X350000Y445000D02*
D03*
X330000D02*
D03*
X370000Y435000D02*
D03*
X360000D02*
D03*
X370000Y465000D02*
D03*
X360000D02*
D03*
X370000Y455000D02*
D03*
X360000D02*
D03*
X370000Y445000D02*
D03*
X360000D02*
D03*
X410000Y435000D02*
D03*
X400000D02*
D03*
X410000Y465000D02*
D03*
X400000D02*
D03*
X410000Y455000D02*
D03*
X400000D02*
D03*
X410000Y445000D02*
D03*
X400000D02*
D03*
X390000Y435000D02*
D03*
Y465000D02*
D03*
Y455000D02*
D03*
Y445000D02*
D03*
X440000Y455000D02*
D03*
Y465000D02*
D03*
Y435000D02*
D03*
Y445000D02*
D03*
X460000Y455000D02*
D03*
X430000D02*
D03*
X460000Y465000D02*
D03*
Y435000D02*
D03*
Y445000D02*
D03*
X430000Y465000D02*
D03*
Y435000D02*
D03*
Y445000D02*
D03*
X450000Y455000D02*
D03*
Y465000D02*
D03*
Y435000D02*
D03*
Y445000D02*
D03*
X500000Y435000D02*
D03*
Y465000D02*
D03*
Y455000D02*
D03*
Y445000D02*
D03*
X480000Y435000D02*
D03*
Y465000D02*
D03*
Y455000D02*
D03*
Y445000D02*
D03*
X510000Y435000D02*
D03*
X490000D02*
D03*
X510000Y465000D02*
D03*
X490000D02*
D03*
X510000Y455000D02*
D03*
X490000D02*
D03*
X510000Y445000D02*
D03*
X490000D02*
D03*
X540000D02*
D03*
Y435000D02*
D03*
X580000Y445000D02*
D03*
Y435000D02*
D03*
X620000Y445000D02*
D03*
Y435000D02*
D03*
X660000Y445000D02*
D03*
Y435000D02*
D03*
Y455000D02*
D03*
X530000Y445000D02*
D03*
Y435000D02*
D03*
X570000Y445000D02*
D03*
X560000D02*
D03*
X570000Y435000D02*
D03*
X560000D02*
D03*
X600000Y445000D02*
D03*
X590000D02*
D03*
X600000Y435000D02*
D03*
X590000D02*
D03*
X640000Y445000D02*
D03*
X630000D02*
D03*
X640000Y435000D02*
D03*
X630000D02*
D03*
X670000Y445000D02*
D03*
Y435000D02*
D03*
Y455000D02*
D03*
X690000Y445000D02*
D03*
X680000D02*
D03*
X690000Y435000D02*
D03*
X680000D02*
D03*
X690000Y455000D02*
D03*
X680000D02*
D03*
X610000Y445000D02*
D03*
X550000D02*
D03*
X610000Y435000D02*
D03*
X550000D02*
D03*
Y405000D02*
D03*
X610000D02*
D03*
X550000Y415000D02*
D03*
X610000D02*
D03*
X550000Y425000D02*
D03*
X610000D02*
D03*
X550000Y385000D02*
D03*
X610000D02*
D03*
X550000Y395000D02*
D03*
X610000D02*
D03*
X450000Y405000D02*
D03*
Y415000D02*
D03*
Y425000D02*
D03*
Y385000D02*
D03*
Y395000D02*
D03*
X290000Y405000D02*
D03*
X390000D02*
D03*
X290000Y415000D02*
D03*
X390000D02*
D03*
X290000Y425000D02*
D03*
X390000D02*
D03*
X290000Y385000D02*
D03*
X390000D02*
D03*
X290000Y395000D02*
D03*
X390000D02*
D03*
X680000Y405000D02*
D03*
X690000D02*
D03*
X680000Y415000D02*
D03*
X690000D02*
D03*
X680000Y425000D02*
D03*
X690000D02*
D03*
X680000Y385000D02*
D03*
X690000D02*
D03*
X680000Y395000D02*
D03*
X690000D02*
D03*
X650000Y405000D02*
D03*
X670000D02*
D03*
X650000Y415000D02*
D03*
X670000D02*
D03*
X650000Y425000D02*
D03*
X670000D02*
D03*
X650000Y385000D02*
D03*
X670000D02*
D03*
X650000Y395000D02*
D03*
X670000D02*
D03*
X630000Y405000D02*
D03*
X640000D02*
D03*
X630000Y415000D02*
D03*
X640000D02*
D03*
X630000Y425000D02*
D03*
X640000D02*
D03*
X630000Y385000D02*
D03*
X640000D02*
D03*
X630000Y395000D02*
D03*
X640000D02*
D03*
X590000Y405000D02*
D03*
X600000D02*
D03*
X590000Y415000D02*
D03*
X600000D02*
D03*
X590000Y425000D02*
D03*
X600000D02*
D03*
X590000Y385000D02*
D03*
X600000D02*
D03*
X590000Y395000D02*
D03*
X600000D02*
D03*
X560000Y405000D02*
D03*
X570000D02*
D03*
X560000Y415000D02*
D03*
X570000D02*
D03*
X560000Y425000D02*
D03*
X570000D02*
D03*
X560000Y385000D02*
D03*
X570000D02*
D03*
X560000Y395000D02*
D03*
X570000D02*
D03*
X520000Y405000D02*
D03*
X530000D02*
D03*
X520000Y415000D02*
D03*
X530000D02*
D03*
X520000Y425000D02*
D03*
X530000D02*
D03*
X520000Y385000D02*
D03*
X530000D02*
D03*
X520000Y395000D02*
D03*
X530000D02*
D03*
X490000Y405000D02*
D03*
X510000D02*
D03*
X490000Y415000D02*
D03*
X510000D02*
D03*
X490000Y425000D02*
D03*
X510000D02*
D03*
X490000Y385000D02*
D03*
X510000D02*
D03*
X490000Y395000D02*
D03*
X510000D02*
D03*
X470000Y405000D02*
D03*
X480000D02*
D03*
X470000Y415000D02*
D03*
X480000D02*
D03*
X470000Y425000D02*
D03*
X480000D02*
D03*
X470000Y385000D02*
D03*
X480000D02*
D03*
X470000Y395000D02*
D03*
X480000D02*
D03*
X430000Y405000D02*
D03*
X440000D02*
D03*
X430000Y415000D02*
D03*
X440000D02*
D03*
X430000Y425000D02*
D03*
X440000D02*
D03*
X430000Y385000D02*
D03*
X440000D02*
D03*
X430000Y395000D02*
D03*
X440000D02*
D03*
X400000Y405000D02*
D03*
X410000D02*
D03*
X400000Y415000D02*
D03*
X410000D02*
D03*
X400000Y425000D02*
D03*
X410000D02*
D03*
X400000Y385000D02*
D03*
X410000D02*
D03*
X400000Y395000D02*
D03*
X410000D02*
D03*
X360000Y405000D02*
D03*
X370000D02*
D03*
X360000Y415000D02*
D03*
X370000D02*
D03*
X360000Y425000D02*
D03*
X370000D02*
D03*
X360000Y385000D02*
D03*
X370000D02*
D03*
X360000Y395000D02*
D03*
X370000D02*
D03*
X330000Y405000D02*
D03*
X350000D02*
D03*
X330000Y415000D02*
D03*
X350000D02*
D03*
X330000Y425000D02*
D03*
X350000D02*
D03*
X330000Y385000D02*
D03*
X350000D02*
D03*
X330000Y395000D02*
D03*
X350000D02*
D03*
X310000Y405000D02*
D03*
X320000D02*
D03*
X310000Y415000D02*
D03*
X320000D02*
D03*
X310000Y425000D02*
D03*
X320000D02*
D03*
X310000Y385000D02*
D03*
X320000D02*
D03*
X310000Y395000D02*
D03*
X320000D02*
D03*
X280000Y405000D02*
D03*
Y415000D02*
D03*
Y425000D02*
D03*
Y385000D02*
D03*
Y395000D02*
D03*
X660000Y405000D02*
D03*
Y415000D02*
D03*
Y425000D02*
D03*
Y385000D02*
D03*
Y395000D02*
D03*
X620000Y405000D02*
D03*
Y415000D02*
D03*
Y425000D02*
D03*
Y385000D02*
D03*
Y395000D02*
D03*
X580000Y405000D02*
D03*
Y415000D02*
D03*
Y425000D02*
D03*
Y385000D02*
D03*
Y395000D02*
D03*
X540000Y405000D02*
D03*
Y415000D02*
D03*
Y425000D02*
D03*
Y385000D02*
D03*
Y395000D02*
D03*
X500000Y405000D02*
D03*
Y415000D02*
D03*
Y425000D02*
D03*
Y385000D02*
D03*
Y395000D02*
D03*
X460000Y405000D02*
D03*
Y415000D02*
D03*
Y425000D02*
D03*
Y385000D02*
D03*
Y395000D02*
D03*
X420000Y405000D02*
D03*
Y415000D02*
D03*
Y425000D02*
D03*
Y385000D02*
D03*
Y395000D02*
D03*
X380000Y405000D02*
D03*
Y415000D02*
D03*
Y425000D02*
D03*
Y385000D02*
D03*
Y395000D02*
D03*
X340000Y405000D02*
D03*
Y415000D02*
D03*
Y425000D02*
D03*
Y385000D02*
D03*
Y395000D02*
D03*
X300000Y405000D02*
D03*
Y415000D02*
D03*
Y425000D02*
D03*
Y385000D02*
D03*
Y395000D02*
D03*
D39*
X640000Y455000D02*
D03*
X610000D02*
D03*
X580000D02*
D03*
X550000D02*
D03*
X630000D02*
D03*
X620000D02*
D03*
X600000D02*
D03*
X590000D02*
D03*
X570000D02*
D03*
X560000D02*
D03*
X540000D02*
D03*
X530000D02*
D03*
X500000Y475000D02*
D03*
X510000D02*
D03*
X450000D02*
D03*
X460000D02*
D03*
X430000D02*
D03*
X440000D02*
D03*
X480000D02*
D03*
X490000D02*
D03*
X470000D02*
D03*
D40*
X685000Y225000D02*
D03*
X276998Y458058D02*
D03*
M02*
