G04*
G04 #@! TF.GenerationSoftware,Altium Limited,CircuitStudio,1.5.2 (30)*
G04*
G04 Layer_Color=65535*
%FSLAX25Y25*%
%MOIN*%
G70*
G01*
G75*
%ADD13C,0.00500*%
%ADD14R,0.06000X0.06000*%
%ADD15R,0.01160X0.06930*%
%ADD16R,0.02570X0.01130*%
G04:AMPARAMS|DCode=17|XSize=11.6mil|YSize=69.3mil|CornerRadius=0mil|HoleSize=0mil|Usage=FLASHONLY|Rotation=343.000|XOffset=0mil|YOffset=0mil|HoleType=Round|Shape=Rectangle|*
%AMROTATEDRECTD17*
4,1,4,-0.01568,-0.03144,0.00458,0.03483,0.01568,0.03144,-0.00458,-0.03483,-0.01568,-0.03144,0.0*
%
%ADD17ROTATEDRECTD17*%

%ADD18R,0.01109X0.00339*%
%ADD19R,0.01344X0.00377*%
G04:AMPARAMS|DCode=20|XSize=11.6mil|YSize=69.3mil|CornerRadius=0mil|HoleSize=0mil|Usage=FLASHONLY|Rotation=197.000|XOffset=0mil|YOffset=0mil|HoleType=Round|Shape=Rectangle|*
%AMROTATEDRECTD20*
4,1,4,-0.00458,0.03483,0.01568,-0.03144,0.00458,-0.03483,-0.01568,0.03144,-0.00458,0.03483,0.0*
%
%ADD20ROTATEDRECTD20*%

%ADD21R,0.02570X0.01040*%
G04:AMPARAMS|DCode=22|XSize=11.6mil|YSize=45.45mil|CornerRadius=0mil|HoleSize=0mil|Usage=FLASHONLY|Rotation=39.000|XOffset=0mil|YOffset=0mil|HoleType=Round|Shape=Rectangle|*
%AMROTATEDRECTD22*
4,1,4,0.00980,-0.02131,-0.01881,0.01401,-0.00980,0.02131,0.01881,-0.01401,0.00980,-0.02131,0.0*
%
%ADD22ROTATEDRECTD22*%

%ADD23R,0.01247X0.00304*%
G04:AMPARAMS|DCode=24|XSize=7.2mil|YSize=3.26mil|CornerRadius=0mil|HoleSize=0mil|Usage=FLASHONLY|Rotation=39.000|XOffset=0mil|YOffset=0mil|HoleType=Round|Shape=Rectangle|*
%AMROTATEDRECTD24*
4,1,4,-0.00177,-0.00353,-0.00382,-0.00100,0.00177,0.00353,0.00382,0.00100,-0.00177,-0.00353,0.0*
%
%ADD24ROTATEDRECTD24*%

G04:AMPARAMS|DCode=25|XSize=3.63mil|YSize=2.79mil|CornerRadius=0mil|HoleSize=0mil|Usage=FLASHONLY|Rotation=39.000|XOffset=0mil|YOffset=0mil|HoleType=Round|Shape=Rectangle|*
%AMROTATEDRECTD25*
4,1,4,-0.00053,-0.00223,-0.00229,-0.00006,0.00053,0.00223,0.00229,0.00006,-0.00053,-0.00223,0.0*
%
%ADD25ROTATEDRECTD25*%

G04:AMPARAMS|DCode=26|XSize=3.63mil|YSize=2.79mil|CornerRadius=0mil|HoleSize=0mil|Usage=FLASHONLY|Rotation=321.000|XOffset=0mil|YOffset=0mil|HoleType=Round|Shape=Rectangle|*
%AMROTATEDRECTD26*
4,1,4,-0.00229,0.00006,-0.00053,0.00223,0.00229,-0.00006,0.00053,-0.00223,-0.00229,0.00006,0.0*
%
%ADD26ROTATEDRECTD26*%

G04:AMPARAMS|DCode=27|XSize=7.2mil|YSize=3.26mil|CornerRadius=0mil|HoleSize=0mil|Usage=FLASHONLY|Rotation=321.000|XOffset=0mil|YOffset=0mil|HoleType=Round|Shape=Rectangle|*
%AMROTATEDRECTD27*
4,1,4,-0.00382,0.00100,-0.00177,0.00353,0.00382,-0.00100,0.00177,-0.00353,-0.00382,0.00100,0.0*
%
%ADD27ROTATEDRECTD27*%

G04:AMPARAMS|DCode=28|XSize=11.6mil|YSize=45.45mil|CornerRadius=0mil|HoleSize=0mil|Usage=FLASHONLY|Rotation=321.000|XOffset=0mil|YOffset=0mil|HoleType=Round|Shape=Rectangle|*
%AMROTATEDRECTD28*
4,1,4,-0.01881,-0.01401,0.00980,0.02131,0.01881,0.01401,-0.00980,-0.02131,-0.01881,-0.01401,0.0*
%
%ADD28ROTATEDRECTD28*%

%ADD29R,0.02570X0.01050*%
G04:AMPARAMS|DCode=30|XSize=11.6mil|YSize=42.26mil|CornerRadius=0mil|HoleSize=0mil|Usage=FLASHONLY|Rotation=332.000|XOffset=0mil|YOffset=0mil|HoleType=Round|Shape=Rectangle|*
%AMROTATEDRECTD30*
4,1,4,-0.01504,-0.01593,0.00480,0.02138,0.01504,0.01593,-0.00480,-0.02138,-0.01504,-0.01593,0.0*
%
%ADD30ROTATEDRECTD30*%

%ADD31R,0.01137X0.00304*%
G04:AMPARAMS|DCode=32|XSize=2.79mil|YSize=2.3mil|CornerRadius=0mil|HoleSize=0mil|Usage=FLASHONLY|Rotation=321.000|XOffset=0mil|YOffset=0mil|HoleType=Round|Shape=Rectangle|*
%AMROTATEDRECTD32*
4,1,4,-0.00181,-0.00002,-0.00036,0.00177,0.00181,0.00002,0.00036,-0.00177,-0.00181,-0.00002,0.0*
%
%ADD32ROTATEDRECTD32*%

G04:AMPARAMS|DCode=33|XSize=3.63mil|YSize=2.79mil|CornerRadius=0mil|HoleSize=0mil|Usage=FLASHONLY|Rotation=64.000|XOffset=0mil|YOffset=0mil|HoleType=Round|Shape=Rectangle|*
%AMROTATEDRECTD33*
4,1,4,0.00046,-0.00224,-0.00205,-0.00102,-0.00046,0.00224,0.00205,0.00102,0.00046,-0.00224,0.0*
%
%ADD33ROTATEDRECTD33*%

G04:AMPARAMS|DCode=34|XSize=3.63mil|YSize=2.79mil|CornerRadius=0mil|HoleSize=0mil|Usage=FLASHONLY|Rotation=116.000|XOffset=0mil|YOffset=0mil|HoleType=Round|Shape=Rectangle|*
%AMROTATEDRECTD34*
4,1,4,0.00205,-0.00102,-0.00046,-0.00224,-0.00205,0.00102,0.00046,0.00224,0.00205,-0.00102,0.0*
%
%ADD34ROTATEDRECTD34*%

G04:AMPARAMS|DCode=35|XSize=2.79mil|YSize=2.3mil|CornerRadius=0mil|HoleSize=0mil|Usage=FLASHONLY|Rotation=219.000|XOffset=0mil|YOffset=0mil|HoleType=Round|Shape=Rectangle|*
%AMROTATEDRECTD35*
4,1,4,0.00036,0.00177,0.00181,-0.00002,-0.00036,-0.00177,-0.00181,0.00002,0.00036,0.00177,0.0*
%
%ADD35ROTATEDRECTD35*%

G04:AMPARAMS|DCode=36|XSize=11.6mil|YSize=42.26mil|CornerRadius=0mil|HoleSize=0mil|Usage=FLASHONLY|Rotation=208.000|XOffset=0mil|YOffset=0mil|HoleType=Round|Shape=Rectangle|*
%AMROTATEDRECTD36*
4,1,4,-0.00480,0.02138,0.01504,-0.01593,0.00480,-0.02138,-0.01504,0.01593,-0.00480,0.02138,0.0*
%
%ADD36ROTATEDRECTD36*%

%ADD37R,0.01170X0.03200*%
G36*
X607143Y470726D02*
X607643Y470546D01*
X608056Y470256D01*
X608388Y469862D01*
X608640Y469374D01*
X608815Y468797D01*
X608918Y468141D01*
X608952Y467413D01*
X608919Y466692D01*
X608821Y466070D01*
X608806Y466077D01*
X608764Y465845D01*
X608633Y465399D01*
X608446Y465009D01*
X608198Y464679D01*
X607887Y464415D01*
X607510Y464220D01*
X607061Y464100D01*
X606539Y464059D01*
X605950Y464121D01*
X605450Y464300D01*
X605037Y464591D01*
X604706Y464985D01*
X604454Y465473D01*
X604278Y466050D01*
X604175Y466706D01*
X604141Y467434D01*
X604187Y468112D01*
X604250Y468562D01*
X604329Y469001D01*
X604460Y469447D01*
X604647Y469838D01*
X604895Y470167D01*
X605206Y470432D01*
X605583Y470626D01*
X606032Y470747D01*
X606554Y470788D01*
X607143Y470726D01*
D02*
G37*
G36*
X641095Y464102D02*
X640192Y464102D01*
X637672Y469056D01*
X637635Y464102D01*
X636836Y464102D01*
X636836Y470683D01*
X637729Y470683D01*
X640249Y465700D01*
X640286Y470683D01*
X641095Y470683D01*
X641095Y464102D01*
D02*
G37*
G36*
X554606Y465165D02*
X554596Y465166D01*
X554606Y465176D01*
X554606Y465165D01*
D02*
G37*
G36*
X635686Y469932D02*
X632471Y469932D01*
Y467861D01*
X635367Y467861D01*
X635367Y467108D01*
X632471Y467108D01*
X632471Y464846D01*
X635686Y464846D01*
X635686Y464103D01*
X631653Y464103D01*
X631653Y470684D01*
X635686Y470684D01*
X635686Y469932D01*
D02*
G37*
G36*
X624953Y470684D02*
X624953Y469932D01*
X621738Y469932D01*
X621738Y467861D01*
X624634Y467861D01*
X624634Y467108D01*
X621738Y467108D01*
X621738Y464846D01*
X624953Y464846D01*
X624953Y464103D01*
X620920Y464103D01*
X620920Y470684D01*
X624953Y470684D01*
D02*
G37*
G36*
X613600Y465700D02*
X613637Y470683D01*
X614446Y470683D01*
X614446Y464102D01*
X613543Y464102D01*
X611024Y469056D01*
X610986Y464102D01*
X610187Y464102D01*
X610187Y470683D01*
X611080D01*
X613600Y465700D01*
D02*
G37*
G36*
X581691Y466443D02*
X581664Y465948D01*
X581582Y465492D01*
X581438Y465082D01*
X581226Y464728D01*
X580941Y464438D01*
X580576Y464220D01*
X580126Y464084D01*
X579585Y464036D01*
X579052Y464083D01*
X578608Y464218D01*
X578247Y464433D01*
X577963Y464721D01*
X577751Y465074D01*
X577607Y465483D01*
X577524Y465942D01*
X577497Y466443D01*
X577497Y470702D01*
X578315Y470702D01*
X578315Y466462D01*
X578355Y465835D01*
X578527Y465300D01*
X578687Y465089D01*
X578910Y464928D01*
X579206Y464825D01*
X579585Y464788D01*
X579972Y464825D01*
X580272Y464927D01*
X580497Y465087D01*
X580657Y465297D01*
X580826Y465831D01*
X580863Y466461D01*
Y470702D01*
X581691Y470702D01*
X581691Y466443D01*
D02*
G37*
G36*
X595670Y470684D02*
X596146Y470646D01*
X596613Y470506D01*
X596919Y470349D01*
X597214Y470104D01*
X597445Y469801D01*
X597613Y469447D01*
X597714Y469047D01*
X597748Y468607D01*
X597713Y468154D01*
X597610Y467744D01*
X597440Y467384D01*
X597207Y467077D01*
X596910Y466828D01*
X596554Y466645D01*
X596392Y466592D01*
X598010Y464200D01*
X598010Y464106D01*
X597117Y464106D01*
X595530Y466494D01*
X594345Y466491D01*
X594345Y464103D01*
X593527Y464103D01*
X593527Y470684D01*
X595670Y470684D01*
D02*
G37*
G36*
X628722Y470646D02*
X629189Y470506D01*
X629495Y470349D01*
X629790Y470104D01*
X630021Y469801D01*
X630189Y469447D01*
X630290Y469047D01*
X630324Y468607D01*
X630289Y468154D01*
X630186Y467744D01*
X630017Y467384D01*
X629782Y467077D01*
X629487Y466828D01*
X629130Y466645D01*
X628968Y466592D01*
X630586Y464200D01*
X630586Y464106D01*
X629693Y464106D01*
X628106Y466494D01*
X626921Y466491D01*
X626921Y464103D01*
X626103Y464103D01*
X626103Y470684D01*
X628246Y470685D01*
X628722Y470646D01*
D02*
G37*
G36*
X585219Y470683D02*
X585695Y470644D01*
X586162Y470504D01*
X586468Y470348D01*
X586763Y470102D01*
X586995Y469800D01*
X587162Y469445D01*
X587263Y469045D01*
X587297Y468605D01*
X587262Y468152D01*
X587159Y467743D01*
X586990Y467382D01*
X586756Y467075D01*
X586460Y466827D01*
X586103Y466643D01*
X585689Y466529D01*
X585274Y466494D01*
X583894Y466490D01*
X583894Y464102D01*
X583076Y464102D01*
X583076Y470683D01*
X585219Y470683D01*
D02*
G37*
G36*
X675815Y471024D02*
X676235Y470919D01*
X676605Y470751D01*
X676919Y470522D01*
X677172Y470240D01*
X677359Y469908D01*
X677476Y469529D01*
X677516Y469111D01*
X677439Y468559D01*
X677126Y467988D01*
X676784Y467728D01*
X677204Y467439D01*
X677513Y467058D01*
X677704Y466596D01*
X677768Y466061D01*
X677725Y465609D01*
X677599Y465200D01*
X677395Y464840D01*
X677120Y464534D01*
X676779Y464288D01*
X676377Y464105D01*
X675921Y463992D01*
X675416Y463953D01*
X674913Y463991D01*
X674458Y464103D01*
X674058Y464283D01*
X673718Y464527D01*
X673444Y464828D01*
X673241Y465183D01*
X673115Y465587D01*
X673072Y466033D01*
Y466204D01*
X674202Y466204D01*
X674212Y465964D01*
X674228Y465808D01*
X674293Y465605D01*
X674395Y465427D01*
X674534Y465279D01*
X674706Y465160D01*
X674911Y465072D01*
X675144Y465018D01*
X675406Y465000D01*
X675675Y465018D01*
X675912Y465071D01*
X676116Y465157D01*
X676287Y465275D01*
X676421Y465426D01*
X676519Y465606D01*
X676579Y465815D01*
X676599Y466052D01*
X676563Y466363D01*
X676465Y466607D01*
X676319Y466794D01*
X676136Y466929D01*
X675716Y467078D01*
X675312Y467113D01*
X674567Y467113D01*
X674567Y468161D01*
X675294Y468161D01*
X675747Y468228D01*
X676093Y468421D01*
X676307Y468747D01*
X676355Y469083D01*
X676289Y469477D01*
X676095Y469766D01*
X675781Y469943D01*
X675350Y470003D01*
X675109Y469985D01*
X674714Y469846D01*
X674564Y469727D01*
X674359Y469391D01*
X674307Y469177D01*
X674291Y468882D01*
X673148Y468881D01*
X673188Y469395D01*
X673304Y469810D01*
X673492Y470174D01*
X673747Y470481D01*
X674065Y470728D01*
X674442Y470909D01*
X674806Y471004D01*
X675350Y471060D01*
X675815Y471024D01*
D02*
G37*
G36*
X652224Y469932D02*
X649009Y469932D01*
X649009Y467861D01*
X651904Y467861D01*
X651905Y467108D01*
X649009Y467108D01*
X649009Y464846D01*
X652224Y464846D01*
X652224Y464103D01*
X648191Y464103D01*
X648191Y470684D01*
X652224Y470684D01*
X652224Y469932D01*
D02*
G37*
G36*
X574653Y470750D02*
X575091Y470645D01*
X575473Y470475D01*
X575797Y470246D01*
X576057Y469962D01*
X576249Y469628D01*
X576369Y469249D01*
X576412Y468831D01*
X575576Y468831D01*
X575543Y469087D01*
X575473Y469320D01*
X575362Y469526D01*
X575210Y469700D01*
X575015Y469842D01*
X574774Y469946D01*
X574484Y470011D01*
X574147Y470034D01*
X573861Y470017D01*
X573604Y469967D01*
X573379Y469884D01*
X573189Y469769D01*
X573036Y469620D01*
X572924Y469439D01*
X572854Y469226D01*
X572830Y468981D01*
X572893Y468623D01*
X573082Y468348D01*
X573402Y468144D01*
X573855Y468004D01*
X574748Y467815D01*
X575176Y467702D01*
X575542Y467554D01*
X575848Y467371D01*
X576095Y467152D01*
X576286Y466898D01*
X576420Y466609D01*
X576499Y466285D01*
X576525Y465926D01*
X576484Y465507D01*
X576363Y465135D01*
X576165Y464811D01*
X575894Y464540D01*
X575555Y464324D01*
X575149Y464166D01*
X574682Y464069D01*
X574314Y464046D01*
X574156Y464036D01*
X573609Y464073D01*
X573133Y464183D01*
X572726Y464360D01*
X572390Y464600D01*
X572125Y464898D01*
X571931Y465250D01*
X571809Y465650D01*
X571759Y466095D01*
X572596Y466095D01*
X572636Y465804D01*
X572720Y465544D01*
X572850Y465319D01*
X573024Y465130D01*
X573241Y464980D01*
X573503Y464869D01*
X573808Y464802D01*
X574156Y464779D01*
X574507Y464796D01*
X574813Y464850D01*
X575073Y464938D01*
X575287Y465063D01*
X575454Y465224D01*
X575574Y465421D01*
X575646Y465655D01*
X575670Y465926D01*
X575653Y466149D01*
X575601Y466342D01*
X575516Y466506D01*
X575397Y466645D01*
X575059Y466856D01*
X574588Y466997D01*
X573630Y467204D01*
X573232Y467310D01*
X572891Y467444D01*
X572606Y467609D01*
X572376Y467807D01*
X572198Y468041D01*
X572073Y468314D01*
X571999Y468626D01*
X571975Y468981D01*
X572011Y469364D01*
X572119Y469711D01*
X572296Y470019D01*
X572541Y470282D01*
X572853Y470496D01*
X573228Y470654D01*
X573666Y470752D01*
X574165Y470786D01*
X574653Y470750D01*
D02*
G37*
G36*
X540226Y471086D02*
X540686Y470956D01*
X541116Y470756D01*
X541446Y470496D01*
X541736Y470156D01*
X541936Y469736D01*
X542106Y469236D01*
X542196Y468505D01*
X541006Y468506D01*
X540966Y468826D01*
X540926Y469116D01*
X540826Y469346D01*
X540706Y469586D01*
X540516Y469776D01*
X540276Y469916D01*
X540026Y469996D01*
X539706Y470006D01*
X539346Y469956D01*
X539096Y469876D01*
X538796Y469666D01*
X538606Y469376D01*
X538476Y469036D01*
X538386Y468686D01*
X538396Y468616D01*
X538336Y468206D01*
X538306Y467556D01*
X537126Y467556D01*
X537136Y467726D01*
X537196Y468626D01*
X537366Y469386D01*
X537646Y469986D01*
X537966Y470456D01*
X538376Y470776D01*
X538816Y470976D01*
X539226Y471086D01*
X539696Y471136D01*
X540226Y471086D01*
D02*
G37*
G36*
X665419Y471067D02*
X665853Y470971D01*
X666300Y470757D01*
X666667Y470464D01*
X667010Y470011D01*
X667288Y469397D01*
X667483Y468603D01*
X667544Y467519D01*
X667484Y466520D01*
X667317Y465718D01*
X667061Y465096D01*
X666733Y464631D01*
X666353Y464304D01*
X666078Y464183D01*
X665938Y464096D01*
X665579Y464004D01*
X665078Y463953D01*
X664649Y463985D01*
X664218Y464096D01*
X663779Y464325D01*
X663423Y464631D01*
X663096Y465096D01*
X662839Y465719D01*
X662672Y466520D01*
X662612Y467519D01*
X662672Y468516D01*
X662686Y468504D01*
X662813Y469241D01*
X663047Y469873D01*
X663358Y470349D01*
X663727Y470688D01*
X663997Y470819D01*
X664134Y470912D01*
X664490Y471016D01*
X664989Y471084D01*
X665419Y471067D01*
D02*
G37*
G36*
X619940Y469932D02*
X616725Y469932D01*
X616725Y467861D01*
X619620Y467861D01*
X619620Y467108D01*
X616725Y467108D01*
X616725Y464103D01*
X615906Y464103D01*
Y470684D01*
X619940Y470684D01*
X619940Y469932D01*
D02*
G37*
G36*
X592377Y470684D02*
X592377Y469932D01*
X589162Y469932D01*
X589162Y467861D01*
X592085Y467861D01*
X592085Y467108D01*
X589162Y467108D01*
X589162Y464846D01*
X592377Y464846D01*
X592377Y464103D01*
X588344D01*
X588344Y470684D01*
X592377Y470684D01*
D02*
G37*
G36*
X554606Y469906D02*
X554596Y469916D01*
X554606Y469916D01*
X554606Y469906D01*
D02*
G37*
G36*
X538336Y466896D02*
X538396Y466486D01*
X538386Y466416D01*
X538476Y466066D01*
X538606Y465726D01*
X538796Y465436D01*
X539096Y465226D01*
X539346Y465146D01*
X539706Y465096D01*
X540026Y465106D01*
X540276Y465186D01*
X540516Y465326D01*
X540706Y465516D01*
X540826Y465756D01*
X540926Y465986D01*
X540966Y466276D01*
X541006Y466596D01*
X542196Y466596D01*
X542106Y465866D01*
X541936Y465366D01*
X541736Y464946D01*
X541446Y464606D01*
X541116Y464346D01*
X540686Y464146D01*
X540226Y464016D01*
X539696Y463966D01*
X539226Y464016D01*
X538816Y464126D01*
X538376Y464326D01*
X537966Y464646D01*
X537646Y465116D01*
X537366Y465716D01*
X537196Y466476D01*
X537136Y467376D01*
X537126Y467546D01*
X538306Y467546D01*
X538336Y466896D01*
D02*
G37*
G36*
X670764Y471022D02*
X671183Y470917D01*
X671553Y470748D01*
X671867Y470520D01*
X672120Y470237D01*
X672308Y469905D01*
X672424Y469527D01*
X672464Y469108D01*
X672387Y468556D01*
X672155Y468039D01*
X671763Y467485D01*
X671209Y466824D01*
X669718Y465095D01*
X672568Y465094D01*
X672568Y464019D01*
X668115Y464019D01*
X668115Y464874D01*
X670404Y467546D01*
X670823Y468043D01*
X671102Y468421D01*
X671256Y468745D01*
X671304Y469081D01*
X671238Y469475D01*
X671044Y469763D01*
X670729Y469940D01*
X670299Y470000D01*
X670057Y469983D01*
X669663Y469844D01*
X669512Y469724D01*
X669308Y469389D01*
X669256Y469174D01*
X669238Y468759D01*
X668096Y468759D01*
X668136Y469393D01*
X668252Y469808D01*
X668440Y470171D01*
X668696Y470479D01*
X669014Y470725D01*
X669390Y470907D01*
X669754Y471002D01*
X670299Y471058D01*
X670764Y471022D01*
D02*
G37*
G36*
X660229Y471022D02*
X660648Y470917D01*
X661018Y470749D01*
X661332Y470520D01*
X661585Y470237D01*
X661773Y469905D01*
X661889Y469527D01*
X661929Y469109D01*
X661852Y468556D01*
X661620Y468039D01*
X661228Y467485D01*
X660674Y466824D01*
X659183Y465095D01*
X662033Y465095D01*
X662033Y464019D01*
X657580Y464019D01*
X657580Y464874D01*
X659869Y467546D01*
X660288Y468043D01*
X660566Y468420D01*
X660721Y468745D01*
X660768Y469081D01*
X660703Y469474D01*
X660509Y469763D01*
X660194Y469940D01*
X659764Y470000D01*
X659522Y469983D01*
X659127Y469844D01*
X658977Y469724D01*
X658773Y469389D01*
X658721Y469174D01*
X658703Y468759D01*
X657561Y468759D01*
X657601Y469393D01*
X657717Y469808D01*
X657905Y470171D01*
X658160Y470479D01*
X658479Y470725D01*
X658855Y470907D01*
X659219Y471002D01*
X659764Y471057D01*
X660229Y471022D01*
D02*
G37*
G36*
X601563Y470747D02*
X602012Y470626D01*
X602389Y470432D01*
X602700Y470167D01*
X602948Y469837D01*
X603135Y469447D01*
X603266Y469001D01*
X603344Y468503D01*
X602498Y468503D01*
X602453Y468838D01*
X602379Y469136D01*
X602270Y469395D01*
X602122Y469613D01*
X601930Y469785D01*
X601689Y469912D01*
X601394Y469990D01*
X601041Y470016D01*
X600588Y469959D01*
X600232Y469796D01*
X599960Y469542D01*
X599761Y469212D01*
X599626Y468819D01*
X599543Y468378D01*
X599501Y467905D01*
X599497Y467717D01*
X599490Y467410D01*
X599501Y466919D01*
X599501Y466919D01*
X599501Y466913D01*
X599543Y466439D01*
X599626Y465999D01*
X599761Y465606D01*
X599959Y465275D01*
X600231Y465022D01*
X600588Y464858D01*
X601041Y464801D01*
X601394Y464827D01*
X601689Y464905D01*
X601930Y465032D01*
X602081Y465189D01*
X602348Y465648D01*
X602453Y465979D01*
X602507Y466256D01*
X603344Y466256D01*
X603266Y465817D01*
X603135Y465371D01*
X602947Y464980D01*
X602700Y464651D01*
X602389Y464386D01*
X602012Y464192D01*
X601563Y464071D01*
X601041Y464030D01*
X600452Y464092D01*
X599952Y464272D01*
X599538Y464563D01*
X599207Y464956D01*
X598955Y465445D01*
X598780Y466021D01*
X598676Y466677D01*
X598643Y467405D01*
X598643Y467411D01*
X598643Y467412D01*
X598654Y467639D01*
X598676Y468125D01*
X598676Y468125D01*
X598677Y468141D01*
X598780Y468796D01*
X598955Y469373D01*
X599207Y469861D01*
X599539Y470255D01*
X599952Y470546D01*
X600452Y470726D01*
X601041Y470787D01*
X601563Y470747D01*
D02*
G37*
G36*
X645249Y470747D02*
X645698Y470626D01*
X646075Y470432D01*
X646386Y470167D01*
X646633Y469838D01*
X646821Y469447D01*
X646952Y469001D01*
X647030Y468503D01*
X646184Y468503D01*
X646139Y468838D01*
X646065Y469136D01*
X645956Y469395D01*
X645808Y469613D01*
X645616Y469786D01*
X645375Y469912D01*
X645080Y469990D01*
X644727Y470016D01*
X644274Y469959D01*
X643917Y469796D01*
X643645Y469542D01*
X643447Y469212D01*
X643312Y468819D01*
X643229Y468378D01*
X643187Y467905D01*
X643187Y467898D01*
X643187Y467898D01*
X643176Y467452D01*
X643175Y467412D01*
X643187Y466919D01*
X643187Y466919D01*
X643187Y466913D01*
X643228Y466439D01*
X643311Y465999D01*
X643447Y465606D01*
X643645Y465275D01*
X643917Y465022D01*
X644274Y464858D01*
X644727Y464801D01*
X645080Y464827D01*
X645374Y464905D01*
X645615Y465032D01*
X645767Y465189D01*
X646034Y465648D01*
X646139Y465979D01*
X646193Y466256D01*
X647030Y466256D01*
X646952Y465817D01*
X646821Y465371D01*
X646633Y464980D01*
X646386Y464651D01*
X646075Y464386D01*
X645697Y464192D01*
X645249Y464071D01*
X644726Y464030D01*
X644138Y464092D01*
X643638Y464272D01*
X643224Y464562D01*
X642893Y464956D01*
X642641Y465445D01*
X642465Y466021D01*
X642362Y466677D01*
X642329Y467405D01*
X642361Y468126D01*
X642362Y468125D01*
X642363Y468141D01*
X642466Y468796D01*
X642641Y469373D01*
X642893Y469861D01*
X643224Y470255D01*
X643638Y470546D01*
X644138Y470726D01*
X644727Y470787D01*
X645249Y470747D01*
D02*
G37*
G36*
X555476Y470996D02*
X556106Y470946D01*
X556666Y470796D01*
X557176Y470516D01*
X557546Y470146D01*
X557886Y469636D01*
X558116Y469056D01*
X558226Y468456D01*
X558276Y468006D01*
X558293Y467589D01*
X558296Y467566D01*
X558295Y467541D01*
X558296Y467516D01*
X558293Y467491D01*
X558276Y467075D01*
X558226Y466625D01*
X558116Y466026D01*
X557886Y465446D01*
X557546Y464936D01*
X557176Y464566D01*
X556666Y464286D01*
X556106Y464136D01*
X555476Y464086D01*
X554576Y464076D01*
X554606Y465165D01*
X555406Y465146D01*
X555806Y465186D01*
X556176Y465306D01*
X556456Y465486D01*
X556716Y465756D01*
X556876Y466076D01*
X557026Y466466D01*
X557106Y466986D01*
X557116Y467266D01*
X557116D01*
X557126Y467542D01*
X557116Y467816D01*
X557116D01*
X557106Y468096D01*
X557026Y468616D01*
X556876Y469006D01*
X556716Y469326D01*
X556456Y469596D01*
X556176Y469776D01*
X555806Y469896D01*
X555406Y469936D01*
X554606Y469916D01*
X554576Y471006D01*
X555476Y470996D01*
D02*
G37*
%LPC*%
G36*
X583894Y469940D02*
X583894Y467242D01*
X585116Y467242D01*
X585435Y467264D01*
X585709Y467330D01*
X585939Y467440D01*
X586126Y467592D01*
X586269Y467785D01*
X586371Y468019D01*
X586431Y468293D01*
X586451Y468605D01*
X586430Y468906D01*
X586367Y469171D01*
X586262Y469399D01*
X586115Y469590D01*
X585927Y469741D01*
X585750Y469838D01*
X585427Y469917D01*
X585116Y469940D01*
X583894Y469940D01*
D02*
G37*
G36*
X595567Y469942D02*
X594345Y469942D01*
X594345Y467243D01*
X595567Y467243D01*
X595886Y467266D01*
X596160Y467332D01*
X596390Y467442D01*
X596576Y467594D01*
X596720Y467787D01*
X596822Y468021D01*
X596882Y468294D01*
X596902Y468607D01*
X596881Y468907D01*
X596818Y469172D01*
X596712Y469401D01*
X596566Y469591D01*
X596378Y469742D01*
X596201Y469839D01*
X595878Y469919D01*
X595567Y469942D01*
D02*
G37*
G36*
X628143Y469942D02*
X626921Y469942D01*
X626921Y467243D01*
X628143Y467243D01*
X628462Y467266D01*
X628736Y467332D01*
X628966Y467442D01*
X629152Y467594D01*
X629296Y467787D01*
X629397Y468021D01*
X629458Y468295D01*
X629478Y468607D01*
X629457Y468907D01*
X629394Y469172D01*
X629288Y469401D01*
X629142Y469591D01*
X628954Y469742D01*
X628777Y469839D01*
X628454Y469919D01*
X628143Y469942D01*
D02*
G37*
G36*
X606554Y470017D02*
X606201Y469991D01*
X605906Y469913D01*
X605665Y469786D01*
X605514Y469629D01*
X605247Y469170D01*
X605142Y468839D01*
X605016Y467917D01*
X604988Y467434D01*
X604999Y466941D01*
X605041Y466468D01*
X605124Y466027D01*
X605259Y465634D01*
X605458Y465304D01*
X605730Y465050D01*
X606086Y464887D01*
X606539Y464830D01*
X606893Y464856D01*
X607187Y464934D01*
X607428Y465061D01*
X607579Y465217D01*
X607847Y465676D01*
X607951Y466008D01*
X608042Y466425D01*
X608090Y466905D01*
X608105Y467413D01*
X608094Y467905D01*
X608052Y468379D01*
X607969Y468819D01*
X607834Y469212D01*
X607636Y469543D01*
X607364Y469797D01*
X607007Y469959D01*
X606554Y470017D01*
D02*
G37*
G36*
X666336Y468437D02*
X664969Y466464D01*
X664299Y465320D01*
X664679Y465114D01*
X665078Y465010D01*
X665390Y465048D01*
X665658Y465162D01*
X665759Y465248D01*
X665908Y465363D01*
X666065Y465623D01*
X666181Y465914D01*
X666305Y466405D01*
X666364Y466920D01*
X666369Y466923D01*
X666383Y467519D01*
X666336Y468437D01*
D02*
G37*
G36*
X665026Y470028D02*
X664715Y469979D01*
X664452Y469856D01*
X664353Y469766D01*
X664209Y469646D01*
X664061Y469381D01*
X663954Y469086D01*
X663848Y468590D01*
X663792Y468117D01*
X663772Y467520D01*
X663825Y466580D01*
X665839Y469662D01*
X665764Y469756D01*
X665614Y469866D01*
X665434Y469966D01*
X665234Y470016D01*
X665026Y470028D01*
D02*
G37*
%LPD*%
D13*
X685000Y206000D02*
G03*
X704000Y225000I0J19000D01*
G01*
Y459000D02*
G03*
X685000Y478000I-19000J0D01*
G01*
X282000D02*
G03*
X263000Y459000I0J-19000D01*
G01*
Y225000D02*
G03*
X282000Y206000I19000J0D01*
G01*
X684926D01*
X282000Y478000D02*
X425000D01*
X263000Y224000D02*
Y459000D01*
X704000Y224000D02*
Y459000D01*
X516000Y478000D02*
X685000D01*
D14*
X690000Y270000D02*
D03*
X525000Y225000D02*
D03*
X575000D02*
D03*
X625000D02*
D03*
X645000Y225000D02*
D03*
X635000Y225000D02*
D03*
X615000D02*
D03*
X605000D02*
D03*
X595000Y225000D02*
D03*
X585000Y225000D02*
D03*
X565000D02*
D03*
X555000D02*
D03*
X545000Y225000D02*
D03*
X535000Y225000D02*
D03*
X485000D02*
D03*
X495000Y225000D02*
D03*
X505000Y225000D02*
D03*
X515000Y225000D02*
D03*
X325000D02*
D03*
X315000Y225000D02*
D03*
X305000Y225000D02*
D03*
X295000Y225000D02*
D03*
X345000D02*
D03*
X355000Y225000D02*
D03*
X365000Y225000D02*
D03*
X375000D02*
D03*
X395000D02*
D03*
X405000Y225000D02*
D03*
X415000Y225000D02*
D03*
X425000D02*
D03*
X445000D02*
D03*
X455000Y225000D02*
D03*
X435000Y225000D02*
D03*
X385000D02*
D03*
X335000D02*
D03*
X280000Y380000D02*
D03*
X690000D02*
D03*
Y430000D02*
D03*
Y330000D02*
D03*
X280000D02*
D03*
X690000Y280000D02*
D03*
X280000D02*
D03*
X290000Y270000D02*
D03*
Y260000D02*
D03*
Y250000D02*
D03*
Y240000D02*
D03*
X280000D02*
D03*
Y250000D02*
D03*
Y260000D02*
D03*
Y270000D02*
D03*
X300000Y240000D02*
D03*
Y250000D02*
D03*
Y260000D02*
D03*
Y270000D02*
D03*
X310000Y240000D02*
D03*
Y250000D02*
D03*
Y260000D02*
D03*
Y270000D02*
D03*
X320000Y240000D02*
D03*
Y250000D02*
D03*
Y260000D02*
D03*
Y270000D02*
D03*
X330000Y240000D02*
D03*
Y250000D02*
D03*
Y260000D02*
D03*
Y270000D02*
D03*
X340000Y240000D02*
D03*
Y250000D02*
D03*
Y260000D02*
D03*
Y270000D02*
D03*
X350000Y240000D02*
D03*
Y250000D02*
D03*
Y260000D02*
D03*
Y270000D02*
D03*
X360000Y240000D02*
D03*
Y250000D02*
D03*
Y260000D02*
D03*
Y270000D02*
D03*
X370000Y240000D02*
D03*
Y250000D02*
D03*
Y260000D02*
D03*
Y270000D02*
D03*
X470000D02*
D03*
Y260000D02*
D03*
Y250000D02*
D03*
Y240000D02*
D03*
X460000Y270000D02*
D03*
Y260000D02*
D03*
Y250000D02*
D03*
Y240000D02*
D03*
X450000Y270000D02*
D03*
Y260000D02*
D03*
Y250000D02*
D03*
Y240000D02*
D03*
X440000Y270000D02*
D03*
Y260000D02*
D03*
Y250000D02*
D03*
Y240000D02*
D03*
X430000Y270000D02*
D03*
Y260000D02*
D03*
Y250000D02*
D03*
Y240000D02*
D03*
X420000Y270000D02*
D03*
Y260000D02*
D03*
Y250000D02*
D03*
Y240000D02*
D03*
X410000Y270000D02*
D03*
Y260000D02*
D03*
Y250000D02*
D03*
Y240000D02*
D03*
X400000Y270000D02*
D03*
Y260000D02*
D03*
Y250000D02*
D03*
Y240000D02*
D03*
X380000Y270000D02*
D03*
Y260000D02*
D03*
Y250000D02*
D03*
Y240000D02*
D03*
X390000D02*
D03*
Y250000D02*
D03*
Y260000D02*
D03*
Y270000D02*
D03*
X570000D02*
D03*
Y260000D02*
D03*
Y250000D02*
D03*
Y240000D02*
D03*
X560000Y270000D02*
D03*
Y260000D02*
D03*
Y250000D02*
D03*
Y240000D02*
D03*
X550000Y270000D02*
D03*
Y260000D02*
D03*
Y250000D02*
D03*
Y240000D02*
D03*
X540000Y270000D02*
D03*
Y260000D02*
D03*
Y250000D02*
D03*
Y240000D02*
D03*
X530000Y270000D02*
D03*
Y260000D02*
D03*
Y250000D02*
D03*
Y240000D02*
D03*
X520000Y270000D02*
D03*
Y260000D02*
D03*
Y250000D02*
D03*
Y240000D02*
D03*
X510000Y270000D02*
D03*
Y260000D02*
D03*
Y250000D02*
D03*
Y240000D02*
D03*
X500000Y270000D02*
D03*
Y260000D02*
D03*
Y250000D02*
D03*
Y240000D02*
D03*
X480000Y270000D02*
D03*
Y260000D02*
D03*
Y250000D02*
D03*
Y240000D02*
D03*
X490000D02*
D03*
Y250000D02*
D03*
Y260000D02*
D03*
Y270000D02*
D03*
X670000D02*
D03*
Y260000D02*
D03*
X660000Y270000D02*
D03*
Y260000D02*
D03*
Y250000D02*
D03*
X650000Y270000D02*
D03*
Y260000D02*
D03*
Y250000D02*
D03*
Y240000D02*
D03*
X640000Y270000D02*
D03*
Y260000D02*
D03*
Y250000D02*
D03*
Y240000D02*
D03*
X630000Y270000D02*
D03*
Y260000D02*
D03*
Y250000D02*
D03*
Y240000D02*
D03*
X620000Y270000D02*
D03*
Y260000D02*
D03*
Y250000D02*
D03*
Y240000D02*
D03*
X610000Y270000D02*
D03*
Y260000D02*
D03*
Y250000D02*
D03*
Y240000D02*
D03*
X600000Y270000D02*
D03*
Y260000D02*
D03*
Y250000D02*
D03*
Y240000D02*
D03*
X580000Y270000D02*
D03*
Y260000D02*
D03*
Y250000D02*
D03*
Y240000D02*
D03*
X590000D02*
D03*
Y250000D02*
D03*
Y260000D02*
D03*
Y270000D02*
D03*
X680000D02*
D03*
X290000Y320000D02*
D03*
Y310000D02*
D03*
Y300000D02*
D03*
Y290000D02*
D03*
X280000D02*
D03*
Y300000D02*
D03*
Y310000D02*
D03*
Y320000D02*
D03*
X300000Y290000D02*
D03*
Y300000D02*
D03*
Y310000D02*
D03*
Y320000D02*
D03*
X310000Y290000D02*
D03*
Y300000D02*
D03*
Y310000D02*
D03*
Y320000D02*
D03*
X320000Y290000D02*
D03*
Y300000D02*
D03*
Y310000D02*
D03*
Y320000D02*
D03*
X330000Y290000D02*
D03*
Y300000D02*
D03*
Y310000D02*
D03*
Y320000D02*
D03*
X340000Y290000D02*
D03*
Y300000D02*
D03*
Y310000D02*
D03*
Y320000D02*
D03*
X350000Y290000D02*
D03*
Y300000D02*
D03*
Y310000D02*
D03*
Y320000D02*
D03*
X360000Y290000D02*
D03*
Y300000D02*
D03*
Y310000D02*
D03*
Y320000D02*
D03*
X370000Y290000D02*
D03*
Y300000D02*
D03*
Y310000D02*
D03*
Y320000D02*
D03*
X470000D02*
D03*
Y310000D02*
D03*
Y300000D02*
D03*
Y290000D02*
D03*
X460000Y320000D02*
D03*
Y310000D02*
D03*
Y300000D02*
D03*
Y290000D02*
D03*
X450000Y320000D02*
D03*
Y310000D02*
D03*
Y300000D02*
D03*
Y290000D02*
D03*
X440000Y320000D02*
D03*
Y310000D02*
D03*
Y300000D02*
D03*
Y290000D02*
D03*
X430000Y320000D02*
D03*
Y310000D02*
D03*
Y300000D02*
D03*
Y290000D02*
D03*
X420000Y320000D02*
D03*
Y310000D02*
D03*
Y300000D02*
D03*
Y290000D02*
D03*
X410000Y320000D02*
D03*
Y310000D02*
D03*
Y300000D02*
D03*
Y290000D02*
D03*
X400000Y320000D02*
D03*
Y310000D02*
D03*
Y300000D02*
D03*
Y290000D02*
D03*
X380000Y320000D02*
D03*
Y310000D02*
D03*
Y300000D02*
D03*
Y290000D02*
D03*
X390000D02*
D03*
Y300000D02*
D03*
Y310000D02*
D03*
Y320000D02*
D03*
X570000D02*
D03*
Y310000D02*
D03*
Y300000D02*
D03*
Y290000D02*
D03*
X560000Y320000D02*
D03*
Y310000D02*
D03*
Y300000D02*
D03*
Y290000D02*
D03*
X550000Y320000D02*
D03*
Y310000D02*
D03*
Y300000D02*
D03*
Y290000D02*
D03*
X540000Y320000D02*
D03*
Y310000D02*
D03*
Y300000D02*
D03*
Y290000D02*
D03*
X530000Y320000D02*
D03*
Y310000D02*
D03*
Y300000D02*
D03*
Y290000D02*
D03*
X520000Y320000D02*
D03*
Y310000D02*
D03*
Y300000D02*
D03*
Y290000D02*
D03*
X510000Y320000D02*
D03*
Y310000D02*
D03*
Y300000D02*
D03*
Y290000D02*
D03*
X500000Y320000D02*
D03*
Y310000D02*
D03*
Y300000D02*
D03*
Y290000D02*
D03*
X480000Y320000D02*
D03*
Y310000D02*
D03*
Y300000D02*
D03*
Y290000D02*
D03*
X490000D02*
D03*
Y300000D02*
D03*
Y310000D02*
D03*
Y320000D02*
D03*
X670000D02*
D03*
Y310000D02*
D03*
Y300000D02*
D03*
Y290000D02*
D03*
X660000Y320000D02*
D03*
Y310000D02*
D03*
Y300000D02*
D03*
Y290000D02*
D03*
X650000Y320000D02*
D03*
Y310000D02*
D03*
Y300000D02*
D03*
Y290000D02*
D03*
X640000Y320000D02*
D03*
Y310000D02*
D03*
Y300000D02*
D03*
Y290000D02*
D03*
X630000Y320000D02*
D03*
Y310000D02*
D03*
Y300000D02*
D03*
Y290000D02*
D03*
X620000Y320000D02*
D03*
Y310000D02*
D03*
Y300000D02*
D03*
Y290000D02*
D03*
X610000Y320000D02*
D03*
Y310000D02*
D03*
Y300000D02*
D03*
Y290000D02*
D03*
X600000Y320000D02*
D03*
Y310000D02*
D03*
Y300000D02*
D03*
Y290000D02*
D03*
X580000Y320000D02*
D03*
Y310000D02*
D03*
Y300000D02*
D03*
Y290000D02*
D03*
X590000D02*
D03*
Y300000D02*
D03*
Y310000D02*
D03*
Y320000D02*
D03*
X680000D02*
D03*
Y310000D02*
D03*
Y300000D02*
D03*
Y290000D02*
D03*
X690000D02*
D03*
Y300000D02*
D03*
Y310000D02*
D03*
Y320000D02*
D03*
X290000Y370000D02*
D03*
Y360000D02*
D03*
Y350000D02*
D03*
Y340000D02*
D03*
X280000D02*
D03*
Y350000D02*
D03*
Y360000D02*
D03*
Y370000D02*
D03*
X300000Y340000D02*
D03*
Y350000D02*
D03*
Y360000D02*
D03*
Y370000D02*
D03*
X310000Y340000D02*
D03*
Y350000D02*
D03*
Y360000D02*
D03*
Y370000D02*
D03*
X320000Y340000D02*
D03*
Y350000D02*
D03*
Y360000D02*
D03*
Y370000D02*
D03*
X330000Y340000D02*
D03*
Y350000D02*
D03*
Y360000D02*
D03*
Y370000D02*
D03*
X340000Y340000D02*
D03*
Y350000D02*
D03*
Y360000D02*
D03*
Y370000D02*
D03*
X350000Y340000D02*
D03*
Y350000D02*
D03*
Y360000D02*
D03*
Y370000D02*
D03*
X360000Y340000D02*
D03*
Y350000D02*
D03*
Y360000D02*
D03*
Y370000D02*
D03*
X370000Y340000D02*
D03*
Y350000D02*
D03*
Y360000D02*
D03*
Y370000D02*
D03*
X470000D02*
D03*
Y360000D02*
D03*
Y350000D02*
D03*
Y340000D02*
D03*
X460000Y370000D02*
D03*
Y360000D02*
D03*
Y350000D02*
D03*
Y340000D02*
D03*
X450000Y370000D02*
D03*
Y360000D02*
D03*
Y350000D02*
D03*
Y340000D02*
D03*
X440000Y370000D02*
D03*
Y360000D02*
D03*
Y350000D02*
D03*
Y340000D02*
D03*
X430000Y370000D02*
D03*
Y360000D02*
D03*
Y350000D02*
D03*
Y340000D02*
D03*
X420000Y370000D02*
D03*
Y360000D02*
D03*
Y350000D02*
D03*
Y340000D02*
D03*
X410000Y370000D02*
D03*
Y360000D02*
D03*
Y350000D02*
D03*
Y340000D02*
D03*
X400000Y370000D02*
D03*
Y360000D02*
D03*
Y350000D02*
D03*
Y340000D02*
D03*
X380000Y370000D02*
D03*
Y360000D02*
D03*
Y350000D02*
D03*
Y340000D02*
D03*
X390000D02*
D03*
Y350000D02*
D03*
Y360000D02*
D03*
Y370000D02*
D03*
X570000D02*
D03*
Y360000D02*
D03*
Y350000D02*
D03*
Y340000D02*
D03*
X560000Y370000D02*
D03*
Y360000D02*
D03*
Y350000D02*
D03*
Y340000D02*
D03*
X550000Y370000D02*
D03*
Y360000D02*
D03*
Y350000D02*
D03*
Y340000D02*
D03*
X540000Y370000D02*
D03*
Y360000D02*
D03*
Y350000D02*
D03*
Y340000D02*
D03*
X530000Y370000D02*
D03*
Y360000D02*
D03*
Y350000D02*
D03*
Y340000D02*
D03*
X520000Y370000D02*
D03*
Y360000D02*
D03*
Y350000D02*
D03*
Y340000D02*
D03*
X510000Y370000D02*
D03*
Y360000D02*
D03*
Y350000D02*
D03*
Y340000D02*
D03*
X500000Y370000D02*
D03*
Y360000D02*
D03*
Y350000D02*
D03*
Y340000D02*
D03*
X480000Y370000D02*
D03*
Y360000D02*
D03*
Y350000D02*
D03*
Y340000D02*
D03*
X490000D02*
D03*
Y350000D02*
D03*
Y360000D02*
D03*
Y370000D02*
D03*
X670000D02*
D03*
Y360000D02*
D03*
Y350000D02*
D03*
Y340000D02*
D03*
X660000Y370000D02*
D03*
Y360000D02*
D03*
Y350000D02*
D03*
Y340000D02*
D03*
X650000Y370000D02*
D03*
Y360000D02*
D03*
Y350000D02*
D03*
Y340000D02*
D03*
X640000Y370000D02*
D03*
Y360000D02*
D03*
Y350000D02*
D03*
Y340000D02*
D03*
X630000Y370000D02*
D03*
Y360000D02*
D03*
Y350000D02*
D03*
Y340000D02*
D03*
X620000Y370000D02*
D03*
Y360000D02*
D03*
Y350000D02*
D03*
Y340000D02*
D03*
X610000Y370000D02*
D03*
Y360000D02*
D03*
Y350000D02*
D03*
Y340000D02*
D03*
X600000Y370000D02*
D03*
Y360000D02*
D03*
Y350000D02*
D03*
Y340000D02*
D03*
X580000Y370000D02*
D03*
Y360000D02*
D03*
Y350000D02*
D03*
Y340000D02*
D03*
X590000D02*
D03*
Y350000D02*
D03*
Y360000D02*
D03*
Y370000D02*
D03*
X680000D02*
D03*
Y360000D02*
D03*
Y350000D02*
D03*
Y340000D02*
D03*
X690000D02*
D03*
Y350000D02*
D03*
Y360000D02*
D03*
Y370000D02*
D03*
X460000Y470000D02*
D03*
X450000D02*
D03*
X440000D02*
D03*
X430000D02*
D03*
X510000D02*
D03*
X500000D02*
D03*
X480000D02*
D03*
X490000D02*
D03*
X310000Y440000D02*
D03*
Y450000D02*
D03*
Y460000D02*
D03*
X320000Y440000D02*
D03*
Y450000D02*
D03*
Y460000D02*
D03*
X330000Y440000D02*
D03*
Y450000D02*
D03*
Y460000D02*
D03*
X340000Y440000D02*
D03*
Y450000D02*
D03*
Y460000D02*
D03*
X350000Y440000D02*
D03*
Y450000D02*
D03*
Y460000D02*
D03*
X360000Y440000D02*
D03*
Y450000D02*
D03*
Y460000D02*
D03*
X370000Y440000D02*
D03*
Y450000D02*
D03*
Y460000D02*
D03*
X460000D02*
D03*
Y450000D02*
D03*
Y440000D02*
D03*
X450000Y460000D02*
D03*
Y450000D02*
D03*
Y440000D02*
D03*
X440000Y460000D02*
D03*
Y450000D02*
D03*
Y440000D02*
D03*
X430000Y460000D02*
D03*
Y450000D02*
D03*
Y440000D02*
D03*
X410000Y460000D02*
D03*
Y450000D02*
D03*
Y440000D02*
D03*
X400000Y460000D02*
D03*
Y450000D02*
D03*
Y440000D02*
D03*
X380000Y460000D02*
D03*
Y450000D02*
D03*
Y440000D02*
D03*
X390000D02*
D03*
Y450000D02*
D03*
Y460000D02*
D03*
X570000Y450000D02*
D03*
Y440000D02*
D03*
X560000Y450000D02*
D03*
Y440000D02*
D03*
X550000Y450000D02*
D03*
Y440000D02*
D03*
X540000Y450000D02*
D03*
Y440000D02*
D03*
X530000Y450000D02*
D03*
Y440000D02*
D03*
X510000Y460000D02*
D03*
Y450000D02*
D03*
Y440000D02*
D03*
X500000Y460000D02*
D03*
Y450000D02*
D03*
Y440000D02*
D03*
X480000Y460000D02*
D03*
Y450000D02*
D03*
Y440000D02*
D03*
X490000D02*
D03*
Y450000D02*
D03*
Y460000D02*
D03*
X670000Y450000D02*
D03*
Y440000D02*
D03*
X660000Y450000D02*
D03*
Y440000D02*
D03*
X640000Y450000D02*
D03*
Y440000D02*
D03*
X630000Y450000D02*
D03*
Y440000D02*
D03*
X620000Y450000D02*
D03*
Y440000D02*
D03*
X610000Y450000D02*
D03*
Y440000D02*
D03*
X600000Y450000D02*
D03*
Y440000D02*
D03*
X580000Y450000D02*
D03*
Y440000D02*
D03*
X590000D02*
D03*
Y450000D02*
D03*
X680000D02*
D03*
Y440000D02*
D03*
X690000D02*
D03*
Y450000D02*
D03*
Y420000D02*
D03*
Y410000D02*
D03*
Y400000D02*
D03*
Y390000D02*
D03*
X680000D02*
D03*
Y400000D02*
D03*
Y410000D02*
D03*
Y420000D02*
D03*
X590000D02*
D03*
Y410000D02*
D03*
Y400000D02*
D03*
Y390000D02*
D03*
X580000D02*
D03*
Y400000D02*
D03*
Y410000D02*
D03*
Y420000D02*
D03*
X600000Y390000D02*
D03*
Y400000D02*
D03*
Y410000D02*
D03*
Y420000D02*
D03*
X610000Y390000D02*
D03*
Y400000D02*
D03*
Y410000D02*
D03*
Y420000D02*
D03*
X620000Y390000D02*
D03*
Y400000D02*
D03*
Y410000D02*
D03*
Y420000D02*
D03*
X630000Y390000D02*
D03*
Y400000D02*
D03*
Y410000D02*
D03*
Y420000D02*
D03*
X640000Y390000D02*
D03*
Y400000D02*
D03*
Y410000D02*
D03*
Y420000D02*
D03*
X650000Y390000D02*
D03*
Y400000D02*
D03*
Y410000D02*
D03*
Y420000D02*
D03*
X660000Y390000D02*
D03*
Y400000D02*
D03*
Y410000D02*
D03*
Y420000D02*
D03*
X670000Y390000D02*
D03*
Y400000D02*
D03*
Y410000D02*
D03*
Y420000D02*
D03*
X490000D02*
D03*
Y410000D02*
D03*
Y400000D02*
D03*
Y390000D02*
D03*
X480000D02*
D03*
Y400000D02*
D03*
Y410000D02*
D03*
Y420000D02*
D03*
X500000Y390000D02*
D03*
Y400000D02*
D03*
Y410000D02*
D03*
Y420000D02*
D03*
X510000Y390000D02*
D03*
Y400000D02*
D03*
Y410000D02*
D03*
Y420000D02*
D03*
X520000Y390000D02*
D03*
Y400000D02*
D03*
Y410000D02*
D03*
Y420000D02*
D03*
X530000Y390000D02*
D03*
Y400000D02*
D03*
Y410000D02*
D03*
Y420000D02*
D03*
X540000Y390000D02*
D03*
Y400000D02*
D03*
Y410000D02*
D03*
Y420000D02*
D03*
X550000Y390000D02*
D03*
Y400000D02*
D03*
Y410000D02*
D03*
Y420000D02*
D03*
X560000Y390000D02*
D03*
Y400000D02*
D03*
Y410000D02*
D03*
Y420000D02*
D03*
X570000Y390000D02*
D03*
Y400000D02*
D03*
Y410000D02*
D03*
Y420000D02*
D03*
X390000D02*
D03*
Y410000D02*
D03*
Y400000D02*
D03*
Y390000D02*
D03*
X380000D02*
D03*
Y400000D02*
D03*
Y410000D02*
D03*
Y420000D02*
D03*
X400000Y390000D02*
D03*
Y400000D02*
D03*
Y410000D02*
D03*
Y420000D02*
D03*
X410000Y390000D02*
D03*
Y400000D02*
D03*
Y410000D02*
D03*
Y420000D02*
D03*
X420000Y390000D02*
D03*
Y400000D02*
D03*
Y410000D02*
D03*
Y420000D02*
D03*
X430000Y390000D02*
D03*
Y400000D02*
D03*
Y410000D02*
D03*
Y420000D02*
D03*
X440000Y390000D02*
D03*
Y400000D02*
D03*
Y410000D02*
D03*
Y420000D02*
D03*
X450000Y390000D02*
D03*
Y400000D02*
D03*
Y410000D02*
D03*
Y420000D02*
D03*
X460000Y390000D02*
D03*
Y400000D02*
D03*
Y410000D02*
D03*
Y420000D02*
D03*
X470000Y390000D02*
D03*
Y400000D02*
D03*
Y410000D02*
D03*
Y420000D02*
D03*
X370000D02*
D03*
Y410000D02*
D03*
Y400000D02*
D03*
Y390000D02*
D03*
X360000Y420000D02*
D03*
Y410000D02*
D03*
Y400000D02*
D03*
Y390000D02*
D03*
X350000Y420000D02*
D03*
Y410000D02*
D03*
Y400000D02*
D03*
Y390000D02*
D03*
X340000Y420000D02*
D03*
Y410000D02*
D03*
Y400000D02*
D03*
Y390000D02*
D03*
X330000Y420000D02*
D03*
Y410000D02*
D03*
Y400000D02*
D03*
Y390000D02*
D03*
X320000Y420000D02*
D03*
Y410000D02*
D03*
Y400000D02*
D03*
Y390000D02*
D03*
X310000Y420000D02*
D03*
Y410000D02*
D03*
Y400000D02*
D03*
Y390000D02*
D03*
X300000Y420000D02*
D03*
Y410000D02*
D03*
Y400000D02*
D03*
Y390000D02*
D03*
X280000Y420000D02*
D03*
Y410000D02*
D03*
Y400000D02*
D03*
Y390000D02*
D03*
X290000D02*
D03*
Y400000D02*
D03*
Y410000D02*
D03*
Y420000D02*
D03*
D15*
X527256Y467551D02*
D03*
X530606Y467551D02*
D03*
X543596Y467591D02*
D03*
X554266Y467541D02*
D03*
D16*
X528971Y467641D02*
D03*
D17*
X533344Y467560D02*
D03*
X549334Y467560D02*
D03*
X559844Y467560D02*
D03*
D18*
X532331Y464246D02*
D03*
X536591Y464245D02*
D03*
X552581Y464245D02*
D03*
X548321Y464246D02*
D03*
X563091Y464245D02*
D03*
X558831Y464246D02*
D03*
D19*
X534474Y470854D02*
D03*
X550464Y470854D02*
D03*
X560974Y470855D02*
D03*
D20*
X535578Y467559D02*
D03*
X551569D02*
D03*
X562078Y467559D02*
D03*
D21*
X534411Y466806D02*
D03*
D22*
X545500Y466233D02*
D03*
D23*
X547103Y464254D02*
D03*
X547003Y470908D02*
D03*
D24*
X547193Y464489D02*
D03*
D25*
X547503Y464393D02*
D03*
D26*
X547403Y470768D02*
D03*
D27*
X547094Y470673D02*
D03*
D28*
X545400Y468928D02*
D03*
D29*
X550401Y466811D02*
D03*
X560911Y466811D02*
D03*
D30*
X566299Y468852D02*
D03*
D31*
X567348Y470838D02*
D03*
X563318Y470840D02*
D03*
D32*
X567496Y470654D02*
D03*
D33*
X567711Y470584D02*
D03*
D34*
X562955Y470585D02*
D03*
D35*
X563170Y470656D02*
D03*
D36*
X564366Y468854D02*
D03*
D37*
X565341Y465686D02*
D03*
M02*
