G04*
G04 #@! TF.GenerationSoftware,Altium Limited,CircuitStudio,1.5.2 (30)*
G04*
G04 Layer_Color=13408512*
%FSLAX25Y25*%
%MOIN*%
G70*
G01*
G75*
%ADD13C,0.00500*%
%ADD14R,0.06000X0.06000*%
%ADD15R,0.01160X0.06930*%
%ADD16R,0.02570X0.01130*%
G04:AMPARAMS|DCode=17|XSize=11.6mil|YSize=69.3mil|CornerRadius=0mil|HoleSize=0mil|Usage=FLASHONLY|Rotation=343.000|XOffset=0mil|YOffset=0mil|HoleType=Round|Shape=Rectangle|*
%AMROTATEDRECTD17*
4,1,4,-0.01568,-0.03144,0.00458,0.03483,0.01568,0.03144,-0.00458,-0.03483,-0.01568,-0.03144,0.0*
%
%ADD17ROTATEDRECTD17*%

%ADD18R,0.01109X0.00339*%
%ADD19R,0.01344X0.00377*%
G04:AMPARAMS|DCode=20|XSize=11.6mil|YSize=69.3mil|CornerRadius=0mil|HoleSize=0mil|Usage=FLASHONLY|Rotation=197.000|XOffset=0mil|YOffset=0mil|HoleType=Round|Shape=Rectangle|*
%AMROTATEDRECTD20*
4,1,4,-0.00458,0.03483,0.01568,-0.03144,0.00458,-0.03483,-0.01568,0.03144,-0.00458,0.03483,0.0*
%
%ADD20ROTATEDRECTD20*%

%ADD21R,0.02570X0.01040*%
G04:AMPARAMS|DCode=22|XSize=11.6mil|YSize=45.45mil|CornerRadius=0mil|HoleSize=0mil|Usage=FLASHONLY|Rotation=39.000|XOffset=0mil|YOffset=0mil|HoleType=Round|Shape=Rectangle|*
%AMROTATEDRECTD22*
4,1,4,0.00980,-0.02131,-0.01881,0.01401,-0.00980,0.02131,0.01881,-0.01401,0.00980,-0.02131,0.0*
%
%ADD22ROTATEDRECTD22*%

%ADD23R,0.01247X0.00304*%
G04:AMPARAMS|DCode=24|XSize=7.2mil|YSize=3.26mil|CornerRadius=0mil|HoleSize=0mil|Usage=FLASHONLY|Rotation=39.000|XOffset=0mil|YOffset=0mil|HoleType=Round|Shape=Rectangle|*
%AMROTATEDRECTD24*
4,1,4,-0.00177,-0.00353,-0.00382,-0.00100,0.00177,0.00353,0.00382,0.00100,-0.00177,-0.00353,0.0*
%
%ADD24ROTATEDRECTD24*%

G04:AMPARAMS|DCode=25|XSize=3.63mil|YSize=2.79mil|CornerRadius=0mil|HoleSize=0mil|Usage=FLASHONLY|Rotation=39.000|XOffset=0mil|YOffset=0mil|HoleType=Round|Shape=Rectangle|*
%AMROTATEDRECTD25*
4,1,4,-0.00053,-0.00223,-0.00229,-0.00006,0.00053,0.00223,0.00229,0.00006,-0.00053,-0.00223,0.0*
%
%ADD25ROTATEDRECTD25*%

G04:AMPARAMS|DCode=26|XSize=3.63mil|YSize=2.79mil|CornerRadius=0mil|HoleSize=0mil|Usage=FLASHONLY|Rotation=321.000|XOffset=0mil|YOffset=0mil|HoleType=Round|Shape=Rectangle|*
%AMROTATEDRECTD26*
4,1,4,-0.00229,0.00006,-0.00053,0.00223,0.00229,-0.00006,0.00053,-0.00223,-0.00229,0.00006,0.0*
%
%ADD26ROTATEDRECTD26*%

G04:AMPARAMS|DCode=27|XSize=7.2mil|YSize=3.26mil|CornerRadius=0mil|HoleSize=0mil|Usage=FLASHONLY|Rotation=321.000|XOffset=0mil|YOffset=0mil|HoleType=Round|Shape=Rectangle|*
%AMROTATEDRECTD27*
4,1,4,-0.00382,0.00100,-0.00177,0.00353,0.00382,-0.00100,0.00177,-0.00353,-0.00382,0.00100,0.0*
%
%ADD27ROTATEDRECTD27*%

G04:AMPARAMS|DCode=28|XSize=11.6mil|YSize=45.45mil|CornerRadius=0mil|HoleSize=0mil|Usage=FLASHONLY|Rotation=321.000|XOffset=0mil|YOffset=0mil|HoleType=Round|Shape=Rectangle|*
%AMROTATEDRECTD28*
4,1,4,-0.01881,-0.01401,0.00980,0.02131,0.01881,0.01401,-0.00980,-0.02131,-0.01881,-0.01401,0.0*
%
%ADD28ROTATEDRECTD28*%

%ADD29R,0.02570X0.01050*%
G04:AMPARAMS|DCode=30|XSize=11.6mil|YSize=42.26mil|CornerRadius=0mil|HoleSize=0mil|Usage=FLASHONLY|Rotation=332.000|XOffset=0mil|YOffset=0mil|HoleType=Round|Shape=Rectangle|*
%AMROTATEDRECTD30*
4,1,4,-0.01504,-0.01593,0.00480,0.02138,0.01504,0.01593,-0.00480,-0.02138,-0.01504,-0.01593,0.0*
%
%ADD30ROTATEDRECTD30*%

%ADD31R,0.01137X0.00304*%
G04:AMPARAMS|DCode=32|XSize=2.79mil|YSize=2.3mil|CornerRadius=0mil|HoleSize=0mil|Usage=FLASHONLY|Rotation=321.000|XOffset=0mil|YOffset=0mil|HoleType=Round|Shape=Rectangle|*
%AMROTATEDRECTD32*
4,1,4,-0.00181,-0.00002,-0.00036,0.00177,0.00181,0.00002,0.00036,-0.00177,-0.00181,-0.00002,0.0*
%
%ADD32ROTATEDRECTD32*%

G04:AMPARAMS|DCode=33|XSize=3.63mil|YSize=2.79mil|CornerRadius=0mil|HoleSize=0mil|Usage=FLASHONLY|Rotation=64.000|XOffset=0mil|YOffset=0mil|HoleType=Round|Shape=Rectangle|*
%AMROTATEDRECTD33*
4,1,4,0.00046,-0.00224,-0.00205,-0.00102,-0.00046,0.00224,0.00205,0.00102,0.00046,-0.00224,0.0*
%
%ADD33ROTATEDRECTD33*%

G04:AMPARAMS|DCode=34|XSize=3.63mil|YSize=2.79mil|CornerRadius=0mil|HoleSize=0mil|Usage=FLASHONLY|Rotation=116.000|XOffset=0mil|YOffset=0mil|HoleType=Round|Shape=Rectangle|*
%AMROTATEDRECTD34*
4,1,4,0.00205,-0.00102,-0.00046,-0.00224,-0.00205,0.00102,0.00046,0.00224,0.00205,-0.00102,0.0*
%
%ADD34ROTATEDRECTD34*%

G04:AMPARAMS|DCode=35|XSize=2.79mil|YSize=2.3mil|CornerRadius=0mil|HoleSize=0mil|Usage=FLASHONLY|Rotation=219.000|XOffset=0mil|YOffset=0mil|HoleType=Round|Shape=Rectangle|*
%AMROTATEDRECTD35*
4,1,4,0.00036,0.00177,0.00181,-0.00002,-0.00036,-0.00177,-0.00181,0.00002,0.00036,0.00177,0.0*
%
%ADD35ROTATEDRECTD35*%

G04:AMPARAMS|DCode=36|XSize=11.6mil|YSize=42.26mil|CornerRadius=0mil|HoleSize=0mil|Usage=FLASHONLY|Rotation=208.000|XOffset=0mil|YOffset=0mil|HoleType=Round|Shape=Rectangle|*
%AMROTATEDRECTD36*
4,1,4,-0.00480,0.02138,0.01504,-0.01593,0.00480,-0.02138,-0.01504,0.01593,-0.00480,0.02138,0.0*
%
%ADD36ROTATEDRECTD36*%

%ADD37R,0.01170X0.03200*%
G36*
X604548Y470726D02*
X605048Y470546D01*
X605461Y470255D01*
X605793Y469861D01*
X606045Y469373D01*
X606220Y468796D01*
X606323Y468141D01*
X606324Y468125D01*
X606324Y468125D01*
X606346Y467639D01*
X606357Y467412D01*
X606357Y467411D01*
X606357Y467405D01*
X606323Y466677D01*
X606220Y466021D01*
X606045Y465445D01*
X605793Y464956D01*
X605462Y464563D01*
X605048Y464272D01*
X604548Y464092D01*
X603959Y464030D01*
X603437Y464071D01*
X602988Y464192D01*
X602611Y464386D01*
X602300Y464651D01*
X602053Y464980D01*
X601865Y465371D01*
X601734Y465817D01*
X601656Y466256D01*
X602493Y466256D01*
X602547Y465979D01*
X602652Y465648D01*
X602919Y465189D01*
X603070Y465032D01*
X603311Y464905D01*
X603606Y464827D01*
X603959Y464801D01*
X604412Y464858D01*
X604769Y465022D01*
X605041Y465275D01*
X605239Y465606D01*
X605374Y465999D01*
X605457Y466439D01*
X605499Y466913D01*
X605499Y466919D01*
X605499Y466919D01*
X605510Y467410D01*
X605503Y467717D01*
X605499Y467905D01*
X605457Y468378D01*
X605374Y468819D01*
X605239Y469212D01*
X605041Y469542D01*
X604769Y469796D01*
X604412Y469959D01*
X603959Y470016D01*
X603606Y469990D01*
X603311Y469912D01*
X603070Y469785D01*
X602878Y469613D01*
X602730Y469395D01*
X602621Y469136D01*
X602547Y468838D01*
X602502Y468503D01*
X601656Y468503D01*
X601734Y469001D01*
X601865Y469447D01*
X602052Y469837D01*
X602300Y470167D01*
X602611Y470432D01*
X602988Y470626D01*
X603437Y470747D01*
X603959Y470787D01*
X604548Y470726D01*
D02*
G37*
G36*
X627502Y470702D02*
X627502Y466443D01*
X627476Y465942D01*
X627393Y465483D01*
X627249Y465074D01*
X627037Y464721D01*
X626753Y464433D01*
X626392Y464218D01*
X625948Y464083D01*
X625415Y464036D01*
X624874Y464084D01*
X624424Y464220D01*
X624059Y464438D01*
X623774Y464728D01*
X623562Y465082D01*
X623418Y465492D01*
X623336Y465948D01*
X623310Y466443D01*
X623310Y470702D01*
X624137Y470702D01*
Y466461D01*
X624174Y465831D01*
X624343Y465297D01*
X624503Y465087D01*
X624728Y464927D01*
X625029Y464825D01*
X625415Y464788D01*
X625794Y464825D01*
X626089Y464928D01*
X626313Y465089D01*
X626473Y465300D01*
X626645Y465835D01*
X626685Y466462D01*
X626685Y470702D01*
X627502Y470702D01*
D02*
G37*
G36*
X573347Y470684D02*
X573347Y464103D01*
X569314Y464103D01*
X569314Y464846D01*
X572529Y464846D01*
X572529Y467108D01*
X569633Y467108D01*
X569633Y467861D01*
X572529Y467861D01*
Y469932D01*
X569314Y469932D01*
X569314Y470684D01*
X573347Y470684D01*
D02*
G37*
G36*
X594813Y464102D02*
X594014Y464102D01*
X593976Y469056D01*
X591457Y464102D01*
X590554Y464102D01*
X590554Y470683D01*
X591363Y470683D01*
X591400Y465700D01*
X593920Y470683D01*
X594813D01*
X594813Y464102D01*
D02*
G37*
G36*
X667874Y467546D02*
X667864Y467376D01*
X667804Y466476D01*
X667634Y465716D01*
X667354Y465116D01*
X667034Y464646D01*
X666624Y464326D01*
X666184Y464126D01*
X665774Y464016D01*
X665304Y463966D01*
X664774Y464016D01*
X664314Y464146D01*
X663884Y464346D01*
X663554Y464606D01*
X663264Y464946D01*
X663064Y465366D01*
X662894Y465866D01*
X662804Y466596D01*
X663994Y466596D01*
X664034Y466276D01*
X664074Y465986D01*
X664174Y465756D01*
X664294Y465516D01*
X664484Y465326D01*
X664724Y465186D01*
X664974Y465106D01*
X665294Y465096D01*
X665654Y465146D01*
X665904Y465226D01*
X666204Y465436D01*
X666394Y465726D01*
X666524Y466066D01*
X666614Y466416D01*
X666604Y466486D01*
X666664Y466896D01*
X666694Y467546D01*
X667874Y467546D01*
D02*
G37*
G36*
X560862Y470726D02*
X561362Y470546D01*
X561776Y470255D01*
X562107Y469861D01*
X562359Y469373D01*
X562534Y468796D01*
X562637Y468141D01*
X562638Y468125D01*
X562639Y468126D01*
X562671Y467405D01*
X562638Y466677D01*
X562535Y466021D01*
X562359Y465445D01*
X562107Y464956D01*
X561776Y464562D01*
X561362Y464272D01*
X560862Y464092D01*
X560274Y464030D01*
X559751Y464071D01*
X559303Y464192D01*
X558925Y464386D01*
X558614Y464651D01*
X558367Y464980D01*
X558179Y465371D01*
X558048Y465817D01*
X557970Y466256D01*
X558807Y466256D01*
X558861Y465979D01*
X558966Y465648D01*
X559233Y465189D01*
X559384Y465032D01*
X559625Y464905D01*
X559920Y464827D01*
X560273Y464801D01*
X560726Y464858D01*
X561083Y465022D01*
X561355Y465275D01*
X561553Y465606D01*
X561689Y465999D01*
X561771Y466439D01*
X561813Y466913D01*
X561813Y466919D01*
X561813Y466919D01*
X561825Y467412D01*
X561824Y467452D01*
X561813Y467898D01*
X561813Y467898D01*
X561813Y467905D01*
X561771Y468378D01*
X561688Y468819D01*
X561553Y469212D01*
X561355Y469542D01*
X561083Y469796D01*
X560726Y469959D01*
X560274Y470016D01*
X559920Y469990D01*
X559625Y469912D01*
X559384Y469786D01*
X559192Y469613D01*
X559044Y469395D01*
X558935Y469136D01*
X558861Y468838D01*
X558816Y468503D01*
X557970Y468503D01*
X558048Y469001D01*
X558179Y469447D01*
X558366Y469838D01*
X558614Y470167D01*
X558925Y470432D01*
X559302Y470626D01*
X559751Y470747D01*
X560273Y470787D01*
X560862Y470726D01*
D02*
G37*
G36*
X611473Y464103D02*
X610655Y464103D01*
X610655Y466491D01*
X609470Y466494D01*
X607884Y464106D01*
X606990Y464106D01*
X606990Y464200D01*
X608608Y466592D01*
X608446Y466645D01*
X608089Y466828D01*
X607793Y467077D01*
X607560Y467384D01*
X607390Y467744D01*
X607287Y468154D01*
X607252Y468607D01*
X607286Y469047D01*
X607387Y469447D01*
X607555Y469801D01*
X607786Y470104D01*
X608081Y470349D01*
X608387Y470506D01*
X608854Y470646D01*
X609330Y470684D01*
X611473Y470684D01*
X611473Y464103D01*
D02*
G37*
G36*
X598968Y470747D02*
X599417Y470626D01*
X599794Y470432D01*
X600105Y470167D01*
X600352Y469838D01*
X600540Y469447D01*
X600671Y469001D01*
X600750Y468562D01*
X600813Y468112D01*
X600859Y467434D01*
X600825Y466706D01*
X600722Y466050D01*
X600546Y465473D01*
X600294Y464985D01*
X599963Y464591D01*
X599550Y464300D01*
X599050Y464121D01*
X598461Y464059D01*
X597938Y464100D01*
X597490Y464220D01*
X597113Y464415D01*
X596802Y464679D01*
X596554Y465009D01*
X596367Y465399D01*
X596236Y465845D01*
X596194Y466077D01*
X596179Y466070D01*
X596081Y466692D01*
X596048Y467413D01*
X596082Y468141D01*
X596185Y468797D01*
X596360Y469374D01*
X596613Y469862D01*
X596944Y470256D01*
X597357Y470546D01*
X597857Y470726D01*
X598446Y470788D01*
X598968Y470747D01*
D02*
G37*
G36*
X631334Y470752D02*
X631772Y470654D01*
X632147Y470496D01*
X632459Y470282D01*
X632704Y470019D01*
X632881Y469711D01*
X632989Y469364D01*
X633025Y468981D01*
X633001Y468626D01*
X632927Y468314D01*
X632801Y468041D01*
X632624Y467807D01*
X632394Y467609D01*
X632109Y467444D01*
X631768Y467310D01*
X631370Y467204D01*
X630411Y466997D01*
X629941Y466856D01*
X629603Y466645D01*
X629484Y466506D01*
X629399Y466342D01*
X629347Y466149D01*
X629330Y465926D01*
X629354Y465655D01*
X629426Y465421D01*
X629546Y465224D01*
X629713Y465063D01*
X629927Y464938D01*
X630187Y464850D01*
X630493Y464796D01*
X630844Y464779D01*
X631192Y464802D01*
X631497Y464869D01*
X631759Y464980D01*
X631976Y465130D01*
X632150Y465319D01*
X632280Y465544D01*
X632364Y465804D01*
X632405Y466095D01*
X633241Y466095D01*
X633191Y465650D01*
X633069Y465250D01*
X632875Y464898D01*
X632610Y464600D01*
X632274Y464360D01*
X631867Y464183D01*
X631390Y464073D01*
X630844Y464036D01*
X630686Y464046D01*
X630318Y464069D01*
X629851Y464166D01*
X629445Y464324D01*
X629106Y464540D01*
X628835Y464811D01*
X628637Y465135D01*
X628516Y465507D01*
X628475Y465926D01*
X628501Y466285D01*
X628580Y466609D01*
X628715Y466898D01*
X628905Y467152D01*
X629152Y467371D01*
X629458Y467554D01*
X629824Y467702D01*
X630252Y467815D01*
X631145Y468004D01*
X631598Y468144D01*
X631918Y468348D01*
X632107Y468623D01*
X632169Y468981D01*
X632146Y469226D01*
X632076Y469439D01*
X631964Y469620D01*
X631811Y469769D01*
X631621Y469884D01*
X631396Y469967D01*
X631139Y470017D01*
X630853Y470034D01*
X630515Y470011D01*
X630226Y469946D01*
X629985Y469842D01*
X629790Y469700D01*
X629637Y469526D01*
X629527Y469320D01*
X629457Y469087D01*
X629424Y468831D01*
X628587Y468831D01*
X628631Y469249D01*
X628751Y469628D01*
X628943Y469962D01*
X629203Y470246D01*
X629527Y470475D01*
X629910Y470645D01*
X630347Y470750D01*
X630834Y470786D01*
X631334Y470752D01*
D02*
G37*
G36*
X540510Y471016D02*
X540866Y470912D01*
X541003Y470819D01*
X541273Y470688D01*
X541642Y470349D01*
X541953Y469873D01*
X542187Y469241D01*
X542314Y468504D01*
X542328Y468516D01*
X542388Y467519D01*
X542328Y466520D01*
X542161Y465719D01*
X541904Y465096D01*
X541577Y464631D01*
X541221Y464325D01*
X540782Y464096D01*
X540351Y463985D01*
X539922Y463953D01*
X539421Y464004D01*
X539062Y464096D01*
X538922Y464183D01*
X538647Y464304D01*
X538267Y464631D01*
X537940Y465096D01*
X537683Y465718D01*
X537516Y466520D01*
X537456Y467519D01*
X537517Y468603D01*
X537712Y469397D01*
X537990Y470011D01*
X538334Y470464D01*
X538700Y470757D01*
X539147Y470971D01*
X539581Y471067D01*
X540012Y471084D01*
X540510Y471016D01*
D02*
G37*
G36*
X578897Y470684D02*
X578897Y464103D01*
X578079Y464103D01*
X578079Y466491D01*
X576894Y466494D01*
X575308Y464106D01*
X574414Y464106D01*
X574414Y464200D01*
X576032Y466592D01*
X575870Y466645D01*
X575514Y466828D01*
X575217Y467077D01*
X574983Y467384D01*
X574814Y467744D01*
X574711Y468154D01*
X574676Y468607D01*
X574710Y469047D01*
X574811Y469447D01*
X574979Y469801D01*
X575210Y470104D01*
X575505Y470349D01*
X575811Y470506D01*
X576278Y470646D01*
X576754Y470685D01*
X578897Y470684D01*
D02*
G37*
G36*
X621924Y464102D02*
X621106Y464102D01*
X621106Y466490D01*
X619726Y466494D01*
X619311Y466529D01*
X618896Y466643D01*
X618540Y466827D01*
X618244Y467075D01*
X618010Y467382D01*
X617841Y467743D01*
X617738Y468152D01*
X617703Y468605D01*
X617737Y469045D01*
X617838Y469445D01*
X618006Y469800D01*
X618237Y470102D01*
X618532Y470348D01*
X618838Y470504D01*
X619305Y470644D01*
X619780Y470683D01*
X621924Y470683D01*
X621924Y464102D01*
D02*
G37*
G36*
X564714Y470683D02*
X564751Y465700D01*
X567271Y470683D01*
X568164Y470683D01*
X568164Y464102D01*
X567365Y464102D01*
X567328Y469056D01*
X564808Y464102D01*
X563905Y464102D01*
X563905Y470683D01*
X564714Y470683D01*
D02*
G37*
G36*
X616656Y464103D02*
X612623D01*
X612623Y464846D01*
X615838Y464846D01*
X615838Y467108D01*
X612915Y467108D01*
X612915Y467861D01*
X615838Y467861D01*
X615838Y469932D01*
X612623Y469932D01*
X612623Y470684D01*
X616656Y470684D01*
X616656Y464103D01*
D02*
G37*
G36*
X545781Y471002D02*
X546145Y470907D01*
X546521Y470725D01*
X546840Y470479D01*
X547094Y470171D01*
X547283Y469808D01*
X547399Y469393D01*
X547439Y468759D01*
X546297Y468759D01*
X546279Y469174D01*
X546228Y469389D01*
X546023Y469724D01*
X545873Y469844D01*
X545478Y469983D01*
X545236Y470000D01*
X544806Y469940D01*
X544491Y469763D01*
X544297Y469474D01*
X544232Y469081D01*
X544279Y468745D01*
X544434Y468420D01*
X544712Y468043D01*
X545131Y467546D01*
X547420Y464874D01*
X547420Y464019D01*
X542968Y464019D01*
X542968Y465095D01*
X545817Y465095D01*
X544326Y466824D01*
X543772Y467485D01*
X543380Y468039D01*
X543148Y468556D01*
X543071Y469109D01*
X543111Y469527D01*
X543227Y469905D01*
X543415Y470237D01*
X543668Y470520D01*
X543982Y470749D01*
X544352Y470917D01*
X544771Y471022D01*
X545236Y471057D01*
X545781Y471002D01*
D02*
G37*
G36*
X584080Y464103D02*
X580047Y464103D01*
X580047Y464846D01*
X583262Y464846D01*
X583262Y467108D01*
X580366Y467108D01*
X580366Y467861D01*
X583262Y467861D01*
X583262Y469932D01*
X580047Y469932D01*
X580047Y470684D01*
X584080Y470684D01*
X584080Y464103D01*
D02*
G37*
G36*
X556809Y470684D02*
X556809Y464103D01*
X552776Y464103D01*
X552776Y464846D01*
X555991Y464846D01*
X555991Y467108D01*
X553095Y467108D01*
X553095Y467861D01*
X555991Y467861D01*
X555991Y469932D01*
X552776Y469932D01*
X552776Y470684D01*
X556809Y470684D01*
D02*
G37*
G36*
X650404Y469916D02*
X650394Y469906D01*
X650394Y469916D01*
X650404Y469916D01*
D02*
G37*
G36*
X650394Y469916D02*
X649594Y469936D01*
X649194Y469896D01*
X648824Y469776D01*
X648544Y469596D01*
X648284Y469326D01*
X648124Y469006D01*
X647974Y468616D01*
X647894Y468096D01*
X647884Y467816D01*
X647884D01*
X647874Y467542D01*
X647884Y467266D01*
X647884D01*
X647894Y466986D01*
X647974Y466466D01*
X648124Y466076D01*
X648284Y465756D01*
X648544Y465486D01*
X648824Y465306D01*
X649194Y465186D01*
X649594Y465146D01*
X650394Y465165D01*
X650394Y465176D01*
X650404Y465166D01*
X650394Y465165D01*
X650424Y464076D01*
X649524Y464086D01*
X648894Y464136D01*
X648334Y464286D01*
X647824Y464566D01*
X647454Y464936D01*
X647114Y465446D01*
X646884Y466026D01*
X646774Y466625D01*
X646724Y467075D01*
X646707Y467491D01*
X646704Y467516D01*
X646705Y467541D01*
X646704Y467566D01*
X646707Y467589D01*
X646724Y468006D01*
X646774Y468456D01*
X646884Y469056D01*
X647114Y469636D01*
X647454Y470146D01*
X647824Y470516D01*
X648334Y470796D01*
X648894Y470946D01*
X649524Y470996D01*
X650424Y471006D01*
X650394Y469916D01*
D02*
G37*
G36*
X535246Y471002D02*
X535610Y470907D01*
X535986Y470725D01*
X536304Y470479D01*
X536559Y470171D01*
X536748Y469808D01*
X536864Y469393D01*
X536904Y468759D01*
X535762Y468759D01*
X535744Y469174D01*
X535692Y469389D01*
X535488Y469724D01*
X535337Y469844D01*
X534943Y469983D01*
X534701Y470000D01*
X534271Y469940D01*
X533956Y469763D01*
X533762Y469475D01*
X533697Y469081D01*
X533744Y468745D01*
X533898Y468421D01*
X534177Y468043D01*
X534596Y467546D01*
X536885Y464874D01*
X536885Y464019D01*
X532432Y464019D01*
X532432Y465094D01*
X535282Y465095D01*
X533791Y466824D01*
X533237Y467485D01*
X532845Y468039D01*
X532613Y468556D01*
X532536Y469108D01*
X532576Y469527D01*
X532692Y469905D01*
X532880Y470237D01*
X533133Y470520D01*
X533447Y470748D01*
X533817Y470917D01*
X534236Y471022D01*
X534701Y471058D01*
X535246Y471002D01*
D02*
G37*
G36*
X530194Y471004D02*
X530558Y470909D01*
X530935Y470728D01*
X531253Y470481D01*
X531508Y470174D01*
X531696Y469810D01*
X531812Y469395D01*
X531852Y468881D01*
X530709Y468882D01*
X530693Y469177D01*
X530641Y469391D01*
X530436Y469727D01*
X530286Y469846D01*
X529891Y469985D01*
X529650Y470003D01*
X529219Y469943D01*
X528905Y469766D01*
X528711Y469477D01*
X528645Y469083D01*
X528693Y468747D01*
X528907Y468421D01*
X529253Y468228D01*
X529706Y468161D01*
X530433Y468161D01*
X530433Y467113D01*
X529688Y467113D01*
X529284Y467078D01*
X528864Y466929D01*
X528682Y466794D01*
X528535Y466607D01*
X528437Y466363D01*
X528401Y466052D01*
X528421Y465815D01*
X528481Y465606D01*
X528579Y465426D01*
X528714Y465275D01*
X528884Y465157D01*
X529088Y465071D01*
X529325Y465018D01*
X529594Y465000D01*
X529856Y465018D01*
X530089Y465072D01*
X530294Y465160D01*
X530466Y465279D01*
X530605Y465427D01*
X530707Y465605D01*
X530772Y465808D01*
X530788Y465964D01*
X530798Y466204D01*
X531928Y466204D01*
Y466033D01*
X531885Y465587D01*
X531759Y465183D01*
X531556Y464828D01*
X531282Y464527D01*
X530942Y464283D01*
X530542Y464103D01*
X530087Y463991D01*
X529584Y463953D01*
X529079Y463992D01*
X528623Y464105D01*
X528222Y464288D01*
X527880Y464534D01*
X527605Y464840D01*
X527401Y465200D01*
X527275Y465609D01*
X527232Y466061D01*
X527296Y466596D01*
X527487Y467058D01*
X527796Y467439D01*
X528216Y467728D01*
X527874Y467988D01*
X527561Y468559D01*
X527484Y469111D01*
X527524Y469529D01*
X527641Y469908D01*
X527828Y470240D01*
X528081Y470522D01*
X528395Y470751D01*
X528765Y470919D01*
X529185Y471024D01*
X529650Y471060D01*
X530194Y471004D01*
D02*
G37*
G36*
X665774Y471086D02*
X666184Y470976D01*
X666624Y470776D01*
X667034Y470456D01*
X667354Y469986D01*
X667634Y469386D01*
X667804Y468626D01*
X667864Y467726D01*
X667874Y467556D01*
X666694Y467556D01*
X666664Y468206D01*
X666604Y468616D01*
X666614Y468686D01*
X666524Y469036D01*
X666394Y469376D01*
X666204Y469666D01*
X665904Y469876D01*
X665654Y469956D01*
X665294Y470006D01*
X664974Y469996D01*
X664724Y469916D01*
X664484Y469776D01*
X664294Y469586D01*
X664174Y469346D01*
X664074Y469116D01*
X664034Y468826D01*
X663994Y468506D01*
X662804Y468505D01*
X662894Y469236D01*
X663064Y469736D01*
X663264Y470156D01*
X663554Y470496D01*
X663884Y470756D01*
X664314Y470956D01*
X664774Y471086D01*
X665304Y471136D01*
X665774Y471086D01*
D02*
G37*
G36*
X589093Y470684D02*
Y464103D01*
X588275Y464103D01*
X588275Y467108D01*
X585380Y467108D01*
X585380Y467861D01*
X588275Y467861D01*
X588275Y469932D01*
X585060Y469932D01*
X585060Y470684D01*
X589093Y470684D01*
D02*
G37*
%LPC*%
G36*
X609433Y469942D02*
X609122Y469919D01*
X608800Y469839D01*
X608622Y469742D01*
X608434Y469591D01*
X608287Y469401D01*
X608182Y469172D01*
X608119Y468907D01*
X608098Y468607D01*
X608118Y468294D01*
X608178Y468021D01*
X608280Y467787D01*
X608424Y467594D01*
X608610Y467442D01*
X608840Y467332D01*
X609114Y467266D01*
X609433Y467243D01*
X610655Y467243D01*
X610655Y469942D01*
X609433Y469942D01*
D02*
G37*
G36*
X621106Y469940D02*
X619884Y469940D01*
X619573Y469917D01*
X619250Y469838D01*
X619073Y469741D01*
X618885Y469590D01*
X618738Y469399D01*
X618633Y469171D01*
X618570Y468906D01*
X618549Y468605D01*
X618569Y468293D01*
X618629Y468019D01*
X618731Y467785D01*
X618875Y467592D01*
X619061Y467440D01*
X619291Y467330D01*
X619565Y467264D01*
X619884Y467242D01*
X621106Y467242D01*
X621106Y469940D01*
D02*
G37*
G36*
X539974Y470028D02*
X539766Y470016D01*
X539566Y469966D01*
X539386Y469866D01*
X539236Y469756D01*
X539161Y469662D01*
X541175Y466580D01*
X541228Y467520D01*
X541208Y468117D01*
X541152Y468590D01*
X541046Y469086D01*
X540939Y469381D01*
X540792Y469646D01*
X540647Y469766D01*
X540548Y469856D01*
X540285Y469979D01*
X539974Y470028D01*
D02*
G37*
G36*
X576857Y469942D02*
X576546Y469919D01*
X576223Y469839D01*
X576046Y469742D01*
X575858Y469591D01*
X575711Y469401D01*
X575606Y469172D01*
X575543Y468907D01*
X575522Y468607D01*
X575542Y468295D01*
X575602Y468021D01*
X575704Y467787D01*
X575848Y467594D01*
X576034Y467442D01*
X576264Y467332D01*
X576538Y467266D01*
X576857Y467243D01*
X578079Y467243D01*
X578079Y469942D01*
X576857Y469942D01*
D02*
G37*
G36*
X598446Y470017D02*
X597993Y469959D01*
X597637Y469797D01*
X597364Y469543D01*
X597166Y469212D01*
X597031Y468819D01*
X596948Y468379D01*
X596906Y467905D01*
X596895Y467413D01*
X596910Y466905D01*
X596958Y466425D01*
X597049Y466008D01*
X597153Y465676D01*
X597421Y465217D01*
X597572Y465061D01*
X597813Y464934D01*
X598107Y464856D01*
X598461Y464830D01*
X598914Y464887D01*
X599270Y465050D01*
X599542Y465304D01*
X599741Y465634D01*
X599876Y466027D01*
X599959Y466468D01*
X600000Y466941D01*
X600012Y467434D01*
X599984Y467917D01*
X599858Y468839D01*
X599753Y469170D01*
X599486Y469629D01*
X599335Y469786D01*
X599094Y469913D01*
X598799Y469991D01*
X598446Y470017D01*
D02*
G37*
G36*
X538664Y468437D02*
X538617Y467519D01*
X538631Y466923D01*
X538636Y466920D01*
X538695Y466405D01*
X538819Y465914D01*
X538936Y465623D01*
X539092Y465363D01*
X539241Y465248D01*
X539342Y465162D01*
X539610Y465048D01*
X539922Y465010D01*
X540321Y465114D01*
X540701Y465320D01*
X540031Y466464D01*
X538664Y468437D01*
D02*
G37*
%LPD*%
D13*
X685000Y206000D02*
G03*
X704000Y225000I0J19000D01*
G01*
Y459000D02*
G03*
X685000Y478000I-19000J0D01*
G01*
X263000Y225000D02*
G03*
X282000Y206000I19000J0D01*
G01*
Y478000D02*
G03*
X263000Y459000I0J-19000D01*
G01*
X282000Y206000D02*
X684926D01*
X282000Y478000D02*
X425000D01*
X263000Y224000D02*
Y459000D01*
X704000Y224000D02*
Y459000D01*
X516000Y478000D02*
X685000D01*
D14*
X690000Y270000D02*
D03*
X525000Y225000D02*
D03*
X575000D02*
D03*
X625000D02*
D03*
X645000Y225000D02*
D03*
X635000Y225000D02*
D03*
X615000D02*
D03*
X605000D02*
D03*
X595000Y225000D02*
D03*
X585000Y225000D02*
D03*
X565000D02*
D03*
X555000D02*
D03*
X545000Y225000D02*
D03*
X535000Y225000D02*
D03*
X485000D02*
D03*
X495000Y225000D02*
D03*
X505000Y225000D02*
D03*
X515000Y225000D02*
D03*
X325000D02*
D03*
X315000Y225000D02*
D03*
X305000Y225000D02*
D03*
X295000Y225000D02*
D03*
X345000D02*
D03*
X355000Y225000D02*
D03*
X365000Y225000D02*
D03*
X375000D02*
D03*
X395000D02*
D03*
X405000Y225000D02*
D03*
X415000Y225000D02*
D03*
X425000D02*
D03*
X445000D02*
D03*
X455000Y225000D02*
D03*
X435000Y225000D02*
D03*
X385000D02*
D03*
X335000D02*
D03*
X690000Y430000D02*
D03*
X280000Y380000D02*
D03*
X690000D02*
D03*
Y330000D02*
D03*
X280000D02*
D03*
X690000Y280000D02*
D03*
X280000D02*
D03*
X290000Y270000D02*
D03*
Y260000D02*
D03*
Y250000D02*
D03*
Y240000D02*
D03*
X280000D02*
D03*
Y250000D02*
D03*
Y260000D02*
D03*
Y270000D02*
D03*
X300000Y240000D02*
D03*
Y250000D02*
D03*
Y260000D02*
D03*
Y270000D02*
D03*
X310000Y240000D02*
D03*
Y250000D02*
D03*
Y260000D02*
D03*
Y270000D02*
D03*
X320000Y240000D02*
D03*
Y250000D02*
D03*
Y260000D02*
D03*
Y270000D02*
D03*
X330000Y240000D02*
D03*
Y250000D02*
D03*
Y260000D02*
D03*
Y270000D02*
D03*
X340000Y240000D02*
D03*
Y250000D02*
D03*
Y260000D02*
D03*
Y270000D02*
D03*
X350000Y240000D02*
D03*
Y250000D02*
D03*
Y260000D02*
D03*
Y270000D02*
D03*
X360000Y240000D02*
D03*
Y250000D02*
D03*
Y260000D02*
D03*
Y270000D02*
D03*
X370000Y240000D02*
D03*
Y250000D02*
D03*
Y260000D02*
D03*
Y270000D02*
D03*
X470000D02*
D03*
Y260000D02*
D03*
Y250000D02*
D03*
Y240000D02*
D03*
X460000Y270000D02*
D03*
Y260000D02*
D03*
Y250000D02*
D03*
Y240000D02*
D03*
X450000Y270000D02*
D03*
Y260000D02*
D03*
Y250000D02*
D03*
Y240000D02*
D03*
X440000Y270000D02*
D03*
Y260000D02*
D03*
Y250000D02*
D03*
Y240000D02*
D03*
X430000Y270000D02*
D03*
Y260000D02*
D03*
Y250000D02*
D03*
Y240000D02*
D03*
X420000Y270000D02*
D03*
Y260000D02*
D03*
Y250000D02*
D03*
Y240000D02*
D03*
X410000Y270000D02*
D03*
Y260000D02*
D03*
Y250000D02*
D03*
Y240000D02*
D03*
X400000Y270000D02*
D03*
Y260000D02*
D03*
Y250000D02*
D03*
Y240000D02*
D03*
X380000Y270000D02*
D03*
Y260000D02*
D03*
Y250000D02*
D03*
Y240000D02*
D03*
X390000D02*
D03*
Y250000D02*
D03*
Y260000D02*
D03*
Y270000D02*
D03*
X570000D02*
D03*
Y260000D02*
D03*
Y250000D02*
D03*
Y240000D02*
D03*
X560000Y270000D02*
D03*
Y260000D02*
D03*
Y250000D02*
D03*
Y240000D02*
D03*
X550000Y270000D02*
D03*
Y260000D02*
D03*
Y250000D02*
D03*
Y240000D02*
D03*
X540000Y270000D02*
D03*
Y260000D02*
D03*
Y250000D02*
D03*
Y240000D02*
D03*
X530000Y270000D02*
D03*
Y260000D02*
D03*
Y250000D02*
D03*
Y240000D02*
D03*
X520000Y270000D02*
D03*
Y260000D02*
D03*
Y250000D02*
D03*
Y240000D02*
D03*
X510000Y270000D02*
D03*
Y260000D02*
D03*
Y250000D02*
D03*
Y240000D02*
D03*
X500000Y270000D02*
D03*
Y260000D02*
D03*
Y250000D02*
D03*
Y240000D02*
D03*
X480000Y270000D02*
D03*
Y260000D02*
D03*
Y250000D02*
D03*
Y240000D02*
D03*
X490000D02*
D03*
Y250000D02*
D03*
Y260000D02*
D03*
Y270000D02*
D03*
X670000D02*
D03*
Y260000D02*
D03*
X660000Y270000D02*
D03*
Y260000D02*
D03*
Y250000D02*
D03*
X650000Y270000D02*
D03*
Y260000D02*
D03*
Y250000D02*
D03*
Y240000D02*
D03*
X640000Y270000D02*
D03*
Y260000D02*
D03*
Y250000D02*
D03*
Y240000D02*
D03*
X630000Y270000D02*
D03*
Y260000D02*
D03*
Y250000D02*
D03*
Y240000D02*
D03*
X620000Y270000D02*
D03*
Y260000D02*
D03*
Y250000D02*
D03*
Y240000D02*
D03*
X610000Y270000D02*
D03*
Y260000D02*
D03*
Y250000D02*
D03*
Y240000D02*
D03*
X600000Y270000D02*
D03*
Y260000D02*
D03*
Y250000D02*
D03*
Y240000D02*
D03*
X580000Y270000D02*
D03*
Y260000D02*
D03*
Y250000D02*
D03*
Y240000D02*
D03*
X590000D02*
D03*
Y250000D02*
D03*
Y260000D02*
D03*
Y270000D02*
D03*
X680000D02*
D03*
X290000Y320000D02*
D03*
Y310000D02*
D03*
Y300000D02*
D03*
Y290000D02*
D03*
X280000D02*
D03*
Y300000D02*
D03*
Y310000D02*
D03*
Y320000D02*
D03*
X300000Y290000D02*
D03*
Y300000D02*
D03*
Y310000D02*
D03*
Y320000D02*
D03*
X310000Y290000D02*
D03*
Y300000D02*
D03*
Y310000D02*
D03*
Y320000D02*
D03*
X320000Y290000D02*
D03*
Y300000D02*
D03*
Y310000D02*
D03*
Y320000D02*
D03*
X330000Y290000D02*
D03*
Y300000D02*
D03*
Y310000D02*
D03*
Y320000D02*
D03*
X340000Y290000D02*
D03*
Y300000D02*
D03*
Y310000D02*
D03*
Y320000D02*
D03*
X350000Y290000D02*
D03*
Y300000D02*
D03*
Y310000D02*
D03*
Y320000D02*
D03*
X360000Y290000D02*
D03*
Y300000D02*
D03*
Y310000D02*
D03*
Y320000D02*
D03*
X370000Y290000D02*
D03*
Y300000D02*
D03*
Y310000D02*
D03*
Y320000D02*
D03*
X470000D02*
D03*
Y310000D02*
D03*
Y300000D02*
D03*
Y290000D02*
D03*
X460000Y320000D02*
D03*
Y310000D02*
D03*
Y300000D02*
D03*
Y290000D02*
D03*
X450000Y320000D02*
D03*
Y310000D02*
D03*
Y300000D02*
D03*
Y290000D02*
D03*
X440000Y320000D02*
D03*
Y310000D02*
D03*
Y300000D02*
D03*
Y290000D02*
D03*
X430000Y320000D02*
D03*
Y310000D02*
D03*
Y300000D02*
D03*
Y290000D02*
D03*
X420000Y320000D02*
D03*
Y310000D02*
D03*
Y300000D02*
D03*
Y290000D02*
D03*
X410000Y320000D02*
D03*
Y310000D02*
D03*
Y300000D02*
D03*
Y290000D02*
D03*
X400000Y320000D02*
D03*
Y310000D02*
D03*
Y300000D02*
D03*
Y290000D02*
D03*
X380000Y320000D02*
D03*
Y310000D02*
D03*
Y300000D02*
D03*
Y290000D02*
D03*
X390000D02*
D03*
Y300000D02*
D03*
Y310000D02*
D03*
Y320000D02*
D03*
X570000D02*
D03*
Y310000D02*
D03*
Y300000D02*
D03*
Y290000D02*
D03*
X560000Y320000D02*
D03*
Y310000D02*
D03*
Y300000D02*
D03*
Y290000D02*
D03*
X550000Y320000D02*
D03*
Y310000D02*
D03*
Y300000D02*
D03*
Y290000D02*
D03*
X540000Y320000D02*
D03*
Y310000D02*
D03*
Y300000D02*
D03*
Y290000D02*
D03*
X530000Y320000D02*
D03*
Y310000D02*
D03*
Y300000D02*
D03*
Y290000D02*
D03*
X520000Y320000D02*
D03*
Y310000D02*
D03*
Y300000D02*
D03*
Y290000D02*
D03*
X510000Y320000D02*
D03*
Y310000D02*
D03*
Y300000D02*
D03*
Y290000D02*
D03*
X500000Y320000D02*
D03*
Y310000D02*
D03*
Y300000D02*
D03*
Y290000D02*
D03*
X480000Y320000D02*
D03*
Y310000D02*
D03*
Y300000D02*
D03*
Y290000D02*
D03*
X490000D02*
D03*
Y300000D02*
D03*
Y310000D02*
D03*
Y320000D02*
D03*
X670000D02*
D03*
Y310000D02*
D03*
Y300000D02*
D03*
Y290000D02*
D03*
X660000Y320000D02*
D03*
Y310000D02*
D03*
Y300000D02*
D03*
Y290000D02*
D03*
X650000Y320000D02*
D03*
Y310000D02*
D03*
Y300000D02*
D03*
Y290000D02*
D03*
X640000Y320000D02*
D03*
Y310000D02*
D03*
Y300000D02*
D03*
Y290000D02*
D03*
X630000Y320000D02*
D03*
Y310000D02*
D03*
Y300000D02*
D03*
Y290000D02*
D03*
X620000Y320000D02*
D03*
Y310000D02*
D03*
Y300000D02*
D03*
Y290000D02*
D03*
X610000Y320000D02*
D03*
Y310000D02*
D03*
Y300000D02*
D03*
Y290000D02*
D03*
X600000Y320000D02*
D03*
Y310000D02*
D03*
Y300000D02*
D03*
Y290000D02*
D03*
X580000Y320000D02*
D03*
Y310000D02*
D03*
Y300000D02*
D03*
Y290000D02*
D03*
X590000D02*
D03*
Y300000D02*
D03*
Y310000D02*
D03*
Y320000D02*
D03*
X680000D02*
D03*
Y310000D02*
D03*
Y300000D02*
D03*
Y290000D02*
D03*
X690000D02*
D03*
Y300000D02*
D03*
Y310000D02*
D03*
Y320000D02*
D03*
X290000Y370000D02*
D03*
Y360000D02*
D03*
Y350000D02*
D03*
Y340000D02*
D03*
X280000D02*
D03*
Y350000D02*
D03*
Y360000D02*
D03*
Y370000D02*
D03*
X300000Y340000D02*
D03*
Y350000D02*
D03*
Y360000D02*
D03*
Y370000D02*
D03*
X310000Y340000D02*
D03*
Y350000D02*
D03*
Y360000D02*
D03*
Y370000D02*
D03*
X320000Y340000D02*
D03*
Y350000D02*
D03*
Y360000D02*
D03*
Y370000D02*
D03*
X330000Y340000D02*
D03*
Y350000D02*
D03*
Y360000D02*
D03*
Y370000D02*
D03*
X340000Y340000D02*
D03*
Y350000D02*
D03*
Y360000D02*
D03*
Y370000D02*
D03*
X350000Y340000D02*
D03*
Y350000D02*
D03*
Y360000D02*
D03*
Y370000D02*
D03*
X360000Y340000D02*
D03*
Y350000D02*
D03*
Y360000D02*
D03*
Y370000D02*
D03*
X370000Y340000D02*
D03*
Y350000D02*
D03*
Y360000D02*
D03*
Y370000D02*
D03*
X470000D02*
D03*
Y360000D02*
D03*
Y350000D02*
D03*
Y340000D02*
D03*
X460000Y370000D02*
D03*
Y360000D02*
D03*
Y350000D02*
D03*
Y340000D02*
D03*
X450000Y370000D02*
D03*
Y360000D02*
D03*
Y350000D02*
D03*
Y340000D02*
D03*
X440000Y370000D02*
D03*
Y360000D02*
D03*
Y350000D02*
D03*
Y340000D02*
D03*
X430000Y370000D02*
D03*
Y360000D02*
D03*
Y350000D02*
D03*
Y340000D02*
D03*
X420000Y370000D02*
D03*
Y360000D02*
D03*
Y350000D02*
D03*
Y340000D02*
D03*
X410000Y370000D02*
D03*
Y360000D02*
D03*
Y350000D02*
D03*
Y340000D02*
D03*
X400000Y370000D02*
D03*
Y360000D02*
D03*
Y350000D02*
D03*
Y340000D02*
D03*
X380000Y370000D02*
D03*
Y360000D02*
D03*
Y350000D02*
D03*
Y340000D02*
D03*
X390000D02*
D03*
Y350000D02*
D03*
Y360000D02*
D03*
Y370000D02*
D03*
X570000D02*
D03*
Y360000D02*
D03*
Y350000D02*
D03*
Y340000D02*
D03*
X560000Y370000D02*
D03*
Y360000D02*
D03*
Y350000D02*
D03*
Y340000D02*
D03*
X550000Y370000D02*
D03*
Y360000D02*
D03*
Y350000D02*
D03*
Y340000D02*
D03*
X540000Y370000D02*
D03*
Y360000D02*
D03*
Y350000D02*
D03*
Y340000D02*
D03*
X530000Y370000D02*
D03*
Y360000D02*
D03*
Y350000D02*
D03*
Y340000D02*
D03*
X520000Y370000D02*
D03*
Y360000D02*
D03*
Y350000D02*
D03*
Y340000D02*
D03*
X510000Y370000D02*
D03*
Y360000D02*
D03*
Y350000D02*
D03*
Y340000D02*
D03*
X500000Y370000D02*
D03*
Y360000D02*
D03*
Y350000D02*
D03*
Y340000D02*
D03*
X480000Y370000D02*
D03*
Y360000D02*
D03*
Y350000D02*
D03*
Y340000D02*
D03*
X490000D02*
D03*
Y350000D02*
D03*
Y360000D02*
D03*
Y370000D02*
D03*
X670000D02*
D03*
Y360000D02*
D03*
Y350000D02*
D03*
Y340000D02*
D03*
X660000Y370000D02*
D03*
Y360000D02*
D03*
Y350000D02*
D03*
Y340000D02*
D03*
X650000Y370000D02*
D03*
Y360000D02*
D03*
Y350000D02*
D03*
Y340000D02*
D03*
X640000Y370000D02*
D03*
Y360000D02*
D03*
Y350000D02*
D03*
Y340000D02*
D03*
X630000Y370000D02*
D03*
Y360000D02*
D03*
Y350000D02*
D03*
Y340000D02*
D03*
X620000Y370000D02*
D03*
Y360000D02*
D03*
Y350000D02*
D03*
Y340000D02*
D03*
X610000Y370000D02*
D03*
Y360000D02*
D03*
Y350000D02*
D03*
Y340000D02*
D03*
X600000Y370000D02*
D03*
Y360000D02*
D03*
Y350000D02*
D03*
Y340000D02*
D03*
X580000Y370000D02*
D03*
Y360000D02*
D03*
Y350000D02*
D03*
Y340000D02*
D03*
X590000D02*
D03*
Y350000D02*
D03*
Y360000D02*
D03*
Y370000D02*
D03*
X680000D02*
D03*
Y360000D02*
D03*
Y350000D02*
D03*
Y340000D02*
D03*
X690000D02*
D03*
Y350000D02*
D03*
Y360000D02*
D03*
Y370000D02*
D03*
X310000Y440000D02*
D03*
Y450000D02*
D03*
Y460000D02*
D03*
X320000Y440000D02*
D03*
Y450000D02*
D03*
Y460000D02*
D03*
X330000Y440000D02*
D03*
Y450000D02*
D03*
Y460000D02*
D03*
X340000Y440000D02*
D03*
Y450000D02*
D03*
Y460000D02*
D03*
X350000Y440000D02*
D03*
Y450000D02*
D03*
Y460000D02*
D03*
X360000Y440000D02*
D03*
Y450000D02*
D03*
Y460000D02*
D03*
X370000Y440000D02*
D03*
Y450000D02*
D03*
Y460000D02*
D03*
X460000Y470000D02*
D03*
Y460000D02*
D03*
Y450000D02*
D03*
Y440000D02*
D03*
X450000Y470000D02*
D03*
Y460000D02*
D03*
Y450000D02*
D03*
Y440000D02*
D03*
X440000Y470000D02*
D03*
Y460000D02*
D03*
Y450000D02*
D03*
Y440000D02*
D03*
X430000Y470000D02*
D03*
Y460000D02*
D03*
Y450000D02*
D03*
Y440000D02*
D03*
X410000Y460000D02*
D03*
Y450000D02*
D03*
Y440000D02*
D03*
X400000Y460000D02*
D03*
Y450000D02*
D03*
Y440000D02*
D03*
X380000Y460000D02*
D03*
Y450000D02*
D03*
Y440000D02*
D03*
X390000D02*
D03*
Y450000D02*
D03*
Y460000D02*
D03*
X570000Y450000D02*
D03*
Y440000D02*
D03*
X560000Y450000D02*
D03*
Y440000D02*
D03*
X550000Y450000D02*
D03*
Y440000D02*
D03*
X540000Y450000D02*
D03*
Y440000D02*
D03*
X530000Y450000D02*
D03*
Y440000D02*
D03*
X510000Y470000D02*
D03*
Y460000D02*
D03*
Y450000D02*
D03*
Y440000D02*
D03*
X500000Y470000D02*
D03*
Y460000D02*
D03*
Y450000D02*
D03*
Y440000D02*
D03*
X480000Y470000D02*
D03*
Y460000D02*
D03*
Y450000D02*
D03*
Y440000D02*
D03*
X490000D02*
D03*
Y450000D02*
D03*
Y460000D02*
D03*
Y470000D02*
D03*
X670000Y450000D02*
D03*
Y440000D02*
D03*
X660000Y450000D02*
D03*
Y440000D02*
D03*
X640000Y450000D02*
D03*
Y440000D02*
D03*
X630000Y450000D02*
D03*
Y440000D02*
D03*
X620000Y450000D02*
D03*
Y440000D02*
D03*
X610000Y450000D02*
D03*
Y440000D02*
D03*
X600000Y450000D02*
D03*
Y440000D02*
D03*
X580000Y450000D02*
D03*
Y440000D02*
D03*
X590000D02*
D03*
Y450000D02*
D03*
X680000D02*
D03*
Y440000D02*
D03*
X690000D02*
D03*
Y450000D02*
D03*
Y420000D02*
D03*
Y410000D02*
D03*
Y400000D02*
D03*
Y390000D02*
D03*
X680000D02*
D03*
Y400000D02*
D03*
Y410000D02*
D03*
Y420000D02*
D03*
X590000D02*
D03*
Y410000D02*
D03*
Y400000D02*
D03*
Y390000D02*
D03*
X580000D02*
D03*
Y400000D02*
D03*
Y410000D02*
D03*
Y420000D02*
D03*
X600000Y390000D02*
D03*
Y400000D02*
D03*
Y410000D02*
D03*
Y420000D02*
D03*
X610000Y390000D02*
D03*
Y400000D02*
D03*
Y410000D02*
D03*
Y420000D02*
D03*
X620000Y390000D02*
D03*
Y400000D02*
D03*
Y410000D02*
D03*
Y420000D02*
D03*
X630000Y390000D02*
D03*
Y400000D02*
D03*
Y410000D02*
D03*
Y420000D02*
D03*
X640000Y390000D02*
D03*
Y400000D02*
D03*
Y410000D02*
D03*
Y420000D02*
D03*
X650000Y390000D02*
D03*
Y400000D02*
D03*
Y410000D02*
D03*
Y420000D02*
D03*
X660000Y390000D02*
D03*
Y400000D02*
D03*
Y410000D02*
D03*
Y420000D02*
D03*
X670000Y390000D02*
D03*
Y400000D02*
D03*
Y410000D02*
D03*
Y420000D02*
D03*
X490000D02*
D03*
Y410000D02*
D03*
Y400000D02*
D03*
Y390000D02*
D03*
X480000D02*
D03*
Y400000D02*
D03*
Y410000D02*
D03*
Y420000D02*
D03*
X500000Y390000D02*
D03*
Y400000D02*
D03*
Y410000D02*
D03*
Y420000D02*
D03*
X510000Y390000D02*
D03*
Y400000D02*
D03*
Y410000D02*
D03*
Y420000D02*
D03*
X520000Y390000D02*
D03*
Y400000D02*
D03*
Y410000D02*
D03*
Y420000D02*
D03*
X530000Y390000D02*
D03*
Y400000D02*
D03*
Y410000D02*
D03*
Y420000D02*
D03*
X540000Y390000D02*
D03*
Y400000D02*
D03*
Y410000D02*
D03*
Y420000D02*
D03*
X550000Y390000D02*
D03*
Y400000D02*
D03*
Y410000D02*
D03*
Y420000D02*
D03*
X560000Y390000D02*
D03*
Y400000D02*
D03*
Y410000D02*
D03*
Y420000D02*
D03*
X570000Y390000D02*
D03*
Y400000D02*
D03*
Y410000D02*
D03*
Y420000D02*
D03*
X390000D02*
D03*
Y410000D02*
D03*
Y400000D02*
D03*
Y390000D02*
D03*
X380000D02*
D03*
Y400000D02*
D03*
Y410000D02*
D03*
Y420000D02*
D03*
X400000Y390000D02*
D03*
Y400000D02*
D03*
Y410000D02*
D03*
Y420000D02*
D03*
X410000Y390000D02*
D03*
Y400000D02*
D03*
Y410000D02*
D03*
Y420000D02*
D03*
X420000Y390000D02*
D03*
Y400000D02*
D03*
Y410000D02*
D03*
Y420000D02*
D03*
X430000Y390000D02*
D03*
Y400000D02*
D03*
Y410000D02*
D03*
Y420000D02*
D03*
X440000Y390000D02*
D03*
Y400000D02*
D03*
Y410000D02*
D03*
Y420000D02*
D03*
X450000Y390000D02*
D03*
Y400000D02*
D03*
Y410000D02*
D03*
Y420000D02*
D03*
X460000Y390000D02*
D03*
Y400000D02*
D03*
Y410000D02*
D03*
Y420000D02*
D03*
X470000Y390000D02*
D03*
Y400000D02*
D03*
Y410000D02*
D03*
Y420000D02*
D03*
X370000D02*
D03*
Y410000D02*
D03*
Y400000D02*
D03*
Y390000D02*
D03*
X360000Y420000D02*
D03*
Y410000D02*
D03*
Y400000D02*
D03*
Y390000D02*
D03*
X350000Y420000D02*
D03*
Y410000D02*
D03*
Y400000D02*
D03*
Y390000D02*
D03*
X340000Y420000D02*
D03*
Y410000D02*
D03*
Y400000D02*
D03*
Y390000D02*
D03*
X330000Y420000D02*
D03*
Y410000D02*
D03*
Y400000D02*
D03*
Y390000D02*
D03*
X320000Y420000D02*
D03*
Y410000D02*
D03*
Y400000D02*
D03*
Y390000D02*
D03*
X310000Y420000D02*
D03*
Y410000D02*
D03*
Y400000D02*
D03*
Y390000D02*
D03*
X300000Y420000D02*
D03*
Y410000D02*
D03*
Y400000D02*
D03*
Y390000D02*
D03*
X280000Y420000D02*
D03*
Y410000D02*
D03*
Y400000D02*
D03*
Y390000D02*
D03*
X290000D02*
D03*
Y400000D02*
D03*
Y410000D02*
D03*
Y420000D02*
D03*
D15*
X677744Y467551D02*
D03*
X674394Y467551D02*
D03*
X661404Y467591D02*
D03*
X650734Y467541D02*
D03*
D16*
X676029Y467641D02*
D03*
D17*
X669422Y467559D02*
D03*
X653432D02*
D03*
X642922Y467559D02*
D03*
D18*
X672669Y464246D02*
D03*
X668408Y464245D02*
D03*
X652419Y464245D02*
D03*
X656679Y464246D02*
D03*
X641909Y464245D02*
D03*
X646169Y464246D02*
D03*
D19*
X670526Y470854D02*
D03*
X654536Y470854D02*
D03*
X644026Y470855D02*
D03*
D20*
X671656Y467560D02*
D03*
X655666Y467560D02*
D03*
X645156Y467560D02*
D03*
D21*
X670589Y466806D02*
D03*
D22*
X659600Y468928D02*
D03*
D23*
X657897Y464254D02*
D03*
X657997Y470908D02*
D03*
D24*
X657906Y470673D02*
D03*
D25*
X657597Y470768D02*
D03*
D26*
X657497Y464393D02*
D03*
D27*
X657806Y464489D02*
D03*
D28*
X659500Y466233D02*
D03*
D29*
X654599Y466811D02*
D03*
X644089Y466811D02*
D03*
D30*
X640633Y468854D02*
D03*
D31*
X637652Y470838D02*
D03*
X641682Y470840D02*
D03*
D32*
X641830Y470656D02*
D03*
D33*
X642045Y470585D02*
D03*
D34*
X637289Y470584D02*
D03*
D35*
X637504Y470654D02*
D03*
D36*
X638701Y468852D02*
D03*
D37*
X639659Y465686D02*
D03*
M02*
