G04*
G04 #@! TF.GenerationSoftware,Altium Limited,CircuitStudio,1.5.2 (30)*
G04*
G04 Layer_Color=204*
%FSLAX25Y25*%
%MOIN*%
G70*
G01*
G75*
G04:AMPARAMS|DCode=11|XSize=47.24mil|YSize=47.24mil|CornerRadius=15.59mil|HoleSize=0mil|Usage=FLASHONLY|Rotation=270.000|XOffset=0mil|YOffset=0mil|HoleType=Round|Shape=RoundedRectangle|*
%AMROUNDEDRECTD11*
21,1,0.04724,0.01606,0,0,270.0*
21,1,0.01606,0.04724,0,0,270.0*
1,1,0.03118,-0.00803,-0.00803*
1,1,0.03118,-0.00803,0.00803*
1,1,0.03118,0.00803,0.00803*
1,1,0.03118,0.00803,-0.00803*
%
%ADD11ROUNDEDRECTD11*%
%ADD12R,0.05118X0.06299*%
%ADD13R,0.06693X0.09843*%
G04:AMPARAMS|DCode=14|XSize=100mil|YSize=60mil|CornerRadius=15mil|HoleSize=0mil|Usage=FLASHONLY|Rotation=315.000|XOffset=0mil|YOffset=0mil|HoleType=Round|Shape=RoundedRectangle|*
%AMROUNDEDRECTD14*
21,1,0.10000,0.03000,0,0,315.0*
21,1,0.07000,0.06000,0,0,315.0*
1,1,0.03000,0.01414,-0.03536*
1,1,0.03000,-0.03536,0.01414*
1,1,0.03000,-0.01414,0.03536*
1,1,0.03000,0.03536,-0.01414*
%
%ADD14ROUNDEDRECTD14*%
%ADD15C,0.03937*%
D11*
X2930402Y1761434D02*
D03*
Y1753234D02*
D03*
X2963902Y1932434D02*
D03*
Y1924234D02*
D03*
Y1871934D02*
D03*
Y1863734D02*
D03*
Y1850434D02*
D03*
Y1842234D02*
D03*
X2949902Y1850234D02*
D03*
Y1842034D02*
D03*
Y1871734D02*
D03*
Y1863534D02*
D03*
Y1932234D02*
D03*
Y1924034D02*
D03*
X2916402Y1761234D02*
D03*
Y1753034D02*
D03*
D12*
X3187072Y1800320D02*
D03*
Y1768825D02*
D03*
X3169356D02*
D03*
Y1800320D02*
D03*
X3077958Y1946148D02*
D03*
Y1914652D02*
D03*
X3060242D02*
D03*
Y1946148D02*
D03*
X3077972Y1897682D02*
D03*
Y1866186D02*
D03*
X3060256D02*
D03*
Y1897682D02*
D03*
X3078058Y1800048D02*
D03*
Y1768552D02*
D03*
X3060342D02*
D03*
Y1800048D02*
D03*
X3077972Y1848982D02*
D03*
Y1817486D02*
D03*
X3060256D02*
D03*
Y1848982D02*
D03*
X2931260Y1871982D02*
D03*
Y1840486D02*
D03*
X2913543D02*
D03*
Y1871982D02*
D03*
X2931260Y1944482D02*
D03*
Y1912986D02*
D03*
X2913543D02*
D03*
Y1944482D02*
D03*
X2931260Y1804982D02*
D03*
Y1773486D02*
D03*
X2913543D02*
D03*
Y1804982D02*
D03*
X3138972Y1800320D02*
D03*
Y1768825D02*
D03*
X3121256D02*
D03*
Y1800320D02*
D03*
D13*
X3011902Y1884484D02*
D03*
X2991902D02*
D03*
X3011902Y1829984D02*
D03*
X2991902Y1829984D02*
D03*
X3246402Y1802084D02*
D03*
X3226402D02*
D03*
X3246402Y1747584D02*
D03*
X3226402Y1747584D02*
D03*
X3011902Y1957984D02*
D03*
X2991902D02*
D03*
X3011902Y1903484D02*
D03*
X2991902Y1903484D02*
D03*
D14*
X3019669Y1746029D02*
D03*
X2984633Y1781064D02*
D03*
X2993474Y1789905D02*
D03*
X3028510Y1754870D02*
D03*
X2975792Y1772223D02*
D03*
X3010828Y1737188D02*
D03*
D15*
X2915380Y1928446D02*
D03*
X3254700Y1762300D02*
D03*
M02*
