G04*
G04 #@! TF.GenerationSoftware,Altium Limited,CircuitStudio,1.5.2 (30)*
G04*
G04 Layer_Color=26112*
%FSLAX25Y25*%
%MOIN*%
G70*
G01*
G75*
%ADD26C,0.07000*%
%ADD119C,0.05937*%
%ADD120C,0.04800*%
%ADD121C,0.00800*%
%ADD122C,0.07800*%
%ADD123O,0.07300X0.07800*%
%ADD124O,0.07800X0.02000*%
%ADD125R,0.07800X0.02000*%
%ADD126O,0.06200X0.02000*%
%ADD127R,0.06200X0.02000*%
%ADD128R,0.03950X0.04737*%
%ADD129R,0.08800X0.08800*%
%ADD130R,0.03600X0.05000*%
%ADD131R,0.03600X0.04400*%
%ADD132R,0.04400X0.05000*%
%ADD133R,0.04400X0.04400*%
G04:AMPARAMS|DCode=134|XSize=70mil|YSize=172mil|CornerRadius=21.05mil|HoleSize=0mil|Usage=FLASHONLY|Rotation=270.000|XOffset=0mil|YOffset=0mil|HoleType=Round|Shape=RoundedRectangle|*
%AMROUNDEDRECTD134*
21,1,0.07000,0.12990,0,0,270.0*
21,1,0.02790,0.17200,0,0,270.0*
1,1,0.04210,-0.06495,-0.01395*
1,1,0.04210,-0.06495,0.01395*
1,1,0.04210,0.06495,0.01395*
1,1,0.04210,0.06495,-0.01395*
%
%ADD134ROUNDEDRECTD134*%
%ADD135R,0.17200X0.07000*%
%ADD136O,0.05200X0.02178*%
%ADD137O,0.05200X0.02178*%
%ADD138R,0.05200X0.02178*%
%ADD139R,0.02500X0.01400*%
%ADD140R,0.01400X0.02500*%
%ADD141R,0.02260X0.01400*%
%ADD142R,0.01400X0.02260*%
G04:AMPARAMS|DCode=143|XSize=15.8mil|YSize=14mil|CornerRadius=0mil|HoleSize=0mil|Usage=FLASHONLY|Rotation=225.000|XOffset=0mil|YOffset=0mil|HoleType=Round|Shape=Rectangle|*
%AMROTATEDRECTD143*
4,1,4,0.00064,0.01054,0.01054,0.00064,-0.00064,-0.01054,-0.01054,-0.00064,0.00064,0.01054,0.0*
%
%ADD143ROTATEDRECTD143*%

%ADD144R,0.11800X0.11800*%
%ADD145R,0.01784X0.04300*%
%ADD146O,0.01784X0.04300*%
%ADD147O,0.04300X0.01784*%
%ADD148R,0.06800X0.05800*%
%ADD149R,0.08800X0.08800*%
%ADD150C,0.15800*%
G04:AMPARAMS|DCode=151|XSize=22mil|YSize=158mil|CornerRadius=7.5mil|HoleSize=0mil|Usage=FLASHONLY|Rotation=270.000|XOffset=0mil|YOffset=0mil|HoleType=Round|Shape=RoundedRectangle|*
%AMROUNDEDRECTD151*
21,1,0.02200,0.14300,0,0,270.0*
21,1,0.00700,0.15800,0,0,270.0*
1,1,0.01500,-0.07150,-0.00350*
1,1,0.01500,-0.07150,0.00350*
1,1,0.01500,0.07150,0.00350*
1,1,0.01500,0.07150,-0.00350*
%
%ADD151ROUNDEDRECTD151*%
G04:AMPARAMS|DCode=152|XSize=208mil|YSize=148mil|CornerRadius=39mil|HoleSize=0mil|Usage=FLASHONLY|Rotation=0.000|XOffset=0mil|YOffset=0mil|HoleType=Round|Shape=RoundedRectangle|*
%AMROUNDEDRECTD152*
21,1,0.20800,0.07000,0,0,0.0*
21,1,0.13000,0.14800,0,0,0.0*
1,1,0.07800,0.06500,-0.03500*
1,1,0.07800,-0.06500,-0.03500*
1,1,0.07800,-0.06500,0.03500*
1,1,0.07800,0.06500,0.03500*
%
%ADD152ROUNDEDRECTD152*%
G04:AMPARAMS|DCode=153|XSize=73mil|YSize=208mil|CornerRadius=20.25mil|HoleSize=0mil|Usage=FLASHONLY|Rotation=270.000|XOffset=0mil|YOffset=0mil|HoleType=Round|Shape=RoundedRectangle|*
%AMROUNDEDRECTD153*
21,1,0.07300,0.16750,0,0,270.0*
21,1,0.03250,0.20800,0,0,270.0*
1,1,0.04050,-0.08375,-0.01625*
1,1,0.04050,-0.08375,0.01625*
1,1,0.04050,0.08375,0.01625*
1,1,0.04050,0.08375,-0.01625*
%
%ADD153ROUNDEDRECTD153*%
D26*
X3266906Y1741234D02*
D03*
X2942902Y1740734D02*
D03*
X2942542Y1946834D02*
D03*
X3266546Y1947334D02*
D03*
D119*
X2915200Y1950500D02*
D03*
X3296902Y1713234D02*
D03*
D120*
X2997559Y1728270D02*
D03*
X2966870Y1758959D02*
D03*
D121*
X3127269Y1912370D02*
D03*
Y1873000D02*
D03*
X3157900Y1800500D02*
D03*
X3118200Y1812900D02*
D03*
X3136800Y1845100D02*
D03*
X2914402Y1713234D02*
D03*
X3322401Y1718734D02*
D03*
Y1952234D02*
D03*
D122*
X3187402Y1713734D02*
D03*
X3197402D02*
D03*
X3167402D02*
D03*
X3177402D02*
D03*
X3217402D02*
D03*
X3207402D02*
D03*
X3237402D02*
D03*
X3227402D02*
D03*
X3257402D02*
D03*
X3247401D02*
D03*
X3277402D02*
D03*
X3267402D02*
D03*
X3137402Y1733234D02*
D03*
X3319732Y1769253D02*
D03*
X3309732D02*
D03*
X3309832Y1759011D02*
D03*
X3319832D02*
D03*
X3147402Y1733234D02*
D03*
X3067402D02*
D03*
X3117402D02*
D03*
X3127402D02*
D03*
D123*
X3087402D02*
D03*
X3097402D02*
D03*
X3077402D02*
D03*
D124*
X3083400Y1761000D02*
D03*
Y1758500D02*
D03*
Y1756000D02*
D03*
Y1753500D02*
D03*
Y1751000D02*
D03*
Y1748500D02*
D03*
Y1746000D02*
D03*
X3105300Y1746000D02*
D03*
Y1748500D02*
D03*
Y1751000D02*
D03*
X3105300Y1753500D02*
D03*
X3105300Y1756000D02*
D03*
Y1758500D02*
D03*
D125*
Y1761000D02*
D03*
D126*
X3171500Y1909500D02*
D03*
Y1912000D02*
D03*
Y1914500D02*
D03*
Y1917000D02*
D03*
Y1919500D02*
D03*
X3193400D02*
D03*
Y1917000D02*
D03*
Y1914500D02*
D03*
Y1912000D02*
D03*
Y1909500D02*
D03*
Y1892000D02*
D03*
Y1894500D02*
D03*
Y1897000D02*
D03*
Y1899500D02*
D03*
Y1902000D02*
D03*
Y1904500D02*
D03*
Y1907000D02*
D03*
X3171500D02*
D03*
Y1904500D02*
D03*
Y1902000D02*
D03*
Y1899500D02*
D03*
Y1897000D02*
D03*
Y1894500D02*
D03*
D127*
Y1892000D02*
D03*
D128*
X3215800Y1745000D02*
D03*
X3209900D02*
D03*
X3207900Y1862600D02*
D03*
X3213800D02*
D03*
Y1844200D02*
D03*
X3207900D02*
D03*
X3213800Y1853400D02*
D03*
X3207900D02*
D03*
X3023700Y1720300D02*
D03*
X3029600D02*
D03*
X3064100Y1764200D02*
D03*
X3058200D02*
D03*
X3062500Y1720300D02*
D03*
X3068400D02*
D03*
X3055800Y1737400D02*
D03*
X3049900D02*
D03*
X3059800Y1747500D02*
D03*
X3053900D02*
D03*
X3064100Y1756100D02*
D03*
X3058200D02*
D03*
X3120900Y1757100D02*
D03*
X3115000D02*
D03*
X3120900Y1749400D02*
D03*
X3115000D02*
D03*
X3198244Y1879234D02*
D03*
X3192344D02*
D03*
X3030400Y1764700D02*
D03*
X3024500D02*
D03*
X3049800Y1729000D02*
D03*
X3055700D02*
D03*
X3036700Y1720300D02*
D03*
X3042600D02*
D03*
X3003400D02*
D03*
X3009300D02*
D03*
X3017500Y1764700D02*
D03*
X3011600D02*
D03*
X3055569Y1720300D02*
D03*
X3049669D02*
D03*
X3215800Y1777700D02*
D03*
X3209900D02*
D03*
X3201200Y1786000D02*
D03*
X3195300D02*
D03*
X3215800Y1761200D02*
D03*
X3209900D02*
D03*
X3215800Y1769500D02*
D03*
X3209900D02*
D03*
X3043300Y1764700D02*
D03*
X3037400D02*
D03*
X3170472Y1879234D02*
D03*
X3164572D02*
D03*
X3184358D02*
D03*
X3178458D02*
D03*
X3201200Y1777700D02*
D03*
X3195300D02*
D03*
X3201200Y1769500D02*
D03*
X3195300D02*
D03*
X3195200Y1761200D02*
D03*
X3201100D02*
D03*
X3209800Y1786100D02*
D03*
X3215700D02*
D03*
X3195200Y1744900D02*
D03*
X3201100D02*
D03*
D129*
X3210444Y1876715D02*
D03*
Y1893046D02*
D03*
D130*
X3006300Y1728700D02*
D03*
D131*
X3010000Y1736700D02*
D03*
X3002500D02*
D03*
D132*
X3139800Y1937700D02*
D03*
D133*
X3143500Y1945700D02*
D03*
X3136000D02*
D03*
D134*
X3000602Y1970773D02*
D03*
Y1960773D02*
D03*
Y1940773D02*
D03*
Y1930773D02*
D03*
Y1880773D02*
D03*
Y1890773D02*
D03*
Y1910773D02*
D03*
Y1920773D02*
D03*
Y1830773D02*
D03*
Y1840773D02*
D03*
Y1860773D02*
D03*
Y1870773D02*
D03*
Y1780773D02*
D03*
Y1790773D02*
D03*
Y1810773D02*
D03*
Y1820773D02*
D03*
X3080602Y1810773D02*
D03*
Y1790773D02*
D03*
Y1780773D02*
D03*
Y1860773D02*
D03*
Y1840773D02*
D03*
Y1830773D02*
D03*
Y1820773D02*
D03*
Y1910773D02*
D03*
Y1890773D02*
D03*
Y1880773D02*
D03*
Y1870773D02*
D03*
Y1920773D02*
D03*
Y1930773D02*
D03*
Y1940773D02*
D03*
Y1960773D02*
D03*
Y1970773D02*
D03*
D135*
X3000602Y1950773D02*
D03*
Y1900773D02*
D03*
Y1850773D02*
D03*
Y1800773D02*
D03*
X3080602D02*
D03*
Y1950773D02*
D03*
Y1850773D02*
D03*
Y1900773D02*
D03*
D136*
X3214900Y1802100D02*
D03*
X3196900Y1809600D02*
D03*
D137*
X3214800Y1807200D02*
D03*
X3214800Y1804600D02*
D03*
X3196900Y1802100D02*
D03*
X3196800Y1807200D02*
D03*
Y1804700D02*
D03*
D138*
X3214900Y1809600D02*
D03*
D139*
X3038300Y1752300D02*
D03*
X3018880Y1731621D02*
D03*
X3038329Y1731650D02*
D03*
D140*
X3038900Y1751700D02*
D03*
X3018279Y1732221D02*
D03*
X3038929Y1732250D02*
D03*
D141*
X3019300Y1752300D02*
D03*
D142*
X3018300Y1751300D02*
D03*
D143*
X3018500Y1752100D02*
D03*
D144*
X3028590Y1741961D02*
D03*
D145*
X3021700Y1752000D02*
D03*
D146*
X3023668D02*
D03*
X3025637D02*
D03*
X3027605D02*
D03*
X3029574D02*
D03*
X3031543D02*
D03*
X3033511D02*
D03*
X3035480D02*
D03*
X3035480Y1731921D02*
D03*
X3033511D02*
D03*
X3031543D02*
D03*
X3029574D02*
D03*
X3027605D02*
D03*
X3025637D02*
D03*
X3023668D02*
D03*
X3021700Y1731921D02*
D03*
D147*
X3038629Y1739008D02*
D03*
Y1740976D02*
D03*
Y1748850D02*
D03*
Y1746882D02*
D03*
Y1744913D02*
D03*
Y1742945D02*
D03*
X3018550D02*
D03*
Y1744913D02*
D03*
Y1746882D02*
D03*
Y1748850D02*
D03*
Y1740976D02*
D03*
Y1739008D02*
D03*
X3038629Y1735071D02*
D03*
Y1737039D02*
D03*
X3018550D02*
D03*
Y1735071D02*
D03*
D148*
X3176900Y1753300D02*
D03*
X3167900D02*
D03*
D149*
X3137120Y1753200D02*
D03*
X3153451D02*
D03*
D150*
X3184500Y1857400D02*
D03*
X3198700Y1829500D02*
D03*
D151*
X3142188Y1887327D02*
D03*
Y1884571D02*
D03*
Y1881815D02*
D03*
Y1879059D02*
D03*
Y1898350D02*
D03*
Y1895594D02*
D03*
Y1892839D02*
D03*
Y1890083D02*
D03*
Y1901106D02*
D03*
Y1903862D02*
D03*
Y1906618D02*
D03*
Y1909374D02*
D03*
D152*
X3323378Y1898659D02*
D03*
Y1877659D02*
D03*
D153*
X3316929Y1844982D02*
D03*
Y1825297D02*
D03*
Y1835139D02*
D03*
M02*
