G04*
G04 #@! TF.GenerationSoftware,Altium Limited,CircuitStudio,1.5.2 (30)*
G04*
G04 Layer_Color=13408512*
%FSLAX25Y25*%
%MOIN*%
G70*
G01*
G75*
%ADD10C,0.01000*%
%ADD68C,0.00400*%
%ADD70C,0.00500*%
%ADD154C,0.00300*%
%ADD155C,0.01575*%
%ADD156C,0.00600*%
%ADD157R,0.01500X0.06500*%
%ADD158R,0.03200X0.13213*%
%ADD159R,0.03200X0.14000*%
G36*
X3306977Y1912090D02*
X3307147Y1912071D01*
X3307309Y1912042D01*
X3307460Y1912005D01*
X3307592Y1911967D01*
X3307725Y1911910D01*
X3307848Y1911863D01*
X3307952Y1911806D01*
X3308047Y1911749D01*
X3308132Y1911702D01*
X3308208Y1911645D01*
X3308265Y1911607D01*
X3308312Y1911569D01*
X3308350Y1911541D01*
X3308369Y1911522D01*
X3308379Y1911512D01*
X3308483Y1911399D01*
X3308577Y1911285D01*
X3308662Y1911162D01*
X3308738Y1911039D01*
X3308795Y1910925D01*
X3308842Y1910802D01*
X3308918Y1910584D01*
X3308947Y1910480D01*
X3308966Y1910385D01*
X3308975Y1910300D01*
X3308985Y1910234D01*
X3308994Y1910177D01*
Y1910130D01*
Y1910101D01*
Y1910092D01*
X3308985Y1909931D01*
X3308956Y1909770D01*
X3308928Y1909628D01*
X3308890Y1909495D01*
X3308842Y1909391D01*
X3308814Y1909306D01*
X3308786Y1909249D01*
X3308776Y1909239D01*
Y1909230D01*
X3309894Y1909429D01*
Y1911806D01*
X3311068D01*
Y1908482D01*
X3307649Y1907838D01*
X3307507Y1908851D01*
X3307592Y1908936D01*
X3307668Y1909022D01*
X3307735Y1909107D01*
X3307792Y1909192D01*
X3307877Y1909353D01*
X3307933Y1909505D01*
X3307962Y1909637D01*
X3307981Y1909732D01*
X3307990Y1909770D01*
Y1909798D01*
Y1909817D01*
Y1909826D01*
X3307981Y1909978D01*
X3307943Y1910120D01*
X3307896Y1910243D01*
X3307839Y1910347D01*
X3307772Y1910423D01*
X3307725Y1910489D01*
X3307687Y1910527D01*
X3307678Y1910537D01*
X3307555Y1910632D01*
X3307413Y1910698D01*
X3307261Y1910745D01*
X3307109Y1910773D01*
X3306977Y1910802D01*
X3306873Y1910811D01*
X3306768D01*
X3306541Y1910802D01*
X3306342Y1910773D01*
X3306181Y1910726D01*
X3306049Y1910679D01*
X3305935Y1910622D01*
X3305859Y1910584D01*
X3305822Y1910546D01*
X3305803Y1910537D01*
X3305698Y1910433D01*
X3305613Y1910319D01*
X3305556Y1910205D01*
X3305519Y1910101D01*
X3305500Y1910006D01*
X3305490Y1909931D01*
X3305481Y1909883D01*
Y1909864D01*
X3305490Y1909741D01*
X3305519Y1909618D01*
X3305556Y1909514D01*
X3305604Y1909429D01*
X3305651Y1909353D01*
X3305689Y1909296D01*
X3305717Y1909258D01*
X3305727Y1909249D01*
X3305831Y1909164D01*
X3305935Y1909088D01*
X3306049Y1909031D01*
X3306153Y1908993D01*
X3306248Y1908965D01*
X3306333Y1908946D01*
X3306380Y1908936D01*
X3306399D01*
X3306267Y1907686D01*
X3306115Y1907715D01*
X3305973Y1907743D01*
X3305717Y1907838D01*
X3305490Y1907942D01*
X3305396Y1907999D01*
X3305301Y1908065D01*
X3305225Y1908122D01*
X3305159Y1908169D01*
X3305102Y1908226D01*
X3305045Y1908264D01*
X3305007Y1908302D01*
X3304979Y1908330D01*
X3304969Y1908349D01*
X3304960Y1908359D01*
X3304874Y1908472D01*
X3304799Y1908586D01*
X3304733Y1908709D01*
X3304685Y1908832D01*
X3304591Y1909088D01*
X3304534Y1909315D01*
X3304515Y1909429D01*
X3304505Y1909524D01*
X3304496Y1909618D01*
X3304486Y1909694D01*
X3304477Y1909760D01*
Y1909808D01*
Y1909836D01*
Y1909845D01*
X3304486Y1910054D01*
X3304515Y1910253D01*
X3304552Y1910433D01*
X3304610Y1910603D01*
X3304676Y1910764D01*
X3304752Y1910906D01*
X3304827Y1911039D01*
X3304913Y1911162D01*
X3304988Y1911266D01*
X3305064Y1911361D01*
X3305140Y1911446D01*
X3305206Y1911512D01*
X3305263Y1911559D01*
X3305301Y1911597D01*
X3305329Y1911616D01*
X3305339Y1911626D01*
X3305462Y1911711D01*
X3305585Y1911787D01*
X3305708Y1911844D01*
X3305841Y1911900D01*
X3306087Y1911986D01*
X3306314Y1912042D01*
X3306409Y1912061D01*
X3306504Y1912071D01*
X3306589Y1912090D01*
X3306665D01*
X3306721Y1912099D01*
X3306797D01*
X3306977Y1912090D01*
D02*
G37*
G36*
X3311153Y1917071D02*
X3306305Y1915471D01*
X3311153Y1913804D01*
Y1912374D01*
X3304600Y1914722D01*
Y1916153D01*
X3311153Y1918482D01*
Y1917071D01*
D02*
G37*
G36*
X3314505Y1803974D02*
Y1801920D01*
X3304900Y1798200D01*
Y1800254D01*
X3307079Y1801045D01*
Y1804904D01*
X3304900Y1805737D01*
Y1807833D01*
X3314505Y1803974D01*
D02*
G37*
G36*
X3305859Y1905385D02*
X3304600D01*
Y1906645D01*
X3305859D01*
Y1905385D01*
D02*
G37*
G36*
X3311153Y1889030D02*
X3306740D01*
X3311153Y1886322D01*
Y1885044D01*
X3304600D01*
Y1886265D01*
X3308918D01*
X3304600Y1888926D01*
Y1890252D01*
X3311153D01*
Y1889030D01*
D02*
G37*
G36*
X3305708Y1892979D02*
X3307488D01*
Y1896265D01*
X3308596D01*
Y1892979D01*
X3310045D01*
Y1896512D01*
X3311153D01*
Y1891654D01*
X3304600D01*
Y1896635D01*
X3305708D01*
Y1892979D01*
D02*
G37*
G36*
X3311191Y1902213D02*
X3310973Y1902118D01*
X3310774Y1901995D01*
X3310585Y1901862D01*
X3310434Y1901730D01*
X3310310Y1901616D01*
X3310216Y1901512D01*
X3310178Y1901474D01*
X3310149Y1901446D01*
X3310140Y1901427D01*
X3310130Y1901417D01*
X3309979Y1901209D01*
X3309846Y1901010D01*
X3309742Y1900830D01*
X3309666Y1900669D01*
X3309610Y1900536D01*
X3309562Y1900442D01*
X3309553Y1900404D01*
X3309543Y1900375D01*
X3309534Y1900366D01*
Y1900356D01*
X3308398D01*
X3308530Y1900697D01*
X3308672Y1901001D01*
X3308748Y1901143D01*
X3308833Y1901275D01*
X3308909Y1901398D01*
X3308985Y1901512D01*
X3309060Y1901616D01*
X3309127Y1901711D01*
X3309184Y1901786D01*
X3309240Y1901853D01*
X3309288Y1901910D01*
X3309316Y1901948D01*
X3309335Y1901966D01*
X3309344Y1901976D01*
X3304600D01*
Y1903235D01*
X3311191D01*
Y1902213D01*
D02*
G37*
G36*
X3182724Y1930357D02*
X3182829Y1930346D01*
X3182929Y1930324D01*
X3183012Y1930302D01*
X3183079Y1930280D01*
X3183134Y1930257D01*
X3183168Y1930246D01*
X3183173Y1930241D01*
X3183179D01*
X3183268Y1930191D01*
X3183351Y1930135D01*
X3183417Y1930080D01*
X3183473Y1930030D01*
X3183517Y1929980D01*
X3183550Y1929941D01*
X3183573Y1929919D01*
X3183578Y1929908D01*
X3183628Y1929824D01*
X3183673Y1929736D01*
X3183706Y1929641D01*
X3183739Y1929552D01*
X3183761Y1929469D01*
X3183778Y1929408D01*
X3183784Y1929380D01*
Y1929364D01*
X3183789Y1929353D01*
Y1929347D01*
X3183112Y1929236D01*
X3183095Y1929325D01*
X3183073Y1929403D01*
X3183051Y1929469D01*
X3183023Y1929519D01*
X3182996Y1929564D01*
X3182973Y1929597D01*
X3182957Y1929614D01*
X3182951Y1929619D01*
X3182901Y1929663D01*
X3182846Y1929697D01*
X3182790Y1929719D01*
X3182740Y1929736D01*
X3182696Y1929747D01*
X3182663Y1929752D01*
X3182629D01*
X3182563Y1929747D01*
X3182496Y1929736D01*
X3182446Y1929713D01*
X3182402Y1929697D01*
X3182363Y1929675D01*
X3182341Y1929652D01*
X3182324Y1929641D01*
X3182318Y1929636D01*
X3182280Y1929591D01*
X3182252Y1929536D01*
X3182230Y1929486D01*
X3182219Y1929436D01*
X3182207Y1929391D01*
X3182202Y1929358D01*
Y1929336D01*
Y1929325D01*
X3182207Y1929242D01*
X3182224Y1929170D01*
X3182252Y1929108D01*
X3182280Y1929059D01*
X3182313Y1929014D01*
X3182335Y1928986D01*
X3182357Y1928964D01*
X3182363Y1928959D01*
X3182429Y1928914D01*
X3182502Y1928881D01*
X3182579Y1928859D01*
X3182652Y1928842D01*
X3182718Y1928836D01*
X3182774Y1928831D01*
X3182824D01*
X3182901Y1928237D01*
X3182829Y1928254D01*
X3182768Y1928270D01*
X3182707Y1928282D01*
X3182657Y1928287D01*
X3182618Y1928293D01*
X3182563D01*
X3182485Y1928287D01*
X3182418Y1928265D01*
X3182357Y1928243D01*
X3182302Y1928209D01*
X3182263Y1928182D01*
X3182230Y1928154D01*
X3182207Y1928132D01*
X3182202Y1928126D01*
X3182152Y1928060D01*
X3182113Y1927987D01*
X3182085Y1927915D01*
X3182063Y1927843D01*
X3182052Y1927777D01*
X3182047Y1927727D01*
Y1927693D01*
Y1927688D01*
Y1927682D01*
X3182052Y1927577D01*
X3182069Y1927482D01*
X3182096Y1927399D01*
X3182124Y1927332D01*
X3182158Y1927283D01*
X3182180Y1927244D01*
X3182202Y1927216D01*
X3182207Y1927210D01*
X3182269Y1927155D01*
X3182335Y1927110D01*
X3182396Y1927083D01*
X3182457Y1927061D01*
X3182513Y1927049D01*
X3182552Y1927044D01*
X3182579Y1927038D01*
X3182590D01*
X3182668Y1927044D01*
X3182735Y1927061D01*
X3182796Y1927083D01*
X3182851Y1927110D01*
X3182890Y1927133D01*
X3182923Y1927155D01*
X3182946Y1927172D01*
X3182951Y1927177D01*
X3183001Y1927238D01*
X3183046Y1927305D01*
X3183073Y1927377D01*
X3183101Y1927444D01*
X3183118Y1927505D01*
X3183129Y1927555D01*
X3183134Y1927588D01*
Y1927593D01*
Y1927599D01*
X3183845Y1927510D01*
X3183834Y1927421D01*
X3183811Y1927338D01*
X3183761Y1927183D01*
X3183700Y1927049D01*
X3183661Y1926994D01*
X3183628Y1926938D01*
X3183595Y1926888D01*
X3183562Y1926850D01*
X3183534Y1926811D01*
X3183506Y1926783D01*
X3183484Y1926761D01*
X3183467Y1926744D01*
X3183456Y1926733D01*
X3183451Y1926727D01*
X3183384Y1926678D01*
X3183312Y1926628D01*
X3183245Y1926589D01*
X3183168Y1926555D01*
X3183023Y1926500D01*
X3182890Y1926467D01*
X3182824Y1926456D01*
X3182768Y1926444D01*
X3182718Y1926439D01*
X3182674Y1926433D01*
X3182635Y1926428D01*
X3182585D01*
X3182485Y1926433D01*
X3182385Y1926444D01*
X3182296Y1926461D01*
X3182207Y1926483D01*
X3182130Y1926511D01*
X3182052Y1926539D01*
X3181980Y1926572D01*
X3181919Y1926605D01*
X3181863Y1926639D01*
X3181808Y1926672D01*
X3181769Y1926700D01*
X3181730Y1926727D01*
X3181702Y1926750D01*
X3181680Y1926766D01*
X3181669Y1926777D01*
X3181664Y1926783D01*
X3181597Y1926850D01*
X3181541Y1926922D01*
X3181491Y1926994D01*
X3181447Y1927066D01*
X3181414Y1927144D01*
X3181380Y1927216D01*
X3181336Y1927349D01*
X3181325Y1927410D01*
X3181314Y1927471D01*
X3181303Y1927521D01*
X3181297Y1927566D01*
X3181292Y1927599D01*
Y1927627D01*
Y1927643D01*
Y1927649D01*
X3181303Y1927777D01*
X3181325Y1927888D01*
X3181353Y1927993D01*
X3181392Y1928076D01*
X3181430Y1928148D01*
X3181458Y1928198D01*
X3181480Y1928232D01*
X3181491Y1928243D01*
X3181569Y1928326D01*
X3181658Y1928398D01*
X3181747Y1928454D01*
X3181830Y1928498D01*
X3181902Y1928531D01*
X3181963Y1928548D01*
X3181985Y1928559D01*
X3182002D01*
X3182013Y1928565D01*
X3182019D01*
X3181919Y1928626D01*
X3181836Y1928687D01*
X3181763Y1928753D01*
X3181697Y1928820D01*
X3181641Y1928886D01*
X3181597Y1928953D01*
X3181564Y1929020D01*
X3181530Y1929081D01*
X3181508Y1929142D01*
X3181491Y1929197D01*
X3181480Y1929247D01*
X3181475Y1929292D01*
X3181469Y1929325D01*
X3181464Y1929353D01*
Y1929369D01*
Y1929375D01*
X3181469Y1929441D01*
X3181475Y1929502D01*
X3181508Y1929625D01*
X3181547Y1929736D01*
X3181597Y1929830D01*
X3181647Y1929908D01*
X3181691Y1929963D01*
X3181708Y1929985D01*
X3181725Y1930002D01*
X3181730Y1930008D01*
X3181736Y1930013D01*
X3181797Y1930074D01*
X3181869Y1930130D01*
X3181936Y1930174D01*
X3182008Y1930213D01*
X3182085Y1930252D01*
X3182158Y1930280D01*
X3182296Y1930318D01*
X3182357Y1930335D01*
X3182418Y1930346D01*
X3182468Y1930352D01*
X3182518Y1930357D01*
X3182557Y1930363D01*
X3182607D01*
X3182724Y1930357D01*
D02*
G37*
G36*
X2976991Y1709556D02*
X2976773Y1709461D01*
X2976574Y1709338D01*
X2976385Y1709206D01*
X2976233Y1709073D01*
X2976110Y1708960D01*
X2976016Y1708855D01*
X2975978Y1708817D01*
X2975949Y1708789D01*
X2975940Y1708770D01*
X2975930Y1708761D01*
X2975779Y1708552D01*
X2975646Y1708353D01*
X2975542Y1708174D01*
X2975466Y1708013D01*
X2975410Y1707880D01*
X2975362Y1707785D01*
X2975353Y1707747D01*
X2975343Y1707719D01*
X2975334Y1707710D01*
Y1707700D01*
X2974198D01*
X2974330Y1708041D01*
X2974472Y1708344D01*
X2974548Y1708486D01*
X2974633Y1708619D01*
X2974709Y1708742D01*
X2974785Y1708855D01*
X2974860Y1708960D01*
X2974927Y1709054D01*
X2974983Y1709130D01*
X2975040Y1709196D01*
X2975088Y1709253D01*
X2975116Y1709291D01*
X2975135Y1709310D01*
X2975145Y1709319D01*
X2970400D01*
Y1710579D01*
X2976991D01*
Y1709556D01*
D02*
G37*
G36*
X2971659Y1712729D02*
X2970400D01*
Y1713988D01*
X2971659D01*
Y1712729D01*
D02*
G37*
G36*
X2972777Y1719433D02*
X2972947Y1719414D01*
X2973108Y1719386D01*
X2973260Y1719348D01*
X2973392Y1719310D01*
X2973525Y1719253D01*
X2973648Y1719206D01*
X2973752Y1719149D01*
X2973847Y1719092D01*
X2973932Y1719045D01*
X2974008Y1718988D01*
X2974065Y1718950D01*
X2974112Y1718913D01*
X2974150Y1718884D01*
X2974169Y1718865D01*
X2974179Y1718856D01*
X2974283Y1718742D01*
X2974377Y1718628D01*
X2974463Y1718505D01*
X2974538Y1718382D01*
X2974595Y1718269D01*
X2974643Y1718145D01*
X2974718Y1717928D01*
X2974747Y1717823D01*
X2974766Y1717729D01*
X2974775Y1717644D01*
X2974785Y1717577D01*
X2974794Y1717520D01*
Y1717473D01*
Y1717445D01*
Y1717435D01*
X2974785Y1717274D01*
X2974756Y1717113D01*
X2974728Y1716971D01*
X2974690Y1716839D01*
X2974643Y1716734D01*
X2974614Y1716649D01*
X2974586Y1716592D01*
X2974576Y1716583D01*
Y1716573D01*
X2975694Y1716772D01*
Y1719149D01*
X2976868D01*
Y1715825D01*
X2973449Y1715181D01*
X2973307Y1716195D01*
X2973392Y1716280D01*
X2973468Y1716365D01*
X2973535Y1716450D01*
X2973591Y1716536D01*
X2973677Y1716697D01*
X2973733Y1716848D01*
X2973762Y1716981D01*
X2973781Y1717075D01*
X2973790Y1717113D01*
Y1717142D01*
Y1717160D01*
Y1717170D01*
X2973781Y1717322D01*
X2973743Y1717464D01*
X2973696Y1717587D01*
X2973639Y1717691D01*
X2973573Y1717767D01*
X2973525Y1717833D01*
X2973487Y1717871D01*
X2973478Y1717880D01*
X2973355Y1717975D01*
X2973213Y1718041D01*
X2973061Y1718089D01*
X2972910Y1718117D01*
X2972777Y1718145D01*
X2972673Y1718155D01*
X2972569D01*
X2972341Y1718145D01*
X2972142Y1718117D01*
X2971981Y1718070D01*
X2971849Y1718022D01*
X2971735Y1717966D01*
X2971659Y1717928D01*
X2971622Y1717890D01*
X2971603Y1717880D01*
X2971498Y1717776D01*
X2971413Y1717662D01*
X2971357Y1717549D01*
X2971319Y1717445D01*
X2971300Y1717350D01*
X2971290Y1717274D01*
X2971281Y1717227D01*
Y1717208D01*
X2971290Y1717085D01*
X2971319Y1716962D01*
X2971357Y1716858D01*
X2971404Y1716772D01*
X2971451Y1716697D01*
X2971489Y1716640D01*
X2971518Y1716602D01*
X2971527Y1716592D01*
X2971631Y1716507D01*
X2971735Y1716431D01*
X2971849Y1716375D01*
X2971953Y1716337D01*
X2972048Y1716308D01*
X2972133Y1716289D01*
X2972180Y1716280D01*
X2972199D01*
X2972067Y1715030D01*
X2971915Y1715058D01*
X2971773Y1715087D01*
X2971518Y1715181D01*
X2971290Y1715285D01*
X2971195Y1715342D01*
X2971101Y1715409D01*
X2971025Y1715465D01*
X2970959Y1715513D01*
X2970902Y1715570D01*
X2970845Y1715607D01*
X2970807Y1715645D01*
X2970779Y1715674D01*
X2970769Y1715693D01*
X2970760Y1715702D01*
X2970675Y1715816D01*
X2970599Y1715929D01*
X2970533Y1716052D01*
X2970485Y1716176D01*
X2970391Y1716431D01*
X2970334Y1716659D01*
X2970315Y1716772D01*
X2970305Y1716867D01*
X2970296Y1716962D01*
X2970286Y1717037D01*
X2970277Y1717104D01*
Y1717151D01*
Y1717179D01*
Y1717189D01*
X2970286Y1717397D01*
X2970315Y1717596D01*
X2970353Y1717776D01*
X2970410Y1717946D01*
X2970476Y1718107D01*
X2970551Y1718250D01*
X2970627Y1718382D01*
X2970712Y1718505D01*
X2970788Y1718609D01*
X2970864Y1718704D01*
X2970940Y1718789D01*
X2971006Y1718856D01*
X2971063Y1718903D01*
X2971101Y1718941D01*
X2971129Y1718960D01*
X2971139Y1718969D01*
X2971262Y1719054D01*
X2971385Y1719130D01*
X2971508Y1719187D01*
X2971641Y1719244D01*
X2971887Y1719329D01*
X2972114Y1719386D01*
X2972209Y1719405D01*
X2972304Y1719414D01*
X2972389Y1719433D01*
X2972465D01*
X2972521Y1719443D01*
X2972597D01*
X2972777Y1719433D01*
D02*
G37*
G36*
X3340627Y1878471D02*
X3342889D01*
Y1877021D01*
X3340627D01*
Y1874759D01*
X3339177D01*
Y1877021D01*
X3336901D01*
Y1878471D01*
X3339177D01*
Y1880734D01*
X3340627D01*
Y1878471D01*
D02*
G37*
G36*
X3314505Y1813662D02*
Y1811608D01*
X3304900Y1807888D01*
Y1809942D01*
X3307079Y1810734D01*
Y1814592D01*
X3304900Y1815425D01*
Y1817521D01*
X3314505Y1813662D01*
D02*
G37*
G36*
X3188618Y1930357D02*
X3188707Y1930352D01*
X3188879Y1930324D01*
X3189023Y1930280D01*
X3189089Y1930257D01*
X3189150Y1930230D01*
X3189206Y1930207D01*
X3189250Y1930180D01*
X3189295Y1930157D01*
X3189328Y1930141D01*
X3189356Y1930119D01*
X3189372Y1930107D01*
X3189384Y1930102D01*
X3189389Y1930096D01*
X3189450Y1930041D01*
X3189506Y1929985D01*
X3189556Y1929919D01*
X3189600Y1929847D01*
X3189667Y1929702D01*
X3189722Y1929564D01*
X3189739Y1929491D01*
X3189755Y1929430D01*
X3189772Y1929375D01*
X3189778Y1929325D01*
X3189789Y1929280D01*
Y1929253D01*
X3189794Y1929231D01*
Y1929225D01*
X3189062Y1929153D01*
X3189051Y1929264D01*
X3189028Y1929358D01*
X3189006Y1929441D01*
X3188979Y1929502D01*
X3188956Y1929552D01*
X3188934Y1929586D01*
X3188917Y1929608D01*
X3188912Y1929614D01*
X3188856Y1929658D01*
X3188795Y1929691D01*
X3188734Y1929719D01*
X3188673Y1929736D01*
X3188623Y1929747D01*
X3188579Y1929752D01*
X3188540D01*
X3188457Y1929747D01*
X3188385Y1929730D01*
X3188324Y1929708D01*
X3188268Y1929686D01*
X3188229Y1929663D01*
X3188196Y1929641D01*
X3188179Y1929625D01*
X3188174Y1929619D01*
X3188129Y1929564D01*
X3188096Y1929502D01*
X3188074Y1929441D01*
X3188057Y1929380D01*
X3188046Y1929325D01*
X3188041Y1929275D01*
Y1929247D01*
Y1929242D01*
Y1929236D01*
X3188046Y1929153D01*
X3188063Y1929075D01*
X3188091Y1928997D01*
X3188118Y1928931D01*
X3188146Y1928870D01*
X3188174Y1928825D01*
X3188190Y1928798D01*
X3188196Y1928787D01*
X3188218Y1928753D01*
X3188251Y1928714D01*
X3188296Y1928665D01*
X3188340Y1928620D01*
X3188440Y1928515D01*
X3188540Y1928409D01*
X3188640Y1928309D01*
X3188684Y1928265D01*
X3188729Y1928232D01*
X3188762Y1928198D01*
X3188784Y1928176D01*
X3188801Y1928159D01*
X3188806Y1928154D01*
X3188917Y1928048D01*
X3189017Y1927949D01*
X3189112Y1927854D01*
X3189195Y1927771D01*
X3189273Y1927688D01*
X3189339Y1927610D01*
X3189400Y1927543D01*
X3189450Y1927477D01*
X3189495Y1927421D01*
X3189533Y1927371D01*
X3189567Y1927332D01*
X3189589Y1927294D01*
X3189611Y1927271D01*
X3189622Y1927249D01*
X3189633Y1927238D01*
Y1927233D01*
X3189705Y1927105D01*
X3189761Y1926972D01*
X3189805Y1926850D01*
X3189839Y1926739D01*
X3189861Y1926639D01*
X3189866Y1926600D01*
X3189872Y1926567D01*
X3189878Y1926539D01*
X3189883Y1926517D01*
Y1926505D01*
Y1926500D01*
X3187302D01*
Y1927183D01*
X3188768D01*
X3188723Y1927255D01*
X3188673Y1927316D01*
X3188651Y1927344D01*
X3188634Y1927366D01*
X3188623Y1927377D01*
X3188618Y1927382D01*
X3188596Y1927405D01*
X3188573Y1927432D01*
X3188507Y1927493D01*
X3188434Y1927566D01*
X3188362Y1927638D01*
X3188290Y1927704D01*
X3188229Y1927760D01*
X3188207Y1927782D01*
X3188190Y1927799D01*
X3188179Y1927804D01*
X3188174Y1927810D01*
X3188052Y1927926D01*
X3187952Y1928021D01*
X3187868Y1928110D01*
X3187802Y1928176D01*
X3187752Y1928232D01*
X3187719Y1928270D01*
X3187696Y1928298D01*
X3187691Y1928304D01*
X3187619Y1928398D01*
X3187558Y1928487D01*
X3187508Y1928570D01*
X3187469Y1928642D01*
X3187436Y1928703D01*
X3187413Y1928753D01*
X3187402Y1928781D01*
X3187397Y1928792D01*
X3187363Y1928881D01*
X3187341Y1928970D01*
X3187325Y1929053D01*
X3187313Y1929131D01*
X3187308Y1929192D01*
X3187302Y1929242D01*
Y1929275D01*
Y1929286D01*
X3187308Y1929369D01*
X3187319Y1929453D01*
X3187330Y1929530D01*
X3187352Y1929602D01*
X3187408Y1929730D01*
X3187463Y1929841D01*
X3187497Y1929891D01*
X3187524Y1929930D01*
X3187552Y1929969D01*
X3187580Y1929996D01*
X3187602Y1930019D01*
X3187613Y1930041D01*
X3187624Y1930046D01*
X3187630Y1930052D01*
X3187691Y1930107D01*
X3187763Y1930157D01*
X3187830Y1930196D01*
X3187907Y1930230D01*
X3188052Y1930285D01*
X3188196Y1930324D01*
X3188263Y1930335D01*
X3188324Y1930346D01*
X3188379Y1930352D01*
X3188429Y1930357D01*
X3188468Y1930363D01*
X3188523D01*
X3188618Y1930357D01*
D02*
G37*
G36*
X3270246Y1967428D02*
X3274886D01*
Y1964292D01*
X3270246D01*
Y1959600D01*
X3267032D01*
Y1964292D01*
X3262392D01*
Y1967428D01*
X3267032D01*
Y1972145D01*
X3270246D01*
Y1967428D01*
D02*
G37*
G36*
X2987153Y1738649D02*
X2980600D01*
Y1739975D01*
X2987153D01*
Y1738649D01*
D02*
G37*
G36*
Y1745230D02*
X2982740D01*
X2987153Y1742522D01*
Y1741244D01*
X2980600D01*
Y1742465D01*
X2984918D01*
X2980600Y1745126D01*
Y1746452D01*
X2987153D01*
Y1745230D01*
D02*
G37*
G36*
X2981708Y1749179D02*
X2983488D01*
Y1752465D01*
X2984596D01*
Y1749179D01*
X2986045D01*
Y1752712D01*
X2987153D01*
Y1747854D01*
X2980600D01*
Y1752835D01*
X2981708D01*
Y1749179D01*
D02*
G37*
G36*
Y1734454D02*
X2987106D01*
Y1733128D01*
X2980600D01*
Y1737749D01*
X2981708D01*
Y1734454D01*
D02*
G37*
G36*
X2984596Y1723194D02*
X2987153Y1725675D01*
Y1723895D01*
X2984237Y1721205D01*
X2987153D01*
Y1719879D01*
X2980600D01*
Y1721205D01*
X2982579D01*
X2983678Y1722275D01*
X2980600Y1724084D01*
Y1725798D01*
X2984596Y1723194D01*
D02*
G37*
G36*
X2987153Y1729756D02*
Y1728355D01*
X2980600Y1725817D01*
Y1727218D01*
X2982087Y1727758D01*
Y1730391D01*
X2980600Y1730959D01*
Y1732389D01*
X2987153Y1729756D01*
D02*
G37*
G36*
X2981708Y1715637D02*
X2987106D01*
Y1714311D01*
X2980600D01*
Y1718932D01*
X2981708D01*
Y1715637D01*
D02*
G37*
G36*
X2944347Y1967562D02*
X2948987D01*
Y1964425D01*
X2944347D01*
Y1959734D01*
X2941133D01*
Y1964425D01*
X2936494D01*
Y1967562D01*
X2941133D01*
Y1972279D01*
X2944347D01*
Y1967562D01*
D02*
G37*
G36*
X2987153Y1710939D02*
Y1709538D01*
X2980600Y1707000D01*
Y1708402D01*
X2982087Y1708941D01*
Y1711574D01*
X2980600Y1712142D01*
Y1713572D01*
X2987153Y1710939D01*
D02*
G37*
G36*
X3305708Y1878254D02*
X3311106D01*
Y1876928D01*
X3304600D01*
Y1881549D01*
X3305708D01*
Y1878254D01*
D02*
G37*
G36*
X3311153Y1882449D02*
X3304600D01*
Y1883775D01*
X3311153D01*
Y1882449D01*
D02*
G37*
G36*
Y1873556D02*
Y1872155D01*
X3304600Y1869617D01*
Y1871018D01*
X3306087Y1871558D01*
Y1874191D01*
X3304600Y1874759D01*
Y1876189D01*
X3311153Y1873556D01*
D02*
G37*
G36*
Y1854740D02*
Y1853338D01*
X3304600Y1850800D01*
Y1852202D01*
X3306087Y1852741D01*
Y1855374D01*
X3304600Y1855942D01*
Y1857372D01*
X3311153Y1854740D01*
D02*
G37*
G36*
X3305708Y1859437D02*
X3311106D01*
Y1858111D01*
X3304600D01*
Y1862732D01*
X3305708D01*
Y1859437D01*
D02*
G37*
G36*
X3308596Y1866994D02*
X3311153Y1869475D01*
Y1867694D01*
X3308236Y1865005D01*
X3311153D01*
Y1863679D01*
X3304600D01*
Y1865005D01*
X3306579D01*
X3307678Y1866075D01*
X3304600Y1867884D01*
Y1869598D01*
X3308596Y1866994D01*
D02*
G37*
G36*
X3202731Y1926500D02*
X3200023D01*
Y1927149D01*
X3201954D01*
Y1930313D01*
X3202731D01*
Y1926500D01*
D02*
G37*
G36*
X3197179Y1818363D02*
X3197240Y1818274D01*
X3197312Y1818185D01*
X3197379Y1818108D01*
X3197445Y1818041D01*
X3197495Y1817986D01*
X3197518Y1817969D01*
X3197534Y1817952D01*
X3197540Y1817947D01*
X3197545Y1817941D01*
X3197662Y1817847D01*
X3197779Y1817758D01*
X3197889Y1817680D01*
X3198000Y1817619D01*
X3198095Y1817564D01*
X3198134Y1817542D01*
X3198167Y1817525D01*
X3198195Y1817508D01*
X3198217Y1817503D01*
X3198228Y1817492D01*
X3198234D01*
Y1817036D01*
X3198150Y1817070D01*
X3198067Y1817109D01*
X3197984Y1817147D01*
X3197906Y1817186D01*
X3197840Y1817220D01*
X3197784Y1817247D01*
X3197751Y1817270D01*
X3197745Y1817275D01*
X3197740D01*
X3197640Y1817336D01*
X3197551Y1817397D01*
X3197473Y1817453D01*
X3197412Y1817503D01*
X3197357Y1817542D01*
X3197323Y1817575D01*
X3197296Y1817597D01*
X3197290Y1817603D01*
Y1814600D01*
X3196818D01*
Y1818457D01*
X3197124D01*
X3197179Y1818363D01*
D02*
G37*
G36*
X3200409Y1818452D02*
X3200504Y1818446D01*
X3200592Y1818430D01*
X3200676Y1818413D01*
X3200753Y1818391D01*
X3200826Y1818368D01*
X3200892Y1818341D01*
X3200953Y1818313D01*
X3201009Y1818285D01*
X3201053Y1818257D01*
X3201092Y1818235D01*
X3201125Y1818213D01*
X3201153Y1818196D01*
X3201170Y1818180D01*
X3201181Y1818174D01*
X3201186Y1818169D01*
X3201242Y1818113D01*
X3201292Y1818052D01*
X3201342Y1817986D01*
X3201381Y1817919D01*
X3201447Y1817786D01*
X3201492Y1817653D01*
X3201508Y1817591D01*
X3201525Y1817530D01*
X3201536Y1817480D01*
X3201547Y1817436D01*
X3201553Y1817397D01*
Y1817369D01*
X3201558Y1817353D01*
Y1817347D01*
X3201075Y1817297D01*
X3201064Y1817425D01*
X3201042Y1817536D01*
X3201009Y1817636D01*
X3200970Y1817714D01*
X3200937Y1817780D01*
X3200903Y1817825D01*
X3200881Y1817852D01*
X3200870Y1817863D01*
X3200787Y1817930D01*
X3200698Y1817980D01*
X3200603Y1818019D01*
X3200520Y1818041D01*
X3200443Y1818058D01*
X3200376Y1818063D01*
X3200354Y1818069D01*
X3200320D01*
X3200204Y1818063D01*
X3200098Y1818041D01*
X3200010Y1818008D01*
X3199932Y1817974D01*
X3199871Y1817936D01*
X3199832Y1817908D01*
X3199804Y1817886D01*
X3199793Y1817875D01*
X3199726Y1817797D01*
X3199677Y1817719D01*
X3199638Y1817641D01*
X3199615Y1817564D01*
X3199599Y1817503D01*
X3199593Y1817447D01*
X3199588Y1817414D01*
Y1817408D01*
Y1817403D01*
X3199599Y1817303D01*
X3199621Y1817197D01*
X3199660Y1817103D01*
X3199699Y1817014D01*
X3199743Y1816942D01*
X3199782Y1816881D01*
X3199793Y1816859D01*
X3199804Y1816842D01*
X3199815Y1816837D01*
Y1816831D01*
X3199860Y1816770D01*
X3199915Y1816709D01*
X3199976Y1816642D01*
X3200043Y1816576D01*
X3200182Y1816443D01*
X3200320Y1816309D01*
X3200393Y1816248D01*
X3200454Y1816193D01*
X3200515Y1816143D01*
X3200565Y1816099D01*
X3200603Y1816065D01*
X3200637Y1816038D01*
X3200659Y1816021D01*
X3200665Y1816015D01*
X3200803Y1815899D01*
X3200931Y1815788D01*
X3201036Y1815688D01*
X3201120Y1815605D01*
X3201192Y1815532D01*
X3201242Y1815482D01*
X3201270Y1815449D01*
X3201281Y1815444D01*
Y1815438D01*
X3201358Y1815344D01*
X3201419Y1815255D01*
X3201475Y1815166D01*
X3201519Y1815088D01*
X3201553Y1815022D01*
X3201575Y1814972D01*
X3201586Y1814939D01*
X3201591Y1814933D01*
Y1814927D01*
X3201614Y1814866D01*
X3201625Y1814811D01*
X3201636Y1814755D01*
X3201641Y1814705D01*
X3201647Y1814661D01*
Y1814628D01*
Y1814606D01*
Y1814600D01*
X3199099D01*
Y1815055D01*
X3200992D01*
X3200925Y1815149D01*
X3200892Y1815188D01*
X3200864Y1815227D01*
X3200837Y1815261D01*
X3200814Y1815283D01*
X3200798Y1815299D01*
X3200792Y1815305D01*
X3200764Y1815333D01*
X3200731Y1815360D01*
X3200653Y1815433D01*
X3200565Y1815516D01*
X3200470Y1815599D01*
X3200381Y1815671D01*
X3200343Y1815704D01*
X3200309Y1815738D01*
X3200282Y1815760D01*
X3200259Y1815777D01*
X3200248Y1815788D01*
X3200243Y1815793D01*
X3200154Y1815871D01*
X3200065Y1815943D01*
X3199987Y1816015D01*
X3199915Y1816076D01*
X3199849Y1816137D01*
X3199793Y1816193D01*
X3199738Y1816243D01*
X3199693Y1816287D01*
X3199649Y1816332D01*
X3199615Y1816365D01*
X3199588Y1816393D01*
X3199560Y1816420D01*
X3199532Y1816454D01*
X3199521Y1816465D01*
X3199443Y1816559D01*
X3199377Y1816642D01*
X3199321Y1816726D01*
X3199277Y1816792D01*
X3199244Y1816853D01*
X3199221Y1816898D01*
X3199210Y1816925D01*
X3199205Y1816936D01*
X3199171Y1817020D01*
X3199149Y1817103D01*
X3199127Y1817181D01*
X3199116Y1817247D01*
X3199110Y1817308D01*
X3199105Y1817353D01*
Y1817381D01*
Y1817392D01*
X3199110Y1817475D01*
X3199121Y1817553D01*
X3199133Y1817630D01*
X3199155Y1817697D01*
X3199210Y1817830D01*
X3199266Y1817936D01*
X3199299Y1817986D01*
X3199327Y1818024D01*
X3199355Y1818063D01*
X3199382Y1818091D01*
X3199405Y1818113D01*
X3199416Y1818135D01*
X3199427Y1818141D01*
X3199432Y1818146D01*
X3199493Y1818202D01*
X3199560Y1818252D01*
X3199632Y1818291D01*
X3199704Y1818324D01*
X3199849Y1818380D01*
X3199993Y1818418D01*
X3200054Y1818430D01*
X3200115Y1818441D01*
X3200171Y1818446D01*
X3200215Y1818452D01*
X3200254Y1818457D01*
X3200309D01*
X3200409Y1818452D01*
D02*
G37*
G36*
X3206300Y1929691D02*
X3205162D01*
Y1926500D01*
X3204385D01*
Y1929691D01*
X3203253D01*
Y1930341D01*
X3206300D01*
Y1929691D01*
D02*
G37*
G36*
X3208373Y1814600D02*
X3207835D01*
X3207419Y1815766D01*
X3205809D01*
X3205360Y1814600D01*
X3204782D01*
X3206353Y1818441D01*
X3206908D01*
X3208373Y1814600D01*
D02*
G37*
G36*
X3211531D02*
X3211021D01*
Y1816159D01*
X3210038D01*
X3209894Y1816165D01*
X3209755Y1816176D01*
X3209633Y1816193D01*
X3209522Y1816215D01*
X3209417Y1816237D01*
X3209328Y1816265D01*
X3209245Y1816298D01*
X3209172Y1816332D01*
X3209111Y1816359D01*
X3209056Y1816393D01*
X3209012Y1816420D01*
X3208978Y1816448D01*
X3208950Y1816465D01*
X3208934Y1816482D01*
X3208923Y1816493D01*
X3208917Y1816498D01*
X3208862Y1816565D01*
X3208812Y1816631D01*
X3208773Y1816698D01*
X3208734Y1816770D01*
X3208701Y1816842D01*
X3208678Y1816909D01*
X3208640Y1817036D01*
X3208629Y1817097D01*
X3208618Y1817153D01*
X3208612Y1817203D01*
X3208606Y1817242D01*
X3208601Y1817281D01*
Y1817303D01*
Y1817319D01*
Y1817325D01*
X3208606Y1817430D01*
X3208618Y1817530D01*
X3208640Y1817619D01*
X3208656Y1817697D01*
X3208678Y1817764D01*
X3208701Y1817813D01*
X3208712Y1817841D01*
X3208717Y1817852D01*
X3208762Y1817936D01*
X3208817Y1818008D01*
X3208867Y1818074D01*
X3208917Y1818124D01*
X3208962Y1818163D01*
X3208995Y1818196D01*
X3209017Y1818213D01*
X3209028Y1818219D01*
X3209100Y1818263D01*
X3209184Y1818302D01*
X3209261Y1818335D01*
X3209333Y1818363D01*
X3209400Y1818380D01*
X3209450Y1818391D01*
X3209489Y1818402D01*
X3209500D01*
X3209583Y1818413D01*
X3209678Y1818424D01*
X3209777Y1818430D01*
X3209872Y1818435D01*
X3209955Y1818441D01*
X3211531D01*
Y1814600D01*
D02*
G37*
G36*
X3215100Y1817986D02*
X3213835D01*
Y1814600D01*
X3213324D01*
Y1817986D01*
X3212059D01*
Y1818441D01*
X3215100D01*
Y1817986D01*
D02*
G37*
G36*
X3203523Y1818446D02*
X3203673Y1818418D01*
X3203800Y1818374D01*
X3203911Y1818330D01*
X3203961Y1818302D01*
X3204000Y1818280D01*
X3204039Y1818257D01*
X3204066Y1818235D01*
X3204089Y1818219D01*
X3204105Y1818208D01*
X3204116Y1818202D01*
X3204122Y1818196D01*
X3204227Y1818091D01*
X3204311Y1817974D01*
X3204377Y1817852D01*
X3204433Y1817730D01*
X3204466Y1817625D01*
X3204483Y1817580D01*
X3204494Y1817542D01*
X3204499Y1817508D01*
X3204505Y1817486D01*
X3204510Y1817469D01*
Y1817464D01*
X3204039Y1817381D01*
X3204016Y1817503D01*
X3203983Y1817608D01*
X3203944Y1817697D01*
X3203905Y1817769D01*
X3203867Y1817825D01*
X3203833Y1817863D01*
X3203811Y1817891D01*
X3203806Y1817897D01*
X3203733Y1817952D01*
X3203656Y1817997D01*
X3203584Y1818024D01*
X3203511Y1818047D01*
X3203445Y1818058D01*
X3203395Y1818069D01*
X3203350D01*
X3203251Y1818063D01*
X3203162Y1818041D01*
X3203084Y1818013D01*
X3203018Y1817986D01*
X3202968Y1817952D01*
X3202929Y1817924D01*
X3202901Y1817902D01*
X3202896Y1817897D01*
X3202834Y1817830D01*
X3202790Y1817758D01*
X3202762Y1817686D01*
X3202740Y1817619D01*
X3202729Y1817558D01*
X3202718Y1817514D01*
Y1817480D01*
Y1817475D01*
Y1817469D01*
Y1817408D01*
X3202729Y1817353D01*
X3202757Y1817258D01*
X3202796Y1817175D01*
X3202840Y1817103D01*
X3202884Y1817053D01*
X3202923Y1817014D01*
X3202951Y1816992D01*
X3202957Y1816986D01*
X3202962D01*
X3203056Y1816936D01*
X3203145Y1816898D01*
X3203239Y1816870D01*
X3203323Y1816853D01*
X3203395Y1816842D01*
X3203456Y1816831D01*
X3203528D01*
X3203550Y1816837D01*
X3203578D01*
X3203634Y1816420D01*
X3203561Y1816437D01*
X3203495Y1816448D01*
X3203439Y1816459D01*
X3203389Y1816465D01*
X3203350Y1816470D01*
X3203301D01*
X3203184Y1816459D01*
X3203079Y1816437D01*
X3202984Y1816404D01*
X3202907Y1816365D01*
X3202846Y1816326D01*
X3202801Y1816293D01*
X3202773Y1816271D01*
X3202762Y1816259D01*
X3202690Y1816176D01*
X3202635Y1816087D01*
X3202596Y1815999D01*
X3202574Y1815910D01*
X3202557Y1815838D01*
X3202552Y1815777D01*
X3202546Y1815754D01*
Y1815738D01*
Y1815727D01*
Y1815721D01*
X3202557Y1815599D01*
X3202585Y1815488D01*
X3202618Y1815394D01*
X3202663Y1815310D01*
X3202707Y1815244D01*
X3202740Y1815194D01*
X3202768Y1815161D01*
X3202779Y1815149D01*
X3202868Y1815072D01*
X3202962Y1815016D01*
X3203056Y1814977D01*
X3203145Y1814950D01*
X3203223Y1814933D01*
X3203284Y1814927D01*
X3203306Y1814922D01*
X3203339D01*
X3203439Y1814927D01*
X3203534Y1814950D01*
X3203617Y1814977D01*
X3203684Y1815011D01*
X3203739Y1815038D01*
X3203783Y1815066D01*
X3203806Y1815088D01*
X3203817Y1815094D01*
X3203883Y1815172D01*
X3203939Y1815261D01*
X3203989Y1815355D01*
X3204028Y1815455D01*
X3204055Y1815538D01*
X3204066Y1815577D01*
X3204072Y1815610D01*
X3204078Y1815638D01*
X3204083Y1815660D01*
X3204089Y1815671D01*
Y1815677D01*
X3204560Y1815616D01*
X3204549Y1815527D01*
X3204533Y1815444D01*
X3204483Y1815288D01*
X3204422Y1815155D01*
X3204388Y1815100D01*
X3204355Y1815044D01*
X3204322Y1814994D01*
X3204288Y1814955D01*
X3204261Y1814916D01*
X3204233Y1814889D01*
X3204216Y1814866D01*
X3204200Y1814850D01*
X3204189Y1814839D01*
X3204183Y1814833D01*
X3204116Y1814783D01*
X3204050Y1814733D01*
X3203983Y1814694D01*
X3203911Y1814661D01*
X3203772Y1814606D01*
X3203639Y1814572D01*
X3203578Y1814561D01*
X3203523Y1814550D01*
X3203473Y1814544D01*
X3203428Y1814539D01*
X3203395Y1814533D01*
X3203345D01*
X3203239Y1814539D01*
X3203145Y1814550D01*
X3203051Y1814567D01*
X3202962Y1814589D01*
X3202879Y1814617D01*
X3202807Y1814644D01*
X3202735Y1814678D01*
X3202673Y1814711D01*
X3202613Y1814739D01*
X3202562Y1814772D01*
X3202518Y1814800D01*
X3202485Y1814828D01*
X3202457Y1814850D01*
X3202435Y1814866D01*
X3202424Y1814878D01*
X3202418Y1814883D01*
X3202352Y1814950D01*
X3202296Y1815022D01*
X3202246Y1815094D01*
X3202202Y1815166D01*
X3202169Y1815233D01*
X3202135Y1815305D01*
X3202091Y1815438D01*
X3202080Y1815499D01*
X3202069Y1815555D01*
X3202058Y1815605D01*
X3202052Y1815649D01*
X3202047Y1815682D01*
Y1815710D01*
Y1815727D01*
Y1815732D01*
X3202052Y1815865D01*
X3202074Y1815988D01*
X3202107Y1816093D01*
X3202141Y1816182D01*
X3202174Y1816254D01*
X3202207Y1816309D01*
X3202230Y1816343D01*
X3202235Y1816354D01*
X3202313Y1816437D01*
X3202396Y1816509D01*
X3202485Y1816565D01*
X3202574Y1816609D01*
X3202651Y1816642D01*
X3202712Y1816665D01*
X3202735Y1816670D01*
X3202751Y1816676D01*
X3202762Y1816681D01*
X3202768D01*
X3202673Y1816731D01*
X3202596Y1816781D01*
X3202529Y1816837D01*
X3202474Y1816887D01*
X3202429Y1816931D01*
X3202396Y1816970D01*
X3202379Y1816992D01*
X3202374Y1817003D01*
X3202329Y1817081D01*
X3202296Y1817159D01*
X3202268Y1817236D01*
X3202252Y1817308D01*
X3202241Y1817369D01*
X3202235Y1817414D01*
Y1817447D01*
Y1817458D01*
X3202241Y1817553D01*
X3202257Y1817647D01*
X3202280Y1817730D01*
X3202307Y1817802D01*
X3202335Y1817863D01*
X3202357Y1817913D01*
X3202374Y1817941D01*
X3202379Y1817952D01*
X3202435Y1818036D01*
X3202502Y1818108D01*
X3202568Y1818169D01*
X3202635Y1818224D01*
X3202690Y1818263D01*
X3202740Y1818296D01*
X3202773Y1818313D01*
X3202779Y1818319D01*
X3202784D01*
X3202884Y1818363D01*
X3202984Y1818396D01*
X3203084Y1818424D01*
X3203173Y1818441D01*
X3203245Y1818452D01*
X3203306Y1818457D01*
X3203445D01*
X3203523Y1818446D01*
D02*
G37*
G36*
X3185665Y1930357D02*
X3185759Y1930352D01*
X3185848Y1930335D01*
X3185932Y1930318D01*
X3186009Y1930296D01*
X3186081Y1930274D01*
X3186142Y1930246D01*
X3186198Y1930224D01*
X3186253Y1930196D01*
X3186298Y1930169D01*
X3186331Y1930146D01*
X3186364Y1930124D01*
X3186387Y1930107D01*
X3186403Y1930091D01*
X3186414Y1930085D01*
X3186420Y1930080D01*
X3186470Y1930024D01*
X3186520Y1929969D01*
X3186559Y1929908D01*
X3186592Y1929852D01*
X3186647Y1929730D01*
X3186681Y1929619D01*
X3186703Y1929519D01*
X3186708Y1929475D01*
X3186714Y1929441D01*
X3186720Y1929408D01*
Y1929386D01*
Y1929375D01*
Y1929369D01*
X3186714Y1929275D01*
X3186697Y1929192D01*
X3186681Y1929108D01*
X3186653Y1929042D01*
X3186631Y1928981D01*
X3186614Y1928942D01*
X3186597Y1928914D01*
X3186592Y1928903D01*
X3186536Y1928831D01*
X3186470Y1928764D01*
X3186403Y1928709D01*
X3186331Y1928659D01*
X3186270Y1928626D01*
X3186220Y1928598D01*
X3186187Y1928581D01*
X3186181Y1928576D01*
X3186176D01*
X3186292Y1928515D01*
X3186392Y1928454D01*
X3186475Y1928387D01*
X3186542Y1928320D01*
X3186597Y1928259D01*
X3186636Y1928215D01*
X3186659Y1928182D01*
X3186664Y1928176D01*
Y1928171D01*
X3186714Y1928071D01*
X3186753Y1927971D01*
X3186775Y1927871D01*
X3186797Y1927782D01*
X3186808Y1927710D01*
X3186814Y1927649D01*
Y1927627D01*
Y1927610D01*
Y1927599D01*
Y1927593D01*
X3186808Y1927488D01*
X3186797Y1927394D01*
X3186775Y1927299D01*
X3186747Y1927216D01*
X3186720Y1927133D01*
X3186686Y1927061D01*
X3186647Y1926994D01*
X3186609Y1926933D01*
X3186570Y1926883D01*
X3186531Y1926833D01*
X3186498Y1926794D01*
X3186470Y1926761D01*
X3186442Y1926733D01*
X3186420Y1926716D01*
X3186409Y1926705D01*
X3186403Y1926700D01*
X3186337Y1926650D01*
X3186264Y1926611D01*
X3186192Y1926572D01*
X3186120Y1926544D01*
X3185976Y1926494D01*
X3185837Y1926461D01*
X3185771Y1926450D01*
X3185715Y1926444D01*
X3185665Y1926439D01*
X3185621Y1926433D01*
X3185582Y1926428D01*
X3185532D01*
X3185427Y1926433D01*
X3185332Y1926444D01*
X3185238Y1926461D01*
X3185149Y1926478D01*
X3185071Y1926505D01*
X3184999Y1926533D01*
X3184927Y1926561D01*
X3184866Y1926594D01*
X3184810Y1926628D01*
X3184766Y1926655D01*
X3184722Y1926683D01*
X3184688Y1926711D01*
X3184661Y1926727D01*
X3184644Y1926744D01*
X3184633Y1926755D01*
X3184627Y1926761D01*
X3184566Y1926827D01*
X3184516Y1926894D01*
X3184466Y1926966D01*
X3184427Y1927038D01*
X3184394Y1927110D01*
X3184366Y1927183D01*
X3184328Y1927321D01*
X3184311Y1927382D01*
X3184300Y1927438D01*
X3184294Y1927493D01*
X3184289Y1927538D01*
X3184283Y1927577D01*
Y1927604D01*
Y1927621D01*
Y1927627D01*
X3184289Y1927743D01*
X3184311Y1927849D01*
X3184333Y1927949D01*
X3184366Y1928032D01*
X3184394Y1928098D01*
X3184422Y1928148D01*
X3184444Y1928182D01*
X3184450Y1928193D01*
X3184516Y1928282D01*
X3184594Y1928359D01*
X3184677Y1928426D01*
X3184755Y1928476D01*
X3184827Y1928520D01*
X3184883Y1928554D01*
X3184905Y1928565D01*
X3184921Y1928570D01*
X3184933Y1928576D01*
X3184938D01*
X3184849Y1928620D01*
X3184772Y1928670D01*
X3184705Y1928720D01*
X3184649Y1928775D01*
X3184605Y1928820D01*
X3184577Y1928859D01*
X3184555Y1928881D01*
X3184550Y1928892D01*
X3184500Y1928975D01*
X3184466Y1929059D01*
X3184439Y1929136D01*
X3184422Y1929208D01*
X3184411Y1929275D01*
X3184405Y1929325D01*
Y1929358D01*
Y1929364D01*
Y1929369D01*
X3184411Y1929447D01*
X3184416Y1929525D01*
X3184455Y1929663D01*
X3184500Y1929780D01*
X3184555Y1929885D01*
X3184616Y1929969D01*
X3184638Y1930002D01*
X3184661Y1930030D01*
X3184683Y1930052D01*
X3184699Y1930069D01*
X3184705Y1930074D01*
X3184711Y1930080D01*
X3184772Y1930130D01*
X3184833Y1930174D01*
X3184905Y1930213D01*
X3184971Y1930246D01*
X3185116Y1930296D01*
X3185254Y1930330D01*
X3185316Y1930341D01*
X3185377Y1930346D01*
X3185427Y1930352D01*
X3185476Y1930357D01*
X3185510Y1930363D01*
X3185565D01*
X3185665Y1930357D01*
D02*
G37*
G36*
X3088276Y1742552D02*
X3088371Y1742546D01*
X3088459Y1742529D01*
X3088543Y1742513D01*
X3088620Y1742491D01*
X3088692Y1742468D01*
X3088759Y1742441D01*
X3088820Y1742413D01*
X3088876Y1742385D01*
X3088920Y1742357D01*
X3088959Y1742335D01*
X3088992Y1742313D01*
X3089020Y1742296D01*
X3089037Y1742280D01*
X3089048Y1742274D01*
X3089053Y1742269D01*
X3089109Y1742213D01*
X3089159Y1742152D01*
X3089209Y1742085D01*
X3089247Y1742019D01*
X3089314Y1741886D01*
X3089358Y1741752D01*
X3089375Y1741691D01*
X3089392Y1741630D01*
X3089403Y1741580D01*
X3089414Y1741536D01*
X3089420Y1741497D01*
Y1741470D01*
X3089425Y1741453D01*
Y1741447D01*
X3088942Y1741397D01*
X3088931Y1741525D01*
X3088909Y1741636D01*
X3088876Y1741736D01*
X3088837Y1741814D01*
X3088803Y1741880D01*
X3088770Y1741925D01*
X3088748Y1741952D01*
X3088737Y1741963D01*
X3088654Y1742030D01*
X3088565Y1742080D01*
X3088470Y1742119D01*
X3088387Y1742141D01*
X3088309Y1742158D01*
X3088243Y1742163D01*
X3088221Y1742169D01*
X3088187D01*
X3088071Y1742163D01*
X3087965Y1742141D01*
X3087877Y1742108D01*
X3087799Y1742074D01*
X3087738Y1742036D01*
X3087699Y1742008D01*
X3087671Y1741986D01*
X3087660Y1741974D01*
X3087593Y1741897D01*
X3087543Y1741819D01*
X3087505Y1741741D01*
X3087482Y1741664D01*
X3087466Y1741603D01*
X3087460Y1741547D01*
X3087455Y1741514D01*
Y1741508D01*
Y1741503D01*
X3087466Y1741403D01*
X3087488Y1741297D01*
X3087527Y1741203D01*
X3087566Y1741114D01*
X3087610Y1741042D01*
X3087649Y1740981D01*
X3087660Y1740959D01*
X3087671Y1740942D01*
X3087682Y1740937D01*
Y1740931D01*
X3087727Y1740870D01*
X3087782Y1740809D01*
X3087843Y1740742D01*
X3087910Y1740676D01*
X3088049Y1740543D01*
X3088187Y1740409D01*
X3088260Y1740348D01*
X3088321Y1740293D01*
X3088382Y1740243D01*
X3088432Y1740199D01*
X3088470Y1740165D01*
X3088504Y1740137D01*
X3088526Y1740121D01*
X3088531Y1740115D01*
X3088670Y1739999D01*
X3088798Y1739888D01*
X3088903Y1739788D01*
X3088987Y1739705D01*
X3089059Y1739632D01*
X3089109Y1739582D01*
X3089136Y1739549D01*
X3089148Y1739544D01*
Y1739538D01*
X3089225Y1739444D01*
X3089286Y1739355D01*
X3089342Y1739266D01*
X3089386Y1739188D01*
X3089420Y1739122D01*
X3089442Y1739072D01*
X3089453Y1739039D01*
X3089458Y1739033D01*
Y1739027D01*
X3089481Y1738966D01*
X3089492Y1738911D01*
X3089503Y1738855D01*
X3089508Y1738805D01*
X3089514Y1738761D01*
Y1738728D01*
Y1738705D01*
Y1738700D01*
X3086966D01*
Y1739155D01*
X3088859D01*
X3088792Y1739249D01*
X3088759Y1739288D01*
X3088731Y1739327D01*
X3088704Y1739360D01*
X3088681Y1739383D01*
X3088665Y1739399D01*
X3088659Y1739405D01*
X3088631Y1739433D01*
X3088598Y1739460D01*
X3088520Y1739532D01*
X3088432Y1739616D01*
X3088337Y1739699D01*
X3088248Y1739771D01*
X3088210Y1739804D01*
X3088176Y1739838D01*
X3088148Y1739860D01*
X3088126Y1739877D01*
X3088115Y1739888D01*
X3088110Y1739893D01*
X3088021Y1739971D01*
X3087932Y1740043D01*
X3087854Y1740115D01*
X3087782Y1740176D01*
X3087716Y1740237D01*
X3087660Y1740293D01*
X3087605Y1740343D01*
X3087560Y1740387D01*
X3087516Y1740432D01*
X3087482Y1740465D01*
X3087455Y1740493D01*
X3087427Y1740520D01*
X3087399Y1740554D01*
X3087388Y1740565D01*
X3087310Y1740659D01*
X3087244Y1740742D01*
X3087188Y1740826D01*
X3087144Y1740892D01*
X3087111Y1740953D01*
X3087089Y1740998D01*
X3087077Y1741025D01*
X3087072Y1741036D01*
X3087038Y1741120D01*
X3087016Y1741203D01*
X3086994Y1741281D01*
X3086983Y1741347D01*
X3086977Y1741408D01*
X3086972Y1741453D01*
Y1741480D01*
Y1741492D01*
X3086977Y1741575D01*
X3086989Y1741653D01*
X3087000Y1741730D01*
X3087022Y1741797D01*
X3087077Y1741930D01*
X3087133Y1742036D01*
X3087166Y1742085D01*
X3087194Y1742124D01*
X3087222Y1742163D01*
X3087249Y1742191D01*
X3087272Y1742213D01*
X3087283Y1742235D01*
X3087294Y1742241D01*
X3087299Y1742246D01*
X3087360Y1742302D01*
X3087427Y1742352D01*
X3087499Y1742391D01*
X3087571Y1742424D01*
X3087716Y1742480D01*
X3087860Y1742518D01*
X3087921Y1742529D01*
X3087982Y1742541D01*
X3088037Y1742546D01*
X3088082Y1742552D01*
X3088121Y1742557D01*
X3088176D01*
X3088276Y1742552D01*
D02*
G37*
G36*
X3091390Y1742546D02*
X3091540Y1742518D01*
X3091667Y1742474D01*
X3091778Y1742430D01*
X3091828Y1742402D01*
X3091867Y1742380D01*
X3091906Y1742357D01*
X3091934Y1742335D01*
X3091956Y1742319D01*
X3091973Y1742307D01*
X3091984Y1742302D01*
X3091989Y1742296D01*
X3092095Y1742191D01*
X3092178Y1742074D01*
X3092244Y1741952D01*
X3092300Y1741830D01*
X3092333Y1741725D01*
X3092350Y1741680D01*
X3092361Y1741641D01*
X3092366Y1741608D01*
X3092372Y1741586D01*
X3092378Y1741569D01*
Y1741564D01*
X3091906Y1741480D01*
X3091884Y1741603D01*
X3091850Y1741708D01*
X3091812Y1741797D01*
X3091773Y1741869D01*
X3091734Y1741925D01*
X3091701Y1741963D01*
X3091678Y1741991D01*
X3091673Y1741997D01*
X3091601Y1742052D01*
X3091523Y1742097D01*
X3091451Y1742124D01*
X3091379Y1742146D01*
X3091312Y1742158D01*
X3091262Y1742169D01*
X3091218D01*
X3091118Y1742163D01*
X3091029Y1742141D01*
X3090951Y1742113D01*
X3090885Y1742085D01*
X3090835Y1742052D01*
X3090796Y1742024D01*
X3090768Y1742002D01*
X3090763Y1741997D01*
X3090701Y1741930D01*
X3090657Y1741858D01*
X3090629Y1741786D01*
X3090607Y1741719D01*
X3090596Y1741658D01*
X3090585Y1741614D01*
Y1741580D01*
Y1741575D01*
Y1741569D01*
Y1741508D01*
X3090596Y1741453D01*
X3090624Y1741359D01*
X3090663Y1741275D01*
X3090707Y1741203D01*
X3090751Y1741153D01*
X3090790Y1741114D01*
X3090818Y1741092D01*
X3090824Y1741087D01*
X3090829D01*
X3090924Y1741036D01*
X3091012Y1740998D01*
X3091107Y1740970D01*
X3091190Y1740953D01*
X3091262Y1740942D01*
X3091323Y1740931D01*
X3091395D01*
X3091418Y1740937D01*
X3091445D01*
X3091501Y1740520D01*
X3091429Y1740537D01*
X3091362Y1740548D01*
X3091306Y1740559D01*
X3091257Y1740565D01*
X3091218Y1740570D01*
X3091168D01*
X3091051Y1740559D01*
X3090946Y1740537D01*
X3090851Y1740504D01*
X3090774Y1740465D01*
X3090713Y1740426D01*
X3090668Y1740393D01*
X3090640Y1740371D01*
X3090629Y1740359D01*
X3090557Y1740276D01*
X3090502Y1740187D01*
X3090463Y1740099D01*
X3090441Y1740010D01*
X3090424Y1739938D01*
X3090418Y1739877D01*
X3090413Y1739854D01*
Y1739838D01*
Y1739827D01*
Y1739821D01*
X3090424Y1739699D01*
X3090452Y1739588D01*
X3090485Y1739494D01*
X3090529Y1739410D01*
X3090574Y1739344D01*
X3090607Y1739294D01*
X3090635Y1739261D01*
X3090646Y1739249D01*
X3090735Y1739172D01*
X3090829Y1739116D01*
X3090924Y1739077D01*
X3091012Y1739050D01*
X3091090Y1739033D01*
X3091151Y1739027D01*
X3091173Y1739022D01*
X3091207D01*
X3091306Y1739027D01*
X3091401Y1739050D01*
X3091484Y1739077D01*
X3091551Y1739111D01*
X3091606Y1739138D01*
X3091651Y1739166D01*
X3091673Y1739188D01*
X3091684Y1739194D01*
X3091750Y1739272D01*
X3091806Y1739360D01*
X3091856Y1739455D01*
X3091895Y1739555D01*
X3091923Y1739638D01*
X3091934Y1739677D01*
X3091939Y1739710D01*
X3091945Y1739738D01*
X3091950Y1739760D01*
X3091956Y1739771D01*
Y1739777D01*
X3092427Y1739716D01*
X3092416Y1739627D01*
X3092400Y1739544D01*
X3092350Y1739388D01*
X3092289Y1739255D01*
X3092256Y1739199D01*
X3092222Y1739144D01*
X3092189Y1739094D01*
X3092156Y1739055D01*
X3092128Y1739016D01*
X3092100Y1738989D01*
X3092084Y1738966D01*
X3092067Y1738950D01*
X3092056Y1738939D01*
X3092050Y1738933D01*
X3091984Y1738883D01*
X3091917Y1738833D01*
X3091850Y1738794D01*
X3091778Y1738761D01*
X3091639Y1738705D01*
X3091506Y1738672D01*
X3091445Y1738661D01*
X3091390Y1738650D01*
X3091340Y1738644D01*
X3091295Y1738639D01*
X3091262Y1738633D01*
X3091212D01*
X3091107Y1738639D01*
X3091012Y1738650D01*
X3090918Y1738667D01*
X3090829Y1738689D01*
X3090746Y1738717D01*
X3090674Y1738744D01*
X3090602Y1738778D01*
X3090541Y1738811D01*
X3090479Y1738839D01*
X3090430Y1738872D01*
X3090385Y1738900D01*
X3090352Y1738927D01*
X3090324Y1738950D01*
X3090302Y1738966D01*
X3090291Y1738977D01*
X3090285Y1738983D01*
X3090219Y1739050D01*
X3090163Y1739122D01*
X3090113Y1739194D01*
X3090069Y1739266D01*
X3090035Y1739333D01*
X3090002Y1739405D01*
X3089958Y1739538D01*
X3089947Y1739599D01*
X3089936Y1739655D01*
X3089924Y1739705D01*
X3089919Y1739749D01*
X3089913Y1739782D01*
Y1739810D01*
Y1739827D01*
Y1739832D01*
X3089919Y1739965D01*
X3089941Y1740088D01*
X3089975Y1740193D01*
X3090008Y1740282D01*
X3090041Y1740354D01*
X3090074Y1740409D01*
X3090096Y1740443D01*
X3090102Y1740454D01*
X3090180Y1740537D01*
X3090263Y1740609D01*
X3090352Y1740665D01*
X3090441Y1740709D01*
X3090518Y1740742D01*
X3090579Y1740765D01*
X3090602Y1740770D01*
X3090618Y1740776D01*
X3090629Y1740781D01*
X3090635D01*
X3090541Y1740831D01*
X3090463Y1740881D01*
X3090396Y1740937D01*
X3090341Y1740987D01*
X3090296Y1741031D01*
X3090263Y1741070D01*
X3090246Y1741092D01*
X3090241Y1741103D01*
X3090196Y1741181D01*
X3090163Y1741259D01*
X3090135Y1741336D01*
X3090119Y1741408D01*
X3090108Y1741470D01*
X3090102Y1741514D01*
Y1741547D01*
Y1741558D01*
X3090108Y1741653D01*
X3090124Y1741747D01*
X3090146Y1741830D01*
X3090174Y1741902D01*
X3090202Y1741963D01*
X3090224Y1742013D01*
X3090241Y1742041D01*
X3090246Y1742052D01*
X3090302Y1742135D01*
X3090368Y1742208D01*
X3090435Y1742269D01*
X3090502Y1742324D01*
X3090557Y1742363D01*
X3090607Y1742396D01*
X3090640Y1742413D01*
X3090646Y1742418D01*
X3090652D01*
X3090751Y1742463D01*
X3090851Y1742496D01*
X3090951Y1742524D01*
X3091040Y1742541D01*
X3091112Y1742552D01*
X3091173Y1742557D01*
X3091312D01*
X3091390Y1742546D01*
D02*
G37*
G36*
X3100309Y1738700D02*
X3099820D01*
Y1741969D01*
X3098710Y1738700D01*
X3098255D01*
X3097134Y1741913D01*
Y1738700D01*
X3096646D01*
Y1742541D01*
X3097328D01*
X3098249Y1739865D01*
X3098299Y1739721D01*
X3098338Y1739599D01*
X3098377Y1739494D01*
X3098405Y1739405D01*
X3098427Y1739338D01*
X3098444Y1739288D01*
X3098449Y1739261D01*
X3098455Y1739249D01*
X3098477Y1739327D01*
X3098505Y1739416D01*
X3098538Y1739510D01*
X3098566Y1739605D01*
X3098594Y1739688D01*
X3098616Y1739754D01*
X3098627Y1739782D01*
X3098632Y1739799D01*
X3098638Y1739810D01*
Y1739816D01*
X3099548Y1742541D01*
X3100309D01*
Y1738700D01*
D02*
G37*
G36*
X3086622Y1740054D02*
Y1739621D01*
X3084952D01*
Y1738700D01*
X3084480D01*
Y1739621D01*
X3083958D01*
Y1740054D01*
X3084480D01*
Y1742541D01*
X3084863D01*
X3086622Y1740054D01*
D02*
G37*
G36*
X3103300Y1738700D02*
X3100897D01*
Y1739155D01*
X3102789D01*
Y1742541D01*
X3103300D01*
Y1738700D01*
D02*
G37*
G36*
X3094731D02*
X3094198D01*
X3092699Y1742541D01*
X3093216D01*
X3094259Y1739749D01*
X3094304Y1739632D01*
X3094342Y1739521D01*
X3094376Y1739416D01*
X3094403Y1739322D01*
X3094431Y1739238D01*
X3094448Y1739177D01*
X3094453Y1739155D01*
X3094459Y1739138D01*
X3094464Y1739127D01*
Y1739122D01*
X3094531Y1739344D01*
X3094564Y1739449D01*
X3094598Y1739544D01*
X3094625Y1739627D01*
X3094636Y1739660D01*
X3094642Y1739693D01*
X3094653Y1739716D01*
X3094659Y1739732D01*
X3094664Y1739743D01*
Y1739749D01*
X3095663Y1742541D01*
X3096218D01*
X3094731Y1738700D01*
D02*
G37*
G36*
X3032774Y1756954D02*
Y1756521D01*
X3031103D01*
Y1755600D01*
X3030632D01*
Y1756521D01*
X3030110D01*
Y1756954D01*
X3030632D01*
Y1759441D01*
X3031014D01*
X3032774Y1756954D01*
D02*
G37*
G36*
X3040000Y1755600D02*
X3039462D01*
X3039045Y1756766D01*
X3037436D01*
X3036986Y1755600D01*
X3036409D01*
X3037980Y1759441D01*
X3038535D01*
X3040000Y1755600D01*
D02*
G37*
G36*
X3022545Y1759452D02*
X3022634Y1759441D01*
X3022723Y1759424D01*
X3022800Y1759402D01*
X3022950Y1759341D01*
X3023017Y1759313D01*
X3023072Y1759280D01*
X3023128Y1759241D01*
X3023172Y1759213D01*
X3023217Y1759180D01*
X3023250Y1759152D01*
X3023278Y1759130D01*
X3023294Y1759113D01*
X3023306Y1759102D01*
X3023311Y1759097D01*
X3023372Y1759030D01*
X3023422Y1758952D01*
X3023472Y1758880D01*
X3023511Y1758802D01*
X3023544Y1758719D01*
X3023572Y1758641D01*
X3023611Y1758497D01*
X3023627Y1758425D01*
X3023639Y1758364D01*
X3023644Y1758303D01*
X3023650Y1758253D01*
X3023655Y1758214D01*
Y1758186D01*
Y1758164D01*
Y1758159D01*
X3023650Y1758053D01*
X3023639Y1757959D01*
X3023627Y1757864D01*
X3023605Y1757776D01*
X3023577Y1757698D01*
X3023550Y1757620D01*
X3023522Y1757554D01*
X3023489Y1757493D01*
X3023461Y1757437D01*
X3023433Y1757387D01*
X3023405Y1757348D01*
X3023378Y1757309D01*
X3023355Y1757282D01*
X3023344Y1757265D01*
X3023333Y1757254D01*
X3023328Y1757248D01*
X3023267Y1757187D01*
X3023200Y1757137D01*
X3023134Y1757087D01*
X3023061Y1757048D01*
X3022995Y1757015D01*
X3022928Y1756988D01*
X3022800Y1756949D01*
X3022745Y1756932D01*
X3022689Y1756921D01*
X3022645Y1756915D01*
X3022601Y1756910D01*
X3022568Y1756904D01*
X3022523D01*
X3022418Y1756910D01*
X3022318Y1756927D01*
X3022229Y1756949D01*
X3022146Y1756976D01*
X3022085Y1756999D01*
X3022035Y1757021D01*
X3022001Y1757038D01*
X3021990Y1757043D01*
X3021902Y1757099D01*
X3021824Y1757159D01*
X3021757Y1757221D01*
X3021702Y1757276D01*
X3021663Y1757332D01*
X3021630Y1757370D01*
X3021607Y1757398D01*
X3021602Y1757409D01*
Y1757365D01*
Y1757337D01*
Y1757321D01*
Y1757315D01*
X3021607Y1757204D01*
X3021613Y1757099D01*
X3021624Y1757004D01*
X3021635Y1756915D01*
X3021652Y1756843D01*
X3021663Y1756788D01*
X3021668Y1756766D01*
Y1756749D01*
X3021674Y1756743D01*
Y1756738D01*
X3021702Y1756638D01*
X3021729Y1756549D01*
X3021757Y1756471D01*
X3021785Y1756405D01*
X3021807Y1756355D01*
X3021829Y1756316D01*
X3021840Y1756288D01*
X3021846Y1756283D01*
X3021890Y1756222D01*
X3021935Y1756172D01*
X3021979Y1756127D01*
X3022024Y1756088D01*
X3022057Y1756055D01*
X3022090Y1756033D01*
X3022112Y1756022D01*
X3022118Y1756016D01*
X3022179Y1755983D01*
X3022246Y1755961D01*
X3022307Y1755944D01*
X3022368Y1755933D01*
X3022418Y1755927D01*
X3022457Y1755922D01*
X3022495D01*
X3022584Y1755927D01*
X3022667Y1755944D01*
X3022739Y1755966D01*
X3022800Y1755994D01*
X3022845Y1756016D01*
X3022884Y1756038D01*
X3022906Y1756055D01*
X3022911Y1756061D01*
X3022967Y1756122D01*
X3023011Y1756194D01*
X3023050Y1756272D01*
X3023078Y1756349D01*
X3023100Y1756416D01*
X3023117Y1756477D01*
X3023122Y1756499D01*
Y1756510D01*
X3023128Y1756521D01*
Y1756527D01*
X3023583Y1756488D01*
X3023550Y1756327D01*
X3023505Y1756188D01*
X3023450Y1756066D01*
X3023394Y1755966D01*
X3023339Y1755889D01*
X3023311Y1755855D01*
X3023289Y1755828D01*
X3023272Y1755811D01*
X3023256Y1755794D01*
X3023250Y1755789D01*
X3023245Y1755783D01*
X3023189Y1755739D01*
X3023128Y1755700D01*
X3023006Y1755639D01*
X3022884Y1755594D01*
X3022767Y1755567D01*
X3022662Y1755544D01*
X3022617Y1755539D01*
X3022579D01*
X3022551Y1755533D01*
X3022506D01*
X3022351Y1755544D01*
X3022212Y1755567D01*
X3022085Y1755606D01*
X3021979Y1755650D01*
X3021935Y1755667D01*
X3021890Y1755689D01*
X3021857Y1755711D01*
X3021824Y1755728D01*
X3021802Y1755739D01*
X3021785Y1755750D01*
X3021774Y1755761D01*
X3021768D01*
X3021657Y1755855D01*
X3021557Y1755961D01*
X3021480Y1756072D01*
X3021413Y1756177D01*
X3021358Y1756272D01*
X3021335Y1756316D01*
X3021319Y1756349D01*
X3021308Y1756383D01*
X3021297Y1756405D01*
X3021291Y1756416D01*
Y1756421D01*
X3021263Y1756505D01*
X3021235Y1756599D01*
X3021197Y1756788D01*
X3021169Y1756988D01*
X3021152Y1757176D01*
X3021141Y1757259D01*
X3021136Y1757343D01*
Y1757415D01*
X3021130Y1757476D01*
Y1757526D01*
Y1757565D01*
Y1757593D01*
Y1757598D01*
Y1757726D01*
X3021136Y1757848D01*
X3021147Y1757959D01*
X3021158Y1758064D01*
X3021169Y1758159D01*
X3021180Y1758247D01*
X3021197Y1758331D01*
X3021213Y1758403D01*
X3021230Y1758464D01*
X3021241Y1758519D01*
X3021258Y1758569D01*
X3021269Y1758608D01*
X3021280Y1758636D01*
X3021291Y1758658D01*
X3021297Y1758669D01*
Y1758675D01*
X3021363Y1758808D01*
X3021435Y1758924D01*
X3021519Y1759024D01*
X3021591Y1759108D01*
X3021663Y1759169D01*
X3021718Y1759213D01*
X3021741Y1759230D01*
X3021757Y1759241D01*
X3021763Y1759252D01*
X3021768D01*
X3021885Y1759319D01*
X3022001Y1759368D01*
X3022118Y1759407D01*
X3022223Y1759430D01*
X3022318Y1759446D01*
X3022357Y1759452D01*
X3022384D01*
X3022412Y1759457D01*
X3022451D01*
X3022545Y1759452D01*
D02*
G37*
G36*
X2963905Y1722562D02*
Y1720508D01*
X2954300Y1716788D01*
Y1718843D01*
X2956479Y1719634D01*
Y1723492D01*
X2954300Y1724325D01*
Y1726421D01*
X2963905Y1722562D01*
D02*
G37*
G36*
X2976953Y1724414D02*
X2972105Y1722814D01*
X2976953Y1721147D01*
Y1719717D01*
X2970400Y1722066D01*
Y1723496D01*
X2976953Y1725826D01*
Y1724414D01*
D02*
G37*
G36*
X2963905Y1712874D02*
Y1710820D01*
X2954300Y1707100D01*
Y1709154D01*
X2956479Y1709945D01*
Y1713804D01*
X2954300Y1714637D01*
Y1716733D01*
X2963905Y1712874D01*
D02*
G37*
G36*
X3195661Y1928287D02*
X3195067Y1928204D01*
X3195017Y1928254D01*
X3194967Y1928298D01*
X3194917Y1928337D01*
X3194867Y1928370D01*
X3194773Y1928420D01*
X3194684Y1928454D01*
X3194606Y1928470D01*
X3194551Y1928481D01*
X3194529Y1928487D01*
X3194495D01*
X3194406Y1928481D01*
X3194323Y1928459D01*
X3194251Y1928431D01*
X3194190Y1928398D01*
X3194146Y1928359D01*
X3194107Y1928332D01*
X3194084Y1928309D01*
X3194079Y1928304D01*
X3194023Y1928232D01*
X3193984Y1928148D01*
X3193957Y1928060D01*
X3193940Y1927971D01*
X3193924Y1927893D01*
X3193918Y1927832D01*
Y1927804D01*
Y1927788D01*
Y1927777D01*
Y1927771D01*
X3193924Y1927638D01*
X3193940Y1927521D01*
X3193968Y1927427D01*
X3193996Y1927349D01*
X3194029Y1927283D01*
X3194051Y1927238D01*
X3194073Y1927216D01*
X3194079Y1927205D01*
X3194140Y1927144D01*
X3194207Y1927094D01*
X3194273Y1927061D01*
X3194334Y1927038D01*
X3194390Y1927027D01*
X3194434Y1927022D01*
X3194462Y1927016D01*
X3194473D01*
X3194545Y1927022D01*
X3194617Y1927038D01*
X3194678Y1927061D01*
X3194728Y1927088D01*
X3194773Y1927116D01*
X3194806Y1927138D01*
X3194828Y1927155D01*
X3194834Y1927160D01*
X3194884Y1927221D01*
X3194928Y1927283D01*
X3194961Y1927349D01*
X3194984Y1927410D01*
X3195000Y1927466D01*
X3195011Y1927516D01*
X3195017Y1927543D01*
Y1927555D01*
X3195749Y1927477D01*
X3195733Y1927388D01*
X3195716Y1927305D01*
X3195661Y1927155D01*
X3195600Y1927022D01*
X3195566Y1926966D01*
X3195527Y1926911D01*
X3195494Y1926866D01*
X3195466Y1926827D01*
X3195433Y1926794D01*
X3195411Y1926761D01*
X3195389Y1926739D01*
X3195372Y1926722D01*
X3195361Y1926716D01*
X3195355Y1926711D01*
X3195289Y1926661D01*
X3195222Y1926616D01*
X3195150Y1926578D01*
X3195078Y1926550D01*
X3194928Y1926494D01*
X3194795Y1926461D01*
X3194728Y1926450D01*
X3194673Y1926444D01*
X3194617Y1926439D01*
X3194573Y1926433D01*
X3194534Y1926428D01*
X3194484D01*
X3194362Y1926433D01*
X3194245Y1926450D01*
X3194140Y1926472D01*
X3194040Y1926505D01*
X3193946Y1926544D01*
X3193863Y1926589D01*
X3193785Y1926633D01*
X3193713Y1926683D01*
X3193652Y1926727D01*
X3193596Y1926772D01*
X3193546Y1926816D01*
X3193507Y1926855D01*
X3193480Y1926888D01*
X3193457Y1926911D01*
X3193446Y1926927D01*
X3193441Y1926933D01*
X3193391Y1927005D01*
X3193346Y1927077D01*
X3193313Y1927149D01*
X3193280Y1927227D01*
X3193230Y1927371D01*
X3193196Y1927505D01*
X3193185Y1927560D01*
X3193180Y1927616D01*
X3193169Y1927666D01*
Y1927710D01*
X3193163Y1927743D01*
Y1927765D01*
Y1927782D01*
Y1927788D01*
X3193169Y1927893D01*
X3193180Y1927993D01*
X3193196Y1928087D01*
X3193219Y1928176D01*
X3193241Y1928254D01*
X3193274Y1928332D01*
X3193302Y1928404D01*
X3193335Y1928465D01*
X3193369Y1928520D01*
X3193396Y1928570D01*
X3193430Y1928614D01*
X3193452Y1928648D01*
X3193474Y1928676D01*
X3193491Y1928698D01*
X3193502Y1928709D01*
X3193507Y1928714D01*
X3193574Y1928775D01*
X3193641Y1928831D01*
X3193713Y1928881D01*
X3193785Y1928925D01*
X3193851Y1928959D01*
X3193924Y1928986D01*
X3194051Y1929031D01*
X3194112Y1929048D01*
X3194168Y1929059D01*
X3194218Y1929064D01*
X3194257Y1929070D01*
X3194290Y1929075D01*
X3194340D01*
X3194434Y1929070D01*
X3194529Y1929053D01*
X3194612Y1929036D01*
X3194689Y1929014D01*
X3194750Y1928986D01*
X3194800Y1928970D01*
X3194834Y1928953D01*
X3194839Y1928948D01*
X3194845D01*
X3194728Y1929602D01*
X3193335D01*
Y1930291D01*
X3195283D01*
X3195661Y1928287D01*
D02*
G37*
G36*
X3197958Y1930407D02*
X3198103Y1930391D01*
X3198230Y1930363D01*
X3198358Y1930330D01*
X3198469Y1930291D01*
X3198580Y1930246D01*
X3198674Y1930196D01*
X3198763Y1930146D01*
X3198846Y1930096D01*
X3198913Y1930046D01*
X3198974Y1930002D01*
X3199024Y1929963D01*
X3199063Y1929930D01*
X3199091Y1929902D01*
X3199107Y1929885D01*
X3199113Y1929880D01*
X3199202Y1929774D01*
X3199274Y1929663D01*
X3199340Y1929547D01*
X3199396Y1929425D01*
X3199446Y1929297D01*
X3199485Y1929175D01*
X3199518Y1929053D01*
X3199546Y1928936D01*
X3199568Y1928820D01*
X3199579Y1928720D01*
X3199590Y1928626D01*
X3199601Y1928548D01*
Y1928481D01*
X3199607Y1928431D01*
Y1928398D01*
Y1928393D01*
Y1928387D01*
X3199601Y1928221D01*
X3199585Y1928065D01*
X3199562Y1927915D01*
X3199529Y1927782D01*
X3199496Y1927654D01*
X3199451Y1927532D01*
X3199407Y1927427D01*
X3199363Y1927332D01*
X3199318Y1927244D01*
X3199274Y1927166D01*
X3199229Y1927105D01*
X3199196Y1927049D01*
X3199163Y1927011D01*
X3199141Y1926977D01*
X3199124Y1926961D01*
X3199118Y1926955D01*
X3199024Y1926861D01*
X3198924Y1926783D01*
X3198819Y1926711D01*
X3198713Y1926655D01*
X3198608Y1926605D01*
X3198502Y1926561D01*
X3198402Y1926528D01*
X3198308Y1926500D01*
X3198214Y1926478D01*
X3198130Y1926461D01*
X3198053Y1926450D01*
X3197992Y1926444D01*
X3197936Y1926439D01*
X3197897Y1926433D01*
X3197864D01*
X3197747Y1926439D01*
X3197642Y1926444D01*
X3197536Y1926461D01*
X3197442Y1926483D01*
X3197353Y1926505D01*
X3197270Y1926528D01*
X3197193Y1926555D01*
X3197120Y1926589D01*
X3197059Y1926616D01*
X3197004Y1926644D01*
X3196954Y1926666D01*
X3196915Y1926689D01*
X3196882Y1926711D01*
X3196859Y1926727D01*
X3196848Y1926733D01*
X3196843Y1926739D01*
X3196771Y1926800D01*
X3196704Y1926866D01*
X3196582Y1927016D01*
X3196482Y1927172D01*
X3196404Y1927321D01*
X3196371Y1927394D01*
X3196343Y1927460D01*
X3196321Y1927521D01*
X3196299Y1927571D01*
X3196282Y1927616D01*
X3196271Y1927649D01*
X3196266Y1927671D01*
Y1927677D01*
X3197020Y1927910D01*
X3197065Y1927760D01*
X3197115Y1927632D01*
X3197165Y1927527D01*
X3197220Y1927438D01*
X3197265Y1927371D01*
X3197304Y1927327D01*
X3197331Y1927299D01*
X3197342Y1927288D01*
X3197431Y1927221D01*
X3197520Y1927177D01*
X3197609Y1927144D01*
X3197686Y1927116D01*
X3197759Y1927105D01*
X3197820Y1927099D01*
X3197842Y1927094D01*
X3197870D01*
X3197947Y1927099D01*
X3198019Y1927105D01*
X3198153Y1927144D01*
X3198269Y1927188D01*
X3198363Y1927249D01*
X3198441Y1927305D01*
X3198497Y1927349D01*
X3198519Y1927371D01*
X3198536Y1927388D01*
X3198541Y1927394D01*
X3198547Y1927399D01*
X3198591Y1927460D01*
X3198630Y1927532D01*
X3198669Y1927610D01*
X3198697Y1927693D01*
X3198741Y1927865D01*
X3198774Y1928037D01*
X3198785Y1928121D01*
X3198791Y1928193D01*
X3198802Y1928265D01*
Y1928326D01*
X3198808Y1928370D01*
Y1928409D01*
Y1928437D01*
Y1928443D01*
X3198802Y1928570D01*
X3198796Y1928687D01*
X3198785Y1928792D01*
X3198769Y1928892D01*
X3198746Y1928981D01*
X3198724Y1929064D01*
X3198702Y1929136D01*
X3198674Y1929203D01*
X3198652Y1929258D01*
X3198630Y1929308D01*
X3198608Y1929347D01*
X3198586Y1929380D01*
X3198569Y1929408D01*
X3198558Y1929425D01*
X3198547Y1929436D01*
Y1929441D01*
X3198497Y1929497D01*
X3198441Y1929547D01*
X3198386Y1929586D01*
X3198325Y1929619D01*
X3198208Y1929675D01*
X3198097Y1929713D01*
X3198003Y1929736D01*
X3197958Y1929741D01*
X3197925Y1929747D01*
X3197892Y1929752D01*
X3197853D01*
X3197742Y1929747D01*
X3197642Y1929725D01*
X3197553Y1929697D01*
X3197475Y1929663D01*
X3197414Y1929630D01*
X3197370Y1929602D01*
X3197342Y1929580D01*
X3197331Y1929575D01*
X3197259Y1929508D01*
X3197193Y1929430D01*
X3197142Y1929353D01*
X3197104Y1929275D01*
X3197076Y1929208D01*
X3197059Y1929159D01*
X3197048Y1929136D01*
Y1929120D01*
X3197043Y1929114D01*
Y1929108D01*
X3196277Y1929292D01*
X3196332Y1929453D01*
X3196393Y1929591D01*
X3196460Y1929713D01*
X3196521Y1929813D01*
X3196582Y1929891D01*
X3196604Y1929924D01*
X3196626Y1929952D01*
X3196643Y1929969D01*
X3196660Y1929985D01*
X3196665Y1929996D01*
X3196671D01*
X3196754Y1930069D01*
X3196848Y1930135D01*
X3196937Y1930191D01*
X3197032Y1930235D01*
X3197131Y1930280D01*
X3197226Y1930313D01*
X3197320Y1930341D01*
X3197409Y1930363D01*
X3197492Y1930379D01*
X3197570Y1930391D01*
X3197636Y1930402D01*
X3197697Y1930407D01*
X3197747Y1930413D01*
X3197814D01*
X3197958Y1930407D01*
D02*
G37*
G36*
X3036021Y1755600D02*
X3035510D01*
Y1756932D01*
X3034883Y1757537D01*
X3033518Y1755600D01*
X3032846D01*
X3034528Y1757881D01*
X3032918Y1759441D01*
X3033612D01*
X3035510Y1757531D01*
Y1759441D01*
X3036021D01*
Y1755600D01*
D02*
G37*
G36*
X3191703Y1930357D02*
X3191792Y1930346D01*
X3191881Y1930330D01*
X3191964Y1930307D01*
X3192042Y1930280D01*
X3192114Y1930246D01*
X3192186Y1930219D01*
X3192242Y1930185D01*
X3192297Y1930146D01*
X3192347Y1930119D01*
X3192386Y1930085D01*
X3192425Y1930058D01*
X3192453Y1930035D01*
X3192469Y1930019D01*
X3192480Y1930008D01*
X3192486Y1930002D01*
X3192547Y1929930D01*
X3192597Y1929858D01*
X3192647Y1929780D01*
X3192686Y1929702D01*
X3192719Y1929625D01*
X3192747Y1929541D01*
X3192786Y1929391D01*
X3192802Y1929325D01*
X3192813Y1929258D01*
X3192819Y1929203D01*
X3192825Y1929153D01*
X3192830Y1929108D01*
Y1929081D01*
Y1929059D01*
Y1929053D01*
X3192825Y1928953D01*
X3192813Y1928853D01*
X3192802Y1928759D01*
X3192780Y1928676D01*
X3192752Y1928592D01*
X3192725Y1928520D01*
X3192697Y1928448D01*
X3192664Y1928387D01*
X3192636Y1928332D01*
X3192608Y1928282D01*
X3192580Y1928243D01*
X3192553Y1928204D01*
X3192530Y1928182D01*
X3192519Y1928159D01*
X3192508Y1928148D01*
X3192503Y1928143D01*
X3192442Y1928082D01*
X3192375Y1928026D01*
X3192308Y1927982D01*
X3192242Y1927943D01*
X3192175Y1927910D01*
X3192114Y1927876D01*
X3191992Y1927838D01*
X3191887Y1927810D01*
X3191842Y1927804D01*
X3191803Y1927799D01*
X3191770Y1927793D01*
X3191726D01*
X3191648Y1927799D01*
X3191576Y1927810D01*
X3191509Y1927821D01*
X3191443Y1927843D01*
X3191321Y1927893D01*
X3191221Y1927954D01*
X3191143Y1928015D01*
X3191110Y1928043D01*
X3191082Y1928065D01*
X3191060Y1928087D01*
X3191043Y1928104D01*
X3191038Y1928110D01*
X3191032Y1928115D01*
X3191043Y1927999D01*
X3191054Y1927888D01*
X3191065Y1927788D01*
X3191082Y1927699D01*
X3191099Y1927621D01*
X3191115Y1927549D01*
X3191132Y1927488D01*
X3191149Y1927432D01*
X3191171Y1927382D01*
X3191182Y1927344D01*
X3191198Y1927310D01*
X3191209Y1927288D01*
X3191221Y1927266D01*
X3191232Y1927255D01*
X3191237Y1927244D01*
X3191298Y1927177D01*
X3191365Y1927127D01*
X3191426Y1927088D01*
X3191487Y1927066D01*
X3191543Y1927049D01*
X3191581Y1927044D01*
X3191609Y1927038D01*
X3191620D01*
X3191681Y1927044D01*
X3191742Y1927055D01*
X3191787Y1927072D01*
X3191831Y1927088D01*
X3191864Y1927105D01*
X3191887Y1927122D01*
X3191903Y1927133D01*
X3191909Y1927138D01*
X3191948Y1927183D01*
X3191975Y1927233D01*
X3191998Y1927288D01*
X3192014Y1927344D01*
X3192031Y1927388D01*
X3192036Y1927427D01*
X3192042Y1927455D01*
Y1927466D01*
X3192752Y1927382D01*
X3192736Y1927294D01*
X3192714Y1927216D01*
X3192691Y1927138D01*
X3192664Y1927072D01*
X3192636Y1927005D01*
X3192608Y1926944D01*
X3192575Y1926894D01*
X3192547Y1926844D01*
X3192514Y1926805D01*
X3192492Y1926766D01*
X3192464Y1926739D01*
X3192442Y1926711D01*
X3192425Y1926694D01*
X3192408Y1926678D01*
X3192403Y1926672D01*
X3192397Y1926666D01*
X3192342Y1926622D01*
X3192286Y1926589D01*
X3192164Y1926528D01*
X3192048Y1926489D01*
X3191931Y1926456D01*
X3191826Y1926439D01*
X3191781Y1926433D01*
X3191742D01*
X3191715Y1926428D01*
X3191670D01*
X3191554Y1926433D01*
X3191448Y1926450D01*
X3191348Y1926472D01*
X3191248Y1926500D01*
X3191160Y1926539D01*
X3191076Y1926578D01*
X3190999Y1926616D01*
X3190932Y1926661D01*
X3190871Y1926705D01*
X3190816Y1926744D01*
X3190771Y1926789D01*
X3190732Y1926822D01*
X3190699Y1926850D01*
X3190677Y1926872D01*
X3190666Y1926888D01*
X3190660Y1926894D01*
X3190588Y1926988D01*
X3190532Y1927094D01*
X3190477Y1927210D01*
X3190433Y1927327D01*
X3190394Y1927455D01*
X3190360Y1927582D01*
X3190338Y1927704D01*
X3190316Y1927832D01*
X3190299Y1927949D01*
X3190288Y1928054D01*
X3190277Y1928154D01*
X3190272Y1928243D01*
X3190266Y1928315D01*
Y1928370D01*
Y1928387D01*
Y1928404D01*
Y1928409D01*
Y1928415D01*
X3190272Y1928604D01*
X3190283Y1928775D01*
X3190299Y1928936D01*
X3190327Y1929086D01*
X3190355Y1929219D01*
X3190383Y1929342D01*
X3190421Y1929453D01*
X3190455Y1929552D01*
X3190488Y1929636D01*
X3190521Y1929708D01*
X3190555Y1929769D01*
X3190582Y1929819D01*
X3190610Y1929858D01*
X3190627Y1929885D01*
X3190638Y1929902D01*
X3190643Y1929908D01*
X3190716Y1929985D01*
X3190793Y1930058D01*
X3190871Y1930119D01*
X3190949Y1930169D01*
X3191032Y1930213D01*
X3191110Y1930252D01*
X3191187Y1930280D01*
X3191265Y1930307D01*
X3191332Y1930324D01*
X3191398Y1930341D01*
X3191454Y1930352D01*
X3191504Y1930357D01*
X3191548D01*
X3191576Y1930363D01*
X3191604D01*
X3191703Y1930357D01*
D02*
G37*
G36*
X3025226Y1759363D02*
X3025287Y1759274D01*
X3025359Y1759185D01*
X3025426Y1759108D01*
X3025492Y1759041D01*
X3025542Y1758986D01*
X3025564Y1758969D01*
X3025581Y1758952D01*
X3025587Y1758947D01*
X3025592Y1758941D01*
X3025709Y1758847D01*
X3025825Y1758758D01*
X3025936Y1758680D01*
X3026047Y1758619D01*
X3026142Y1758564D01*
X3026180Y1758541D01*
X3026214Y1758525D01*
X3026241Y1758508D01*
X3026264Y1758503D01*
X3026275Y1758492D01*
X3026280D01*
Y1758036D01*
X3026197Y1758070D01*
X3026114Y1758109D01*
X3026031Y1758147D01*
X3025953Y1758186D01*
X3025886Y1758220D01*
X3025831Y1758247D01*
X3025798Y1758270D01*
X3025792Y1758275D01*
X3025786D01*
X3025686Y1758336D01*
X3025598Y1758397D01*
X3025520Y1758453D01*
X3025459Y1758503D01*
X3025404Y1758541D01*
X3025370Y1758575D01*
X3025343Y1758597D01*
X3025337Y1758603D01*
Y1755600D01*
X3024865D01*
Y1759457D01*
X3025170D01*
X3025226Y1759363D01*
D02*
G37*
G36*
X3028378Y1759452D02*
X3028484Y1759441D01*
X3028584Y1759418D01*
X3028678Y1759391D01*
X3028761Y1759352D01*
X3028844Y1759319D01*
X3028917Y1759274D01*
X3028983Y1759235D01*
X3029039Y1759196D01*
X3029094Y1759152D01*
X3029139Y1759119D01*
X3029172Y1759085D01*
X3029200Y1759052D01*
X3029222Y1759030D01*
X3029233Y1759019D01*
X3029239Y1759013D01*
X3029311Y1758913D01*
X3029372Y1758797D01*
X3029427Y1758675D01*
X3029477Y1758547D01*
X3029516Y1758414D01*
X3029549Y1758281D01*
X3029577Y1758142D01*
X3029599Y1758014D01*
X3029616Y1757887D01*
X3029627Y1757770D01*
X3029638Y1757665D01*
X3029644Y1757576D01*
Y1757498D01*
X3029649Y1757443D01*
Y1757420D01*
Y1757404D01*
Y1757398D01*
Y1757393D01*
X3029644Y1757215D01*
X3029633Y1757048D01*
X3029616Y1756893D01*
X3029588Y1756749D01*
X3029560Y1756621D01*
X3029533Y1756505D01*
X3029499Y1756399D01*
X3029461Y1756305D01*
X3029427Y1756227D01*
X3029394Y1756155D01*
X3029366Y1756100D01*
X3029333Y1756050D01*
X3029311Y1756011D01*
X3029294Y1755989D01*
X3029283Y1755972D01*
X3029277Y1755966D01*
X3029205Y1755889D01*
X3029128Y1755822D01*
X3029050Y1755766D01*
X3028972Y1755717D01*
X3028889Y1755672D01*
X3028811Y1755639D01*
X3028733Y1755611D01*
X3028656Y1755589D01*
X3028589Y1755572D01*
X3028523Y1755556D01*
X3028467Y1755544D01*
X3028417Y1755539D01*
X3028373D01*
X3028345Y1755533D01*
X3028317D01*
X3028190Y1755539D01*
X3028073Y1755561D01*
X3027968Y1755583D01*
X3027873Y1755617D01*
X3027801Y1755644D01*
X3027746Y1755672D01*
X3027723Y1755678D01*
X3027707Y1755689D01*
X3027701Y1755694D01*
X3027696D01*
X3027601Y1755761D01*
X3027513Y1755839D01*
X3027440Y1755916D01*
X3027379Y1755994D01*
X3027329Y1756066D01*
X3027296Y1756122D01*
X3027285Y1756144D01*
X3027274Y1756161D01*
X3027268Y1756166D01*
Y1756172D01*
X3027213Y1756288D01*
X3027174Y1756410D01*
X3027146Y1756521D01*
X3027130Y1756627D01*
X3027113Y1756716D01*
Y1756749D01*
X3027107Y1756782D01*
Y1756810D01*
Y1756827D01*
Y1756838D01*
Y1756843D01*
X3027113Y1756943D01*
X3027124Y1757038D01*
X3027141Y1757132D01*
X3027157Y1757215D01*
X3027185Y1757293D01*
X3027213Y1757370D01*
X3027241Y1757437D01*
X3027274Y1757498D01*
X3027307Y1757554D01*
X3027335Y1757604D01*
X3027363Y1757642D01*
X3027390Y1757681D01*
X3027407Y1757709D01*
X3027424Y1757726D01*
X3027435Y1757737D01*
X3027440Y1757742D01*
X3027501Y1757803D01*
X3027568Y1757859D01*
X3027640Y1757903D01*
X3027707Y1757942D01*
X3027773Y1757981D01*
X3027840Y1758009D01*
X3027968Y1758048D01*
X3028023Y1758064D01*
X3028079Y1758075D01*
X3028123Y1758081D01*
X3028167Y1758086D01*
X3028201Y1758092D01*
X3028245D01*
X3028345Y1758086D01*
X3028439Y1758070D01*
X3028528Y1758053D01*
X3028606Y1758031D01*
X3028672Y1758003D01*
X3028722Y1757986D01*
X3028756Y1757970D01*
X3028761Y1757964D01*
X3028767D01*
X3028856Y1757909D01*
X3028933Y1757848D01*
X3029005Y1757787D01*
X3029061Y1757720D01*
X3029111Y1757665D01*
X3029150Y1757620D01*
X3029172Y1757587D01*
X3029177Y1757581D01*
Y1757681D01*
X3029172Y1757781D01*
X3029166Y1757870D01*
X3029155Y1757959D01*
X3029150Y1758036D01*
X3029139Y1758109D01*
X3029128Y1758175D01*
X3029111Y1758236D01*
X3029100Y1758292D01*
X3029089Y1758336D01*
X3029078Y1758375D01*
X3029072Y1758408D01*
X3029061Y1758430D01*
X3029055Y1758447D01*
X3029050Y1758458D01*
Y1758464D01*
X3028994Y1758575D01*
X3028939Y1758675D01*
X3028878Y1758752D01*
X3028822Y1758819D01*
X3028772Y1758875D01*
X3028733Y1758913D01*
X3028706Y1758936D01*
X3028695Y1758941D01*
X3028628Y1758986D01*
X3028561Y1759013D01*
X3028495Y1759035D01*
X3028428Y1759052D01*
X3028378Y1759063D01*
X3028334Y1759069D01*
X3028295D01*
X3028195Y1759058D01*
X3028101Y1759035D01*
X3028023Y1759002D01*
X3027951Y1758969D01*
X3027895Y1758930D01*
X3027857Y1758897D01*
X3027834Y1758875D01*
X3027823Y1758863D01*
X3027784Y1758813D01*
X3027746Y1758752D01*
X3027712Y1758686D01*
X3027690Y1758619D01*
X3027668Y1758558D01*
X3027651Y1758508D01*
X3027646Y1758475D01*
X3027640Y1758469D01*
Y1758464D01*
X3027168Y1758503D01*
X3027202Y1758658D01*
X3027252Y1758797D01*
X3027307Y1758919D01*
X3027368Y1759019D01*
X3027429Y1759097D01*
X3027452Y1759130D01*
X3027479Y1759158D01*
X3027496Y1759174D01*
X3027513Y1759191D01*
X3027518Y1759196D01*
X3027524Y1759202D01*
X3027579Y1759246D01*
X3027640Y1759285D01*
X3027762Y1759352D01*
X3027884Y1759396D01*
X3028001Y1759424D01*
X3028106Y1759446D01*
X3028151Y1759452D01*
X3028190D01*
X3028223Y1759457D01*
X3028267D01*
X3028378Y1759452D01*
D02*
G37*
%LPC*%
G36*
X3185599Y1928265D02*
X3185554D01*
X3185471Y1928259D01*
X3185393Y1928237D01*
X3185327Y1928215D01*
X3185271Y1928182D01*
X3185227Y1928154D01*
X3185193Y1928126D01*
X3185171Y1928104D01*
X3185166Y1928098D01*
X3185116Y1928032D01*
X3185077Y1927960D01*
X3185049Y1927888D01*
X3185027Y1927815D01*
X3185016Y1927754D01*
X3185010Y1927704D01*
Y1927671D01*
Y1927666D01*
Y1927660D01*
X3185016Y1927549D01*
X3185032Y1927455D01*
X3185060Y1927371D01*
X3185088Y1927305D01*
X3185116Y1927249D01*
X3185143Y1927216D01*
X3185160Y1927188D01*
X3185166Y1927183D01*
X3185227Y1927127D01*
X3185288Y1927088D01*
X3185349Y1927061D01*
X3185410Y1927044D01*
X3185465Y1927033D01*
X3185504Y1927022D01*
X3185543D01*
X3185626Y1927027D01*
X3185704Y1927049D01*
X3185771Y1927077D01*
X3185826Y1927105D01*
X3185870Y1927138D01*
X3185904Y1927160D01*
X3185926Y1927183D01*
X3185932Y1927188D01*
X3185982Y1927260D01*
X3186020Y1927338D01*
X3186048Y1927416D01*
X3186065Y1927493D01*
X3186076Y1927566D01*
X3186087Y1927621D01*
Y1927643D01*
Y1927660D01*
Y1927666D01*
Y1927671D01*
X3186081Y1927749D01*
X3186065Y1927826D01*
X3186048Y1927893D01*
X3186020Y1927954D01*
X3185998Y1928004D01*
X3185982Y1928043D01*
X3185965Y1928065D01*
X3185959Y1928076D01*
X3185904Y1928137D01*
X3185837Y1928187D01*
X3185771Y1928221D01*
X3185704Y1928243D01*
X3185648Y1928254D01*
X3185599Y1928265D01*
D02*
G37*
G36*
X2983195Y1711148D02*
Y1709339D01*
X2985629Y1710229D01*
X2983195Y1711148D01*
D02*
G37*
G36*
X3191670Y1929752D02*
X3191637D01*
X3191559Y1929741D01*
X3191487Y1929719D01*
X3191420Y1929691D01*
X3191365Y1929652D01*
X3191321Y1929614D01*
X3191287Y1929586D01*
X3191265Y1929564D01*
X3191260Y1929552D01*
X3191204Y1929469D01*
X3191165Y1929380D01*
X3191132Y1929286D01*
X3191115Y1929197D01*
X3191104Y1929114D01*
X3191093Y1929053D01*
Y1929025D01*
Y1929009D01*
Y1928997D01*
Y1928992D01*
X3191099Y1928875D01*
X3191115Y1928775D01*
X3191143Y1928692D01*
X3191165Y1928620D01*
X3191193Y1928570D01*
X3191221Y1928531D01*
X3191237Y1928504D01*
X3191243Y1928498D01*
X3191298Y1928443D01*
X3191359Y1928404D01*
X3191420Y1928370D01*
X3191476Y1928354D01*
X3191526Y1928343D01*
X3191565Y1928337D01*
X3191587Y1928332D01*
X3191598D01*
X3191676Y1928337D01*
X3191748Y1928359D01*
X3191809Y1928387D01*
X3191864Y1928420D01*
X3191909Y1928448D01*
X3191937Y1928476D01*
X3191959Y1928498D01*
X3191964Y1928504D01*
X3192014Y1928576D01*
X3192048Y1928665D01*
X3192075Y1928753D01*
X3192092Y1928848D01*
X3192103Y1928925D01*
X3192109Y1928992D01*
Y1929020D01*
Y1929036D01*
Y1929048D01*
Y1929053D01*
X3192103Y1929181D01*
X3192086Y1929292D01*
X3192064Y1929386D01*
X3192042Y1929458D01*
X3192020Y1929514D01*
X3191998Y1929552D01*
X3191981Y1929580D01*
X3191975Y1929586D01*
X3191920Y1929641D01*
X3191864Y1929680D01*
X3191809Y1929713D01*
X3191754Y1929730D01*
X3191709Y1929741D01*
X3191670Y1929752D01*
D02*
G37*
G36*
X3185593Y1929780D02*
X3185560D01*
X3185488Y1929774D01*
X3185421Y1929758D01*
X3185365Y1929741D01*
X3185316Y1929719D01*
X3185277Y1929691D01*
X3185249Y1929675D01*
X3185232Y1929658D01*
X3185227Y1929652D01*
X3185182Y1929602D01*
X3185155Y1929547D01*
X3185132Y1929491D01*
X3185116Y1929436D01*
X3185105Y1929391D01*
X3185099Y1929353D01*
Y1929330D01*
Y1929319D01*
X3185105Y1929242D01*
X3185121Y1929170D01*
X3185138Y1929114D01*
X3185160Y1929064D01*
X3185188Y1929020D01*
X3185204Y1928992D01*
X3185221Y1928975D01*
X3185227Y1928970D01*
X3185277Y1928931D01*
X3185332Y1928898D01*
X3185388Y1928875D01*
X3185443Y1928864D01*
X3185493Y1928853D01*
X3185532Y1928848D01*
X3185565D01*
X3185637Y1928853D01*
X3185704Y1928864D01*
X3185759Y1928886D01*
X3185809Y1928909D01*
X3185848Y1928931D01*
X3185876Y1928953D01*
X3185893Y1928964D01*
X3185898Y1928970D01*
X3185937Y1929020D01*
X3185970Y1929075D01*
X3185993Y1929131D01*
X3186004Y1929186D01*
X3186015Y1929236D01*
X3186020Y1929275D01*
Y1929303D01*
Y1929314D01*
X3186015Y1929391D01*
X3186004Y1929458D01*
X3185982Y1929514D01*
X3185959Y1929564D01*
X3185937Y1929602D01*
X3185915Y1929630D01*
X3185904Y1929647D01*
X3185898Y1929652D01*
X3185848Y1929697D01*
X3185793Y1929725D01*
X3185737Y1929747D01*
X3185682Y1929763D01*
X3185632Y1929774D01*
X3185593Y1929780D01*
D02*
G37*
G36*
X3038268Y1759041D02*
X3038230Y1758913D01*
X3038185Y1758780D01*
X3038141Y1758647D01*
X3038096Y1758519D01*
X3038074Y1758464D01*
X3038058Y1758408D01*
X3038041Y1758358D01*
X3038024Y1758319D01*
X3038013Y1758286D01*
X3038002Y1758258D01*
X3037996Y1758242D01*
Y1758236D01*
X3037597Y1757182D01*
X3038896D01*
X3038479Y1758303D01*
X3038429Y1758442D01*
X3038391Y1758575D01*
X3038352Y1758697D01*
X3038324Y1758808D01*
X3038302Y1758902D01*
X3038291Y1758941D01*
X3038285Y1758980D01*
X3038274Y1759002D01*
Y1759024D01*
X3038268Y1759035D01*
Y1759041D01*
D02*
G37*
G36*
X3031103Y1758675D02*
Y1756954D01*
X3032313D01*
X3031103Y1758675D01*
D02*
G37*
G36*
X3028373Y1757676D02*
X3028339D01*
X3028223Y1757665D01*
X3028118Y1757637D01*
X3028029Y1757604D01*
X3027951Y1757559D01*
X3027890Y1757515D01*
X3027846Y1757482D01*
X3027818Y1757454D01*
X3027807Y1757443D01*
X3027735Y1757348D01*
X3027679Y1757248D01*
X3027640Y1757143D01*
X3027618Y1757043D01*
X3027601Y1756954D01*
X3027596Y1756915D01*
Y1756882D01*
X3027590Y1756854D01*
Y1756832D01*
Y1756821D01*
Y1756816D01*
X3027601Y1756666D01*
X3027624Y1756538D01*
X3027657Y1756427D01*
X3027696Y1756333D01*
X3027740Y1756260D01*
X3027773Y1756205D01*
X3027796Y1756172D01*
X3027807Y1756166D01*
Y1756161D01*
X3027846Y1756116D01*
X3027890Y1756083D01*
X3027979Y1756022D01*
X3028068Y1755983D01*
X3028145Y1755950D01*
X3028217Y1755933D01*
X3028273Y1755927D01*
X3028295Y1755922D01*
X3028323D01*
X3028400Y1755927D01*
X3028473Y1755939D01*
X3028539Y1755961D01*
X3028595Y1755983D01*
X3028645Y1756000D01*
X3028684Y1756022D01*
X3028706Y1756033D01*
X3028717Y1756038D01*
X3028783Y1756088D01*
X3028839Y1756138D01*
X3028889Y1756199D01*
X3028928Y1756249D01*
X3028961Y1756299D01*
X3028983Y1756338D01*
X3029000Y1756366D01*
X3029005Y1756377D01*
X3029039Y1756460D01*
X3029061Y1756544D01*
X3029083Y1756621D01*
X3029094Y1756693D01*
X3029100Y1756754D01*
X3029105Y1756804D01*
Y1756832D01*
Y1756843D01*
X3029094Y1756976D01*
X3029072Y1757093D01*
X3029033Y1757198D01*
X3028994Y1757282D01*
X3028955Y1757354D01*
X3028917Y1757404D01*
X3028894Y1757431D01*
X3028883Y1757443D01*
X3028795Y1757520D01*
X3028706Y1757576D01*
X3028611Y1757620D01*
X3028528Y1757648D01*
X3028450Y1757665D01*
X3028395Y1757670D01*
X3028373Y1757676D01*
D02*
G37*
G36*
X3022423Y1759069D02*
X3022334D01*
X3022279Y1759058D01*
X3022179Y1759030D01*
X3022090Y1758991D01*
X3022013Y1758952D01*
X3021951Y1758908D01*
X3021907Y1758869D01*
X3021879Y1758841D01*
X3021868Y1758836D01*
Y1758830D01*
X3021796Y1758736D01*
X3021741Y1758630D01*
X3021702Y1758519D01*
X3021679Y1758414D01*
X3021663Y1758325D01*
X3021657Y1758286D01*
Y1758247D01*
X3021652Y1758220D01*
Y1758197D01*
Y1758186D01*
Y1758181D01*
X3021663Y1758036D01*
X3021685Y1757909D01*
X3021718Y1757803D01*
X3021757Y1757714D01*
X3021802Y1757642D01*
X3021835Y1757593D01*
X3021857Y1757559D01*
X3021868Y1757548D01*
X3021951Y1757470D01*
X3022040Y1757415D01*
X3022129Y1757376D01*
X3022218Y1757348D01*
X3022290Y1757332D01*
X3022351Y1757326D01*
X3022373Y1757321D01*
X3022407D01*
X3022523Y1757332D01*
X3022629Y1757354D01*
X3022723Y1757393D01*
X3022806Y1757437D01*
X3022867Y1757476D01*
X3022917Y1757515D01*
X3022945Y1757537D01*
X3022956Y1757548D01*
X3023028Y1757637D01*
X3023084Y1757737D01*
X3023117Y1757837D01*
X3023145Y1757931D01*
X3023161Y1758014D01*
X3023167Y1758048D01*
Y1758081D01*
X3023172Y1758109D01*
Y1758125D01*
Y1758136D01*
Y1758142D01*
X3023161Y1758286D01*
X3023139Y1758419D01*
X3023100Y1758536D01*
X3023056Y1758630D01*
X3023017Y1758708D01*
X3022978Y1758764D01*
X3022967Y1758780D01*
X3022956Y1758797D01*
X3022945Y1758802D01*
Y1758808D01*
X3022900Y1758852D01*
X3022856Y1758897D01*
X3022762Y1758958D01*
X3022667Y1759008D01*
X3022579Y1759035D01*
X3022506Y1759058D01*
X3022445Y1759063D01*
X3022423Y1759069D01*
D02*
G37*
G36*
X3084952Y1741775D02*
Y1740054D01*
X3086162D01*
X3084952Y1741775D01*
D02*
G37*
G36*
X3211021Y1817986D02*
X3209922D01*
X3209822Y1817980D01*
X3209739Y1817974D01*
X3209672Y1817969D01*
X3209628Y1817958D01*
X3209594Y1817952D01*
X3209572Y1817947D01*
X3209566D01*
X3209494Y1817919D01*
X3209433Y1817886D01*
X3209378Y1817852D01*
X3209328Y1817813D01*
X3209295Y1817775D01*
X3209267Y1817747D01*
X3209250Y1817725D01*
X3209245Y1817719D01*
X3209206Y1817653D01*
X3209172Y1817586D01*
X3209150Y1817514D01*
X3209139Y1817453D01*
X3209128Y1817397D01*
X3209123Y1817347D01*
Y1817319D01*
Y1817314D01*
Y1817308D01*
X3209134Y1817192D01*
X3209156Y1817092D01*
X3209189Y1817003D01*
X3209228Y1816931D01*
X3209267Y1816875D01*
X3209300Y1816831D01*
X3209322Y1816809D01*
X3209333Y1816798D01*
X3209372Y1816764D01*
X3209422Y1816737D01*
X3209528Y1816692D01*
X3209644Y1816659D01*
X3209761Y1816637D01*
X3209866Y1816626D01*
X3209911Y1816620D01*
X3209949D01*
X3209988Y1816615D01*
X3211021D01*
Y1817986D01*
D02*
G37*
G36*
X3206642Y1818041D02*
X3206603Y1817913D01*
X3206559Y1817780D01*
X3206514Y1817647D01*
X3206470Y1817519D01*
X3206448Y1817464D01*
X3206431Y1817408D01*
X3206414Y1817358D01*
X3206398Y1817319D01*
X3206387Y1817286D01*
X3206376Y1817258D01*
X3206370Y1817242D01*
Y1817236D01*
X3205970Y1816182D01*
X3207269D01*
X3206853Y1817303D01*
X3206803Y1817442D01*
X3206764Y1817575D01*
X3206725Y1817697D01*
X3206697Y1817808D01*
X3206675Y1817902D01*
X3206664Y1817941D01*
X3206659Y1817980D01*
X3206647Y1818002D01*
Y1818024D01*
X3206642Y1818036D01*
Y1818041D01*
D02*
G37*
G36*
X3307195Y1873765D02*
Y1871956D01*
X3309629Y1872846D01*
X3307195Y1873765D01*
D02*
G37*
G36*
Y1854948D02*
Y1853139D01*
X3309629Y1854029D01*
X3307195Y1854948D01*
D02*
G37*
G36*
X2983195Y1729965D02*
Y1728156D01*
X2985629Y1729046D01*
X2983195Y1729965D01*
D02*
G37*
G36*
X3308703Y1804279D02*
Y1801628D01*
X3312270Y1802933D01*
X3308703Y1804279D01*
D02*
G37*
G36*
X2958103Y1722868D02*
Y1720217D01*
X2961670Y1721521D01*
X2958103Y1722868D01*
D02*
G37*
G36*
Y1713179D02*
Y1710528D01*
X2961670Y1711833D01*
X2958103Y1713179D01*
D02*
G37*
G36*
X3308703Y1813968D02*
Y1811317D01*
X3312270Y1812621D01*
X3308703Y1813968D01*
D02*
G37*
%LPD*%
D10*
X3233308Y1732176D02*
Y1956476D01*
Y1732176D02*
X3300108D01*
X3233308Y1956476D02*
X3300108D01*
Y1732176D02*
Y1956476D01*
X2909354Y1731776D02*
Y1956076D01*
Y1731776D02*
X2976154D01*
X2909354Y1956076D02*
X2976154D01*
Y1731776D02*
Y1956076D01*
D68*
X3185200Y1821100D02*
G03*
X3185200Y1821100I-40000J0D01*
G01*
X3087400Y1761200D02*
X3091437D01*
X3093037Y1759600D01*
X3087605Y1745626D02*
X3101105D01*
X3096994Y1761200D02*
X3101100D01*
X3093037Y1759600D02*
X3095394Y1759600D01*
X3096994Y1761200D01*
X3175694Y1922374D02*
X3189194D01*
X3185363Y1888900D02*
X3189400D01*
X3183763Y1890500D02*
X3185363Y1888900D01*
X3175700D02*
X3179806D01*
X3181406Y1890500D02*
X3183763D01*
X3179806Y1888900D02*
X3181406Y1890500D01*
X3206700Y1741500D02*
X3206700Y1748500D01*
X3218900Y1741500D02*
X3218900Y1748500D01*
X3217500Y1741500D02*
X3218900Y1741500D01*
X3206700Y1741500D02*
X3208000D01*
X3217500Y1748500D02*
X3218900Y1748500D01*
X3206700Y1748500D02*
X3208000D01*
X3217000Y1859100D02*
X3217000Y1866100D01*
X3204800Y1859100D02*
X3204800Y1866100D01*
X3206200Y1866100D01*
X3215700Y1866100D02*
X3217000D01*
X3204800Y1859100D02*
X3206200Y1859100D01*
X3215700Y1859100D02*
X3217000D01*
X3204700Y1840700D02*
X3204700Y1847700D01*
X3216900Y1840700D02*
X3216900Y1847700D01*
X3215500Y1840700D02*
X3216900Y1840700D01*
X3204700Y1840700D02*
X3206000D01*
X3215500Y1847700D02*
X3216900Y1847700D01*
X3204700Y1847700D02*
X3206000D01*
X3204700Y1849900D02*
Y1856900D01*
X3216900Y1849900D02*
Y1856900D01*
X3215500Y1849900D02*
X3216900Y1849900D01*
X3204700Y1849900D02*
X3206000Y1849900D01*
X3215500Y1856900D02*
X3216900Y1856900D01*
X3204700Y1856900D02*
X3206000D01*
X3032800Y1716800D02*
X3032800Y1723800D01*
X3020600Y1716800D02*
X3020600Y1723800D01*
X3022000Y1723800D01*
X3031500Y1723800D02*
X3032800D01*
X3020600Y1716800D02*
X3022000D01*
X3031500Y1716800D02*
X3032800D01*
X3055000Y1760700D02*
X3055000Y1767700D01*
X3067200Y1760700D02*
X3067200Y1767700D01*
X3065800Y1760700D02*
X3067200Y1760700D01*
X3055000Y1760700D02*
X3056300D01*
X3065800Y1767700D02*
X3067200D01*
X3055000Y1767700D02*
X3056300D01*
X3071600Y1716800D02*
X3071600Y1723800D01*
X3059400Y1716800D02*
X3059400Y1723800D01*
X3060800Y1723800D01*
X3070300Y1723800D02*
X3071600D01*
X3059400Y1716800D02*
X3060800D01*
X3070300Y1716800D02*
X3071600D01*
X3046700Y1733900D02*
X3046700Y1740900D01*
X3058900Y1733900D02*
X3058900Y1740900D01*
X3057500Y1733900D02*
X3058900Y1733900D01*
X3046700Y1733900D02*
X3048000D01*
X3057500Y1740900D02*
X3058900D01*
X3046700Y1740900D02*
X3048000D01*
X3050700Y1744000D02*
X3050700Y1751000D01*
X3062900Y1744000D02*
X3062900Y1751000D01*
X3061500Y1744000D02*
X3062900Y1744000D01*
X3050700Y1744000D02*
X3052000D01*
X3061500Y1751000D02*
X3062900D01*
X3050700Y1751000D02*
X3052000D01*
X3055000Y1752600D02*
X3055000Y1759600D01*
X3067200Y1752600D02*
X3067200Y1759600D01*
X3065800Y1752600D02*
X3067200Y1752600D01*
X3055000Y1752600D02*
X3056300D01*
X3065800Y1759600D02*
X3067200D01*
X3055000Y1759600D02*
X3056300D01*
X3111800Y1753600D02*
X3111800Y1760600D01*
X3124000Y1753600D02*
X3124000Y1760600D01*
X3122600Y1753600D02*
X3124000Y1753600D01*
X3111800Y1753600D02*
X3113100D01*
X3122600Y1760600D02*
X3124000D01*
X3111800Y1760600D02*
X3113100D01*
X3111800Y1745900D02*
X3111800Y1752900D01*
X3124000Y1745900D02*
X3124000Y1752900D01*
X3122600Y1745900D02*
X3124000Y1745900D01*
X3111800Y1745900D02*
X3113100D01*
X3122600Y1752900D02*
X3124000D01*
X3111800Y1752900D02*
X3113100D01*
X3189144Y1875734D02*
Y1882734D01*
X3201344Y1875734D02*
Y1882734D01*
X3199944Y1875734D02*
X3201344Y1875734D01*
X3189144Y1875734D02*
X3190444Y1875734D01*
X3199944Y1882734D02*
X3201344Y1882734D01*
X3189144Y1882734D02*
X3190444D01*
X3021300Y1761200D02*
X3021300Y1768200D01*
X3033500Y1761200D02*
X3033500Y1768200D01*
X3032100Y1761200D02*
X3033500Y1761200D01*
X3021300Y1761200D02*
X3022600D01*
X3032100Y1768200D02*
X3033500Y1768200D01*
X3021300Y1768200D02*
X3022600D01*
X3058900Y1725500D02*
X3058900Y1732500D01*
X3046700Y1725500D02*
X3046700Y1732500D01*
X3048100Y1732500D01*
X3057600Y1732500D02*
X3058900D01*
X3046700Y1725500D02*
X3048100D01*
X3057600Y1725500D02*
X3058900D01*
X3045800Y1716800D02*
X3045800Y1723800D01*
X3033600Y1716800D02*
X3033600Y1723800D01*
X3035000Y1723800D01*
X3044500Y1723800D02*
X3045800D01*
X3033600Y1716800D02*
X3035000Y1716800D01*
X3044500Y1716800D02*
X3045800D01*
X3012500D02*
X3012500Y1723800D01*
X3000300Y1716800D02*
X3000300Y1723800D01*
X3001700Y1723800D01*
X3011200Y1723800D02*
X3012500D01*
X3000300Y1716800D02*
X3001700D01*
X3011200Y1716800D02*
X3012500D01*
X3008400Y1761200D02*
X3008400Y1768200D01*
X3020600Y1761200D02*
X3020600Y1768200D01*
X3019200Y1761200D02*
X3020600Y1761200D01*
X3008400Y1761200D02*
X3009700D01*
X3019200Y1768200D02*
X3020600D01*
X3008400Y1768200D02*
X3009700Y1768200D01*
X3046469Y1716800D02*
X3046469Y1723800D01*
X3058669Y1716800D02*
X3058669Y1723800D01*
X3057269Y1716800D02*
X3058669Y1716800D01*
X3046469Y1716800D02*
X3047769D01*
X3057269Y1723800D02*
X3058669Y1723800D01*
X3046469Y1723800D02*
X3047769D01*
X3206700Y1774200D02*
Y1781200D01*
X3218900Y1774200D02*
Y1781200D01*
X3217500Y1774200D02*
X3218900Y1774200D01*
X3206700Y1774200D02*
X3208000Y1774200D01*
X3217500Y1781200D02*
X3218900Y1781200D01*
X3206700Y1781200D02*
X3208000D01*
X3192100Y1789500D02*
X3192100Y1782500D01*
X3204300Y1789500D02*
X3204300Y1782500D01*
X3202900Y1789500D02*
X3204300Y1789500D01*
X3192100Y1789500D02*
X3193400D01*
X3202900Y1782500D02*
X3204300Y1782500D01*
X3192100Y1782500D02*
X3193400D01*
X3206700Y1757700D02*
X3206700Y1764700D01*
X3218900Y1757700D02*
X3218900Y1764700D01*
X3217500Y1757700D02*
X3218900Y1757700D01*
X3206700Y1757700D02*
X3208000D01*
X3217500Y1764700D02*
X3218900Y1764700D01*
X3206700Y1764700D02*
X3208000D01*
X3206700Y1766000D02*
X3206700Y1773000D01*
X3218900Y1766000D02*
X3218900Y1773000D01*
X3217500Y1766000D02*
X3218900Y1766000D01*
X3206700Y1766000D02*
X3208000D01*
X3217500Y1773000D02*
X3218900Y1773000D01*
X3206700Y1773000D02*
X3208000D01*
X3034200Y1761200D02*
X3034200Y1768200D01*
X3046400Y1761200D02*
X3046400Y1768200D01*
X3045000Y1761200D02*
X3046400Y1761200D01*
X3034200Y1761200D02*
X3035500D01*
X3045000Y1768200D02*
X3046400Y1768200D01*
X3034200Y1768200D02*
X3035500D01*
X3161372Y1875734D02*
Y1882734D01*
X3173572Y1875734D02*
Y1882734D01*
X3172172Y1875734D02*
X3173572Y1875734D01*
X3161372Y1875734D02*
X3162672Y1875734D01*
X3172172Y1882734D02*
X3173572Y1882734D01*
X3161372Y1882734D02*
X3162672D01*
X3175258Y1875734D02*
Y1882734D01*
X3187458Y1875734D02*
Y1882734D01*
X3186058Y1875734D02*
X3187458Y1875734D01*
X3175258Y1875734D02*
X3176558Y1875734D01*
X3186058Y1882734D02*
X3187458Y1882734D01*
X3175258Y1882734D02*
X3176558D01*
X3192100Y1774200D02*
X3192100Y1781200D01*
X3204300Y1774200D02*
X3204300Y1781200D01*
X3202900Y1774200D02*
X3204300Y1774200D01*
X3192100Y1774200D02*
X3193400D01*
X3202900Y1781200D02*
X3204300Y1781200D01*
X3192100Y1781200D02*
X3193400D01*
X3192100Y1766000D02*
X3192100Y1773000D01*
X3204300Y1766000D02*
X3204300Y1773000D01*
X3202900Y1766000D02*
X3204300Y1766000D01*
X3192100Y1766000D02*
X3193400D01*
X3202900Y1773000D02*
X3204300Y1773000D01*
X3192100Y1773000D02*
X3193400D01*
X3204300Y1757700D02*
X3204300Y1764700D01*
X3192100Y1757700D02*
X3192100Y1764700D01*
X3193500Y1764700D01*
X3203000Y1764700D02*
X3204300D01*
X3192100Y1757700D02*
X3193500Y1757700D01*
X3203000Y1757700D02*
X3204300D01*
X3218900Y1782600D02*
X3218900Y1789600D01*
X3206700Y1782600D02*
X3206700Y1789600D01*
X3208100Y1789600D01*
X3217600Y1789600D02*
X3218900D01*
X3206700Y1782600D02*
X3208100Y1782600D01*
X3217600Y1782600D02*
X3218900D01*
X3204300Y1741400D02*
X3204300Y1748400D01*
X3192100Y1741400D02*
X3192100Y1748400D01*
X3193500Y1748400D01*
X3203000Y1748400D02*
X3204300D01*
X3192100Y1741400D02*
X3193500Y1741400D01*
X3203000Y1741400D02*
X3204300D01*
X3104600Y1802600D02*
X3108644Y1804424D01*
D70*
X3203944Y1892239D02*
X3205117Y1893412D01*
X3203944Y1876750D02*
Y1892185D01*
Y1876750D02*
X3205440D01*
X3215546D02*
X3216944D01*
Y1892185D01*
X3215722Y1893363D02*
X3216944Y1892140D01*
X3012000Y1728200D02*
Y1732700D01*
X3000500Y1728200D02*
Y1732700D01*
X3010000Y1728200D02*
X3012000Y1728200D01*
X3006000Y1737200D02*
X3006500Y1737200D01*
X3000500Y1728200D02*
X3002500Y1728200D01*
X3145500Y1937200D02*
Y1941700D01*
X3134000Y1937200D02*
Y1941700D01*
X3143500Y1937200D02*
X3145500Y1937200D01*
X3139500Y1946200D02*
X3140000Y1946200D01*
X3134000Y1937200D02*
X3136000Y1937200D01*
X3082602Y1775273D02*
Y1776273D01*
X2999602Y1775273D02*
X3082602D01*
X2999602D02*
Y1776273D01*
Y1975273D02*
Y1976273D01*
X3082602D01*
Y1975273D02*
Y1976273D01*
X3198800Y1799700D02*
X3212800Y1799700D01*
X3206800Y1811200D02*
X3207800Y1812200D01*
X3203800Y1811200D02*
X3206800D01*
X3202800Y1812200D02*
X3203800Y1811200D01*
X3198800Y1812200D02*
X3202800D01*
X3207800D02*
X3212800Y1812200D01*
X3174400Y1757800D02*
X3181900D01*
X3174400Y1748800D02*
X3181900D01*
X3162900D02*
X3170400D01*
X3162900Y1757800D02*
X3170400D01*
X3181900Y1748800D02*
Y1757800D01*
X3162900Y1748800D02*
X3162900Y1757800D01*
X3152644Y1759700D02*
X3153817Y1758527D01*
X3137156Y1759700D02*
X3152591D01*
X3137156Y1758204D02*
Y1759700D01*
Y1746700D02*
Y1748098D01*
Y1746700D02*
X3152591D01*
X3152546D02*
X3153768Y1747922D01*
X3096700Y1767599D02*
Y1764266D01*
X3096034Y1763600D01*
X3094701D01*
X3094034Y1764266D01*
Y1767599D01*
X3090035Y1763600D02*
X3092701D01*
X3090035Y1766266D01*
Y1766932D01*
X3090702Y1767599D01*
X3092035D01*
X3092701Y1766932D01*
X3223999Y1801600D02*
X3220667D01*
X3220000Y1802266D01*
Y1803599D01*
X3220667Y1804266D01*
X3223999D01*
X3220000Y1807598D02*
X3223999D01*
X3221999Y1805599D01*
Y1808265D01*
X3013699Y1746900D02*
X3010366D01*
X3009700Y1747566D01*
Y1748899D01*
X3010366Y1749566D01*
X3013699D01*
X3009700Y1750899D02*
Y1752232D01*
Y1751565D01*
X3013699D01*
X3013032Y1750899D01*
X3186600Y1740500D02*
X3190099D01*
Y1742249D01*
X3189516Y1742833D01*
X3188349D01*
X3187766Y1742249D01*
Y1740500D01*
Y1741666D02*
X3186600Y1742833D01*
Y1743999D02*
Y1745165D01*
Y1744582D01*
X3190099D01*
X3189516Y1743999D01*
Y1746915D02*
X3190099Y1747498D01*
Y1748664D01*
X3189516Y1749247D01*
X3188933D01*
X3188349Y1748664D01*
Y1748081D01*
Y1748664D01*
X3187766Y1749247D01*
X3187183D01*
X3186600Y1748664D01*
Y1747498D01*
X3187183Y1746915D01*
X3221100Y1740400D02*
X3224599D01*
Y1742149D01*
X3224016Y1742733D01*
X3222849D01*
X3222266Y1742149D01*
Y1740400D01*
Y1741566D02*
X3221100Y1742733D01*
Y1743899D02*
Y1745065D01*
Y1744482D01*
X3224599D01*
X3224016Y1743899D01*
X3221100Y1749147D02*
Y1746815D01*
X3223433Y1749147D01*
X3224016D01*
X3224599Y1748564D01*
Y1747398D01*
X3224016Y1746815D01*
X3152699Y1937300D02*
Y1939633D01*
Y1938466D01*
X3149200D01*
Y1940799D02*
Y1941965D01*
Y1941382D01*
X3152699D01*
X3152116Y1940799D01*
X3106500Y1763800D02*
Y1764733D01*
Y1764267D01*
X3109299D01*
X3108833Y1763800D01*
X3216600Y1812200D02*
Y1813133D01*
Y1812667D01*
X3219399D01*
X3218933Y1812200D01*
X3168800Y1888000D02*
Y1888933D01*
Y1888466D01*
X3171599D01*
X3171133Y1888000D01*
X2998199Y1732500D02*
Y1734833D01*
X2997616D01*
X2995283Y1732500D01*
X2994700D01*
Y1734833D01*
X2998199Y1735999D02*
X2994700D01*
Y1737748D01*
X2995283Y1738331D01*
X2997616D01*
X2998199Y1737748D01*
Y1735999D01*
X2994700Y1739498D02*
Y1740664D01*
Y1740081D01*
X2998199D01*
X2997616Y1739498D01*
X3174899Y1742500D02*
X3171400D01*
Y1744833D01*
Y1745999D02*
Y1747165D01*
Y1746582D01*
X3174899D01*
X3174316Y1745999D01*
X3004600Y1709500D02*
X3008099D01*
Y1711249D01*
X3007516Y1711833D01*
X3006349D01*
X3005766Y1711249D01*
Y1709500D01*
Y1710666D02*
X3004600Y1711833D01*
X3007516Y1712999D02*
X3008099Y1713582D01*
Y1714748D01*
X3007516Y1715331D01*
X3006933D01*
X3006349Y1714748D01*
X3005766Y1715331D01*
X3005183D01*
X3004600Y1714748D01*
Y1713582D01*
X3005183Y1712999D01*
X3005766D01*
X3006349Y1713582D01*
X3006933Y1712999D01*
X3007516D01*
X3006349Y1713582D02*
Y1714748D01*
X3185800Y1756300D02*
X3189299D01*
Y1758049D01*
X3188716Y1758633D01*
X3187549D01*
X3186966Y1758049D01*
Y1756300D01*
Y1757466D02*
X3185800Y1758633D01*
X3189299Y1759799D02*
Y1762132D01*
X3188716D01*
X3186383Y1759799D01*
X3185800D01*
Y1765300D02*
X3189299D01*
Y1767049D01*
X3188716Y1767633D01*
X3187549D01*
X3186966Y1767049D01*
Y1765300D01*
Y1766466D02*
X3185800Y1767633D01*
X3189299Y1771132D02*
X3188716Y1769965D01*
X3187549Y1768799D01*
X3186383D01*
X3185800Y1769382D01*
Y1770548D01*
X3186383Y1771132D01*
X3186966D01*
X3187549Y1770548D01*
Y1768799D01*
X3185800Y1773500D02*
X3189299D01*
Y1775249D01*
X3188716Y1775833D01*
X3187549D01*
X3186966Y1775249D01*
Y1773500D01*
Y1774666D02*
X3185800Y1775833D01*
X3189299Y1779332D02*
Y1776999D01*
X3187549D01*
X3188133Y1778165D01*
Y1778748D01*
X3187549Y1779332D01*
X3186383D01*
X3185800Y1778748D01*
Y1777582D01*
X3186383Y1776999D01*
X3221000Y1774400D02*
X3224499D01*
Y1776149D01*
X3223916Y1776733D01*
X3222749D01*
X3222166Y1776149D01*
Y1774400D01*
Y1775566D02*
X3221000Y1776733D01*
Y1779648D02*
X3224499D01*
X3222749Y1777899D01*
Y1780231D01*
X3220900Y1764800D02*
X3224399D01*
Y1766549D01*
X3223816Y1767133D01*
X3222649D01*
X3222066Y1766549D01*
Y1764800D01*
Y1765966D02*
X3220900Y1767133D01*
X3223816Y1768299D02*
X3224399Y1768882D01*
Y1770048D01*
X3223816Y1770631D01*
X3223233D01*
X3222649Y1770048D01*
Y1769465D01*
Y1770048D01*
X3222066Y1770631D01*
X3221483D01*
X3220900Y1770048D01*
Y1768882D01*
X3221483Y1768299D01*
X3179800Y1868300D02*
X3183299D01*
Y1870049D01*
X3182716Y1870633D01*
X3181549D01*
X3180966Y1870049D01*
Y1868300D01*
Y1869466D02*
X3179800Y1870633D01*
Y1874132D02*
Y1871799D01*
X3182133Y1874132D01*
X3182716D01*
X3183299Y1873548D01*
Y1872382D01*
X3182716Y1871799D01*
X3166000Y1869400D02*
X3169499D01*
Y1871149D01*
X3168916Y1871733D01*
X3167749D01*
X3167166Y1871149D01*
Y1869400D01*
Y1870566D02*
X3166000Y1871733D01*
Y1872899D02*
Y1874065D01*
Y1873482D01*
X3169499D01*
X3168916Y1872899D01*
X3044716Y1736133D02*
X3045299Y1735549D01*
Y1734383D01*
X3044716Y1733800D01*
X3042383D01*
X3041800Y1734383D01*
Y1735549D01*
X3042383Y1736133D01*
X3041800Y1739631D02*
Y1737299D01*
X3044133Y1739631D01*
X3044716D01*
X3045299Y1739048D01*
Y1737882D01*
X3044716Y1737299D01*
Y1740798D02*
X3045299Y1741381D01*
Y1742547D01*
X3044716Y1743130D01*
X3042383D01*
X3041800Y1742547D01*
Y1741381D01*
X3042383Y1740798D01*
X3044716D01*
X3068016Y1743433D02*
X3068599Y1742849D01*
Y1741683D01*
X3068016Y1741100D01*
X3065683D01*
X3065100Y1741683D01*
Y1742849D01*
X3065683Y1743433D01*
X3065100Y1744599D02*
Y1745765D01*
Y1745182D01*
X3068599D01*
X3068016Y1744599D01*
X3065683Y1747515D02*
X3065100Y1748098D01*
Y1749264D01*
X3065683Y1749847D01*
X3068016D01*
X3068599Y1749264D01*
Y1748098D01*
X3068016Y1747515D01*
X3067433D01*
X3066849Y1748098D01*
Y1749847D01*
X3072816Y1753333D02*
X3073399Y1752749D01*
Y1751583D01*
X3072816Y1751000D01*
X3070483D01*
X3069900Y1751583D01*
Y1752749D01*
X3070483Y1753333D01*
X3069900Y1754499D02*
Y1755665D01*
Y1755082D01*
X3073399D01*
X3072816Y1754499D01*
Y1757415D02*
X3073399Y1757998D01*
Y1759164D01*
X3072816Y1759747D01*
X3072233D01*
X3071649Y1759164D01*
X3071066Y1759747D01*
X3070483D01*
X3069900Y1759164D01*
Y1757998D01*
X3070483Y1757415D01*
X3071066D01*
X3071649Y1757998D01*
X3072233Y1757415D01*
X3072816D01*
X3071649Y1757998D02*
Y1759164D01*
X3072916Y1764933D02*
X3073499Y1764349D01*
Y1763183D01*
X3072916Y1762600D01*
X3070583D01*
X3070000Y1763183D01*
Y1764349D01*
X3070583Y1764933D01*
X3070000Y1766099D02*
Y1767265D01*
Y1766682D01*
X3073499D01*
X3072916Y1766099D01*
X3073499Y1769015D02*
Y1771347D01*
X3072916D01*
X3070583Y1769015D01*
X3070000D01*
X3224116Y1785033D02*
X3224699Y1784449D01*
Y1783283D01*
X3224116Y1782700D01*
X3221783D01*
X3221200Y1783283D01*
Y1784449D01*
X3221783Y1785033D01*
X3221200Y1786199D02*
Y1787365D01*
Y1786782D01*
X3224699D01*
X3224116Y1786199D01*
X3224699Y1791447D02*
X3224116Y1790281D01*
X3222949Y1789115D01*
X3221783D01*
X3221200Y1789698D01*
Y1790864D01*
X3221783Y1791447D01*
X3222366D01*
X3222949Y1790864D01*
Y1789115D01*
X3188516Y1784933D02*
X3189099Y1784349D01*
Y1783183D01*
X3188516Y1782600D01*
X3186183D01*
X3185600Y1783183D01*
Y1784349D01*
X3186183Y1784933D01*
X3185600Y1786099D02*
Y1787265D01*
Y1786682D01*
X3189099D01*
X3188516Y1786099D01*
X3189099Y1791347D02*
Y1789015D01*
X3187349D01*
X3187933Y1790181D01*
Y1790764D01*
X3187349Y1791347D01*
X3186183D01*
X3185600Y1790764D01*
Y1789598D01*
X3186183Y1789015D01*
X3223916Y1755733D02*
X3224499Y1755149D01*
Y1753983D01*
X3223916Y1753400D01*
X3221583D01*
X3221000Y1753983D01*
Y1755149D01*
X3221583Y1755733D01*
X3221000Y1756899D02*
Y1758065D01*
Y1757482D01*
X3224499D01*
X3223916Y1756899D01*
X3221000Y1761564D02*
X3224499D01*
X3222749Y1759815D01*
Y1762147D01*
X3119767Y1743316D02*
X3120351Y1743899D01*
X3121517D01*
X3122100Y1743316D01*
Y1740983D01*
X3121517Y1740400D01*
X3120351D01*
X3119767Y1740983D01*
X3118601Y1740400D02*
X3117435D01*
X3118018D01*
Y1743899D01*
X3118601Y1743316D01*
X3115685D02*
X3115102Y1743899D01*
X3113936D01*
X3113353Y1743316D01*
Y1742733D01*
X3113936Y1742149D01*
X3114519D01*
X3113936D01*
X3113353Y1741566D01*
Y1740983D01*
X3113936Y1740400D01*
X3115102D01*
X3115685Y1740983D01*
X3120467Y1766116D02*
X3121051Y1766699D01*
X3122217D01*
X3122800Y1766116D01*
Y1763783D01*
X3122217Y1763200D01*
X3121051D01*
X3120467Y1763783D01*
X3119301Y1763200D02*
X3118135D01*
X3118718D01*
Y1766699D01*
X3119301Y1766116D01*
X3114053Y1763200D02*
X3116385D01*
X3114053Y1765533D01*
Y1766116D01*
X3114636Y1766699D01*
X3115802D01*
X3116385Y1766116D01*
X3028216Y1710333D02*
X3028799Y1709749D01*
Y1708583D01*
X3028216Y1708000D01*
X3025883D01*
X3025300Y1708583D01*
Y1709749D01*
X3025883Y1710333D01*
X3025300Y1711499D02*
Y1712665D01*
Y1712082D01*
X3028799D01*
X3028216Y1711499D01*
X3025300Y1714415D02*
Y1715581D01*
Y1714998D01*
X3028799D01*
X3028216Y1714415D01*
X3040316Y1708933D02*
X3040899Y1708349D01*
Y1707183D01*
X3040316Y1706600D01*
X3037983D01*
X3037400Y1707183D01*
Y1708349D01*
X3037983Y1708933D01*
X3037400Y1710099D02*
Y1711265D01*
Y1710682D01*
X3040899D01*
X3040316Y1710099D01*
Y1713015D02*
X3040899Y1713598D01*
Y1714764D01*
X3040316Y1715347D01*
X3037983D01*
X3037400Y1714764D01*
Y1713598D01*
X3037983Y1713015D01*
X3040316D01*
X3052516Y1711633D02*
X3053099Y1711049D01*
Y1709883D01*
X3052516Y1709300D01*
X3050183D01*
X3049600Y1709883D01*
Y1711049D01*
X3050183Y1711633D01*
Y1712799D02*
X3049600Y1713382D01*
Y1714548D01*
X3050183Y1715132D01*
X3052516D01*
X3053099Y1714548D01*
Y1713382D01*
X3052516Y1712799D01*
X3051933D01*
X3051349Y1713382D01*
Y1715132D01*
X3064716Y1711733D02*
X3065299Y1711149D01*
Y1709983D01*
X3064716Y1709400D01*
X3062383D01*
X3061800Y1709983D01*
Y1711149D01*
X3062383Y1711733D01*
X3064716Y1712899D02*
X3065299Y1713482D01*
Y1714648D01*
X3064716Y1715232D01*
X3064133D01*
X3063549Y1714648D01*
X3062966Y1715232D01*
X3062383D01*
X3061800Y1714648D01*
Y1713482D01*
X3062383Y1712899D01*
X3062966D01*
X3063549Y1713482D01*
X3064133Y1712899D01*
X3064716D01*
X3063549Y1713482D02*
Y1714648D01*
X3044416Y1727733D02*
X3044999Y1727149D01*
Y1725983D01*
X3044416Y1725400D01*
X3042083D01*
X3041500Y1725983D01*
Y1727149D01*
X3042083Y1727733D01*
X3044999Y1728899D02*
Y1731231D01*
X3044416D01*
X3042083Y1728899D01*
X3041500D01*
X3040667Y1772216D02*
X3041251Y1772799D01*
X3042417D01*
X3043000Y1772216D01*
Y1769883D01*
X3042417Y1769300D01*
X3041251D01*
X3040667Y1769883D01*
X3037169Y1772799D02*
X3038335Y1772216D01*
X3039501Y1771049D01*
Y1769883D01*
X3038918Y1769300D01*
X3037752D01*
X3037169Y1769883D01*
Y1770466D01*
X3037752Y1771049D01*
X3039501D01*
X3028567Y1772216D02*
X3029151Y1772799D01*
X3030317D01*
X3030900Y1772216D01*
Y1769883D01*
X3030317Y1769300D01*
X3029151D01*
X3028567Y1769883D01*
X3025068Y1772799D02*
X3027401D01*
Y1771049D01*
X3026235Y1771633D01*
X3025652D01*
X3025068Y1771049D01*
Y1769883D01*
X3025652Y1769300D01*
X3026818D01*
X3027401Y1769883D01*
X3015767Y1772216D02*
X3016351Y1772799D01*
X3017517D01*
X3018100Y1772216D01*
Y1769883D01*
X3017517Y1769300D01*
X3016351D01*
X3015767Y1769883D01*
X3012852Y1769300D02*
Y1772799D01*
X3014601Y1771049D01*
X3012268D01*
X3196216Y1870033D02*
X3196799Y1869449D01*
Y1868283D01*
X3196216Y1867700D01*
X3193883D01*
X3193300Y1868283D01*
Y1869449D01*
X3193883Y1870033D01*
X3196216Y1871199D02*
X3196799Y1871782D01*
Y1872948D01*
X3196216Y1873532D01*
X3195633D01*
X3195049Y1872948D01*
Y1872365D01*
Y1872948D01*
X3194466Y1873532D01*
X3193883D01*
X3193300Y1872948D01*
Y1871782D01*
X3193883Y1871199D01*
X3217400Y1897449D02*
X3219733D01*
X3218566Y1898616D02*
Y1896283D01*
X3155000Y1759449D02*
X3157333D01*
X3156166Y1760616D02*
Y1758283D01*
X3146416Y1741733D02*
X3146999Y1741149D01*
Y1739983D01*
X3146416Y1739400D01*
X3144083D01*
X3143500Y1739983D01*
Y1741149D01*
X3144083Y1741733D01*
X3143500Y1745231D02*
Y1742899D01*
X3145833Y1745231D01*
X3146416D01*
X3146999Y1744648D01*
Y1743482D01*
X3146416Y1742899D01*
X3222316Y1885533D02*
X3222899Y1884949D01*
Y1883783D01*
X3222316Y1883200D01*
X3219983D01*
X3219400Y1883783D01*
Y1884949D01*
X3219983Y1885533D01*
X3219400Y1886699D02*
Y1887865D01*
Y1887282D01*
X3222899D01*
X3222316Y1886699D01*
X3202599Y1900600D02*
X3199266D01*
X3198600Y1901266D01*
Y1902599D01*
X3199266Y1903266D01*
X3202599D01*
X3201932Y1904599D02*
X3202599Y1905265D01*
Y1906598D01*
X3201932Y1907265D01*
X3201266D01*
X3200599Y1906598D01*
Y1905932D01*
Y1906598D01*
X3199933Y1907265D01*
X3199266D01*
X3198600Y1906598D01*
Y1905265D01*
X3199266Y1904599D01*
X3019100Y1754100D02*
X3018167D01*
X3018633D01*
Y1756899D01*
X3019100Y1756433D01*
X3219400Y1839300D02*
X3222899D01*
Y1841049D01*
X3222316Y1841633D01*
X3221149D01*
X3220566Y1841049D01*
Y1839300D01*
Y1840466D02*
X3219400Y1841633D01*
X3219983Y1842799D02*
X3219400Y1843382D01*
Y1844548D01*
X3219983Y1845131D01*
X3222316D01*
X3222899Y1844548D01*
Y1843382D01*
X3222316Y1842799D01*
X3221733D01*
X3221149Y1843382D01*
Y1845131D01*
X3219400Y1849100D02*
X3222899D01*
Y1850849D01*
X3222316Y1851433D01*
X3221149D01*
X3220566Y1850849D01*
Y1849100D01*
Y1850266D02*
X3219400Y1851433D01*
Y1852599D02*
Y1853765D01*
Y1853182D01*
X3222899D01*
X3222316Y1852599D01*
Y1855515D02*
X3222899Y1856098D01*
Y1857264D01*
X3222316Y1857847D01*
X3219983D01*
X3219400Y1857264D01*
Y1856098D01*
X3219983Y1855515D01*
X3222316D01*
X3219400Y1861900D02*
X3222899D01*
Y1863649D01*
X3222316Y1864233D01*
X3221149D01*
X3220566Y1863649D01*
Y1861900D01*
Y1863066D02*
X3219400Y1864233D01*
Y1865399D02*
Y1866565D01*
Y1865982D01*
X3222899D01*
X3222316Y1865399D01*
X3219400Y1868315D02*
Y1869481D01*
Y1868898D01*
X3222899D01*
X3222316Y1868315D01*
D154*
X3037254Y1730934D02*
X3039617Y1730934D01*
Y1733296D01*
X3017563Y1730934D02*
X3017563Y1733296D01*
X3017563Y1730934D02*
X3019925D01*
X3018387Y1752987D02*
X3019925D01*
X3017563Y1752163D02*
X3018387Y1752987D01*
X3017563Y1750625D02*
Y1752163D01*
X3039617Y1750625D02*
Y1752987D01*
X3037254D02*
X3039617D01*
D155*
X3266456Y1746176D02*
X3288456Y1748176D01*
X3246456Y1751176D02*
X3288456Y1748176D01*
X3246456Y1751176D02*
X3284456Y1754176D01*
X3250456Y1757176D02*
X3284456Y1754176D01*
X3250456Y1757176D02*
X3280456Y1760176D01*
X3254456Y1763176D02*
X3280456Y1760176D01*
X3254456Y1763176D02*
X3276456Y1766176D01*
X3258456Y1769176D02*
X3276456Y1766176D01*
X3258456Y1769176D02*
X3272456Y1772176D01*
X3262456Y1775176D02*
X3272456Y1772176D01*
X3262456Y1775176D02*
X3268456Y1778176D01*
X3265056Y1779576D02*
X3268456Y1778176D01*
X2942502Y1745776D02*
X2964502Y1747776D01*
X2922502Y1750776D02*
X2964502Y1747776D01*
X2922502Y1750776D02*
X2960502Y1753776D01*
X2926502Y1756776D02*
X2960502Y1753776D01*
X2926502Y1756776D02*
X2956502Y1759776D01*
X2930502Y1762776D02*
X2956502Y1759776D01*
X2930502Y1762776D02*
X2952502Y1765776D01*
X2934502Y1768776D02*
X2952502Y1765776D01*
X2934502Y1768776D02*
X2948502Y1771776D01*
X2938502Y1774776D02*
X2948502Y1771776D01*
X2938502Y1774776D02*
X2944502Y1777776D01*
X2941102Y1779176D02*
X2944502Y1777776D01*
D156*
X2990300Y1972399D02*
Y1970266D01*
X2989234Y1969200D01*
X2988167Y1970266D01*
Y1972399D01*
X2987101D02*
Y1969200D01*
X2985502D01*
X2984968Y1969733D01*
Y1970266D01*
X2985502Y1970799D01*
X2987101D01*
X2985502D01*
X2984968Y1971333D01*
Y1971866D01*
X2985502Y1972399D01*
X2987101D01*
X2983902D02*
Y1969733D01*
X2983369Y1969200D01*
X2982303D01*
X2981769Y1969733D01*
Y1972399D01*
X2978570Y1971866D02*
X2979104Y1972399D01*
X2980170D01*
X2980703Y1971866D01*
Y1971333D01*
X2980170Y1970799D01*
X2979104D01*
X2978570Y1970266D01*
Y1969733D01*
X2979104Y1969200D01*
X2980170D01*
X2980703Y1969733D01*
X2988167Y1951866D02*
X2988700Y1952399D01*
X2989767D01*
X2990300Y1951866D01*
Y1949733D01*
X2989767Y1949200D01*
X2988700D01*
X2988167Y1949733D01*
Y1950800D01*
X2989234D01*
X2987101Y1949200D02*
Y1952399D01*
X2984968Y1949200D01*
Y1952399D01*
X2983902D02*
Y1949200D01*
X2982303D01*
X2981769Y1949733D01*
Y1951866D01*
X2982303Y1952399D01*
X2983902D01*
X2990300Y1962399D02*
Y1960266D01*
X2989234Y1959200D01*
X2988167Y1960266D01*
Y1962399D01*
X2984968Y1961866D02*
X2985502Y1962399D01*
X2986568D01*
X2987101Y1961866D01*
Y1961333D01*
X2986568Y1960799D01*
X2985502D01*
X2984968Y1960266D01*
Y1959733D01*
X2985502Y1959200D01*
X2986568D01*
X2987101Y1959733D01*
X2983902Y1962399D02*
Y1961866D01*
X2982836Y1960799D01*
X2981769Y1961866D01*
Y1962399D01*
X2982836Y1960799D02*
Y1959200D01*
X2978570Y1961866D02*
X2979104Y1962399D01*
X2980170D01*
X2980703Y1961866D01*
Y1961333D01*
X2980170Y1960799D01*
X2979104D01*
X2978570Y1960266D01*
Y1959733D01*
X2979104Y1959200D01*
X2980170D01*
X2980703Y1959733D01*
X2990300Y1942399D02*
Y1940266D01*
X2989234Y1939200D01*
X2988167Y1940266D01*
Y1942399D01*
X2987101Y1938667D02*
X2984968D01*
X2981769Y1942399D02*
X2983902D01*
Y1939200D01*
X2981769D01*
X2983902Y1940800D02*
X2982836D01*
X2980703Y1939200D02*
Y1942399D01*
X2978570Y1939200D01*
Y1942399D01*
X2990300Y1932399D02*
Y1930266D01*
X2989234Y1929200D01*
X2988167Y1930266D01*
Y1932399D01*
X2985502D02*
X2986568D01*
X2987101Y1931866D01*
Y1929733D01*
X2986568Y1929200D01*
X2985502D01*
X2984968Y1929733D01*
Y1931866D01*
X2985502Y1932399D01*
X2983902D02*
Y1929733D01*
X2983369Y1929200D01*
X2982303D01*
X2981769Y1929733D01*
Y1932399D01*
X2980703D02*
X2978570D01*
X2979637D01*
Y1929200D01*
X2988167Y1881866D02*
X2988700Y1882399D01*
X2989767D01*
X2990300Y1881866D01*
Y1879733D01*
X2989767Y1879200D01*
X2988700D01*
X2988167Y1879733D01*
Y1880799D01*
X2989234D01*
X2987101Y1879200D02*
Y1882399D01*
X2985502D01*
X2984968Y1881866D01*
Y1880799D01*
X2985502Y1880266D01*
X2987101D01*
X2981769Y1879200D02*
X2983902D01*
X2981769Y1881333D01*
Y1881866D01*
X2982303Y1882399D01*
X2983369D01*
X2983902Y1881866D01*
X2978570Y1882399D02*
X2979637Y1881866D01*
X2980703Y1880799D01*
Y1879733D01*
X2980170Y1879200D01*
X2979104D01*
X2978570Y1879733D01*
Y1880266D01*
X2979104Y1880799D01*
X2980703D01*
X2988167Y1891866D02*
X2988700Y1892399D01*
X2989767D01*
X2990300Y1891866D01*
Y1889733D01*
X2989767Y1889200D01*
X2988700D01*
X2988167Y1889733D01*
Y1890800D01*
X2989234D01*
X2987101Y1889200D02*
Y1892399D01*
X2985502D01*
X2984968Y1891866D01*
Y1890800D01*
X2985502Y1890266D01*
X2987101D01*
X2981769Y1889200D02*
X2983902D01*
X2981769Y1891333D01*
Y1891866D01*
X2982303Y1892399D01*
X2983369D01*
X2983902Y1891866D01*
X2980703Y1892399D02*
X2978570D01*
Y1891866D01*
X2980703Y1889733D01*
Y1889200D01*
X2988167Y1911866D02*
X2988700Y1912399D01*
X2989767D01*
X2990300Y1911866D01*
Y1909733D01*
X2989767Y1909200D01*
X2988700D01*
X2988167Y1909733D01*
Y1910799D01*
X2989234D01*
X2987101Y1909200D02*
Y1912399D01*
X2985502D01*
X2984968Y1911866D01*
Y1910799D01*
X2985502Y1910266D01*
X2987101D01*
X2981769Y1909200D02*
X2983902D01*
X2981769Y1911333D01*
Y1911866D01*
X2982303Y1912399D01*
X2983369D01*
X2983902Y1911866D01*
X2980703D02*
X2980170Y1912399D01*
X2979104D01*
X2978570Y1911866D01*
Y1911333D01*
X2979104Y1910799D01*
X2978570Y1910266D01*
Y1909733D01*
X2979104Y1909200D01*
X2980170D01*
X2980703Y1909733D01*
Y1910266D01*
X2980170Y1910799D01*
X2980703Y1911333D01*
Y1911866D01*
X2980170Y1910799D02*
X2979104D01*
X2988167Y1901866D02*
X2988700Y1902399D01*
X2989767D01*
X2990300Y1901866D01*
Y1899733D01*
X2989767Y1899200D01*
X2988700D01*
X2988167Y1899733D01*
Y1900800D01*
X2989234D01*
X2987101Y1899200D02*
Y1902399D01*
X2984968Y1899200D01*
Y1902399D01*
X2983902D02*
Y1899200D01*
X2982303D01*
X2981769Y1899733D01*
Y1901866D01*
X2982303Y1902399D01*
X2983902D01*
X2990300Y1922399D02*
Y1920266D01*
X2989234Y1919200D01*
X2988167Y1920266D01*
Y1922399D01*
X2987101Y1919200D02*
Y1922399D01*
X2985502D01*
X2984968Y1921866D01*
Y1920799D01*
X2985502Y1920266D01*
X2987101D01*
X2986035D02*
X2984968Y1919200D01*
X2981769Y1922399D02*
X2983902D01*
Y1919200D01*
X2981769D01*
X2983902Y1920799D02*
X2982836D01*
X2978570Y1922399D02*
X2980703D01*
Y1920799D01*
X2979637D01*
X2980703D01*
Y1919200D01*
X2988167Y1831866D02*
X2988700Y1832399D01*
X2989767D01*
X2990300Y1831866D01*
Y1829733D01*
X2989767Y1829200D01*
X2988700D01*
X2988167Y1829733D01*
Y1830799D01*
X2989234D01*
X2987101Y1829200D02*
Y1832399D01*
X2985502D01*
X2984968Y1831866D01*
Y1830799D01*
X2985502Y1830266D01*
X2987101D01*
X2981769Y1829200D02*
X2983902D01*
X2981769Y1831333D01*
Y1831866D01*
X2982303Y1832399D01*
X2983369D01*
X2983902Y1831866D01*
X2980703D02*
X2980170Y1832399D01*
X2979104D01*
X2978570Y1831866D01*
Y1829733D01*
X2979104Y1829200D01*
X2980170D01*
X2980703Y1829733D01*
Y1831866D01*
X2988167Y1841866D02*
X2988700Y1842399D01*
X2989767D01*
X2990300Y1841866D01*
Y1839733D01*
X2989767Y1839200D01*
X2988700D01*
X2988167Y1839733D01*
Y1840800D01*
X2989234D01*
X2987101Y1839200D02*
Y1842399D01*
X2985502D01*
X2984968Y1841866D01*
Y1840800D01*
X2985502Y1840266D01*
X2987101D01*
X2981769Y1839200D02*
X2983902D01*
X2981769Y1841333D01*
Y1841866D01*
X2982303Y1842399D01*
X2983369D01*
X2983902Y1841866D01*
X2980703Y1839200D02*
X2979637D01*
X2980170D01*
Y1842399D01*
X2980703Y1841866D01*
X2988167Y1861866D02*
X2988700Y1862399D01*
X2989767D01*
X2990300Y1861866D01*
Y1859733D01*
X2989767Y1859200D01*
X2988700D01*
X2988167Y1859733D01*
Y1860799D01*
X2989234D01*
X2987101Y1859200D02*
Y1862399D01*
X2985502D01*
X2984968Y1861866D01*
Y1860799D01*
X2985502Y1860266D01*
X2987101D01*
X2981769Y1859200D02*
X2983902D01*
X2981769Y1861333D01*
Y1861866D01*
X2982303Y1862399D01*
X2983369D01*
X2983902Y1861866D01*
X2978570Y1859200D02*
X2980703D01*
X2978570Y1861333D01*
Y1861866D01*
X2979104Y1862399D01*
X2980170D01*
X2980703Y1861866D01*
X2988167Y1851866D02*
X2988700Y1852399D01*
X2989767D01*
X2990300Y1851866D01*
Y1849733D01*
X2989767Y1849200D01*
X2988700D01*
X2988167Y1849733D01*
Y1850800D01*
X2989234D01*
X2987101Y1849200D02*
Y1852399D01*
X2984968Y1849200D01*
Y1852399D01*
X2983902D02*
Y1849200D01*
X2982303D01*
X2981769Y1849733D01*
Y1851866D01*
X2982303Y1852399D01*
X2983902D01*
X2990300Y1869200D02*
Y1872399D01*
X2988700D01*
X2988167Y1871866D01*
Y1870799D01*
X2988700Y1870266D01*
X2990300D01*
X2989234D02*
X2988167Y1869200D01*
X2987101Y1872399D02*
Y1869733D01*
X2986568Y1869200D01*
X2985502D01*
X2984968Y1869733D01*
Y1872399D01*
X2983902Y1869200D02*
Y1872399D01*
X2981769Y1869200D01*
Y1872399D01*
X2988167Y1781866D02*
X2988700Y1782399D01*
X2989767D01*
X2990300Y1781866D01*
Y1779733D01*
X2989767Y1779200D01*
X2988700D01*
X2988167Y1779733D01*
Y1780799D01*
X2989234D01*
X2987101Y1779200D02*
Y1782399D01*
X2985502D01*
X2984968Y1781866D01*
Y1780799D01*
X2985502Y1780266D01*
X2987101D01*
X2983902Y1779200D02*
X2982836D01*
X2983369D01*
Y1782399D01*
X2983902Y1781866D01*
X2979104Y1782399D02*
X2980170Y1781866D01*
X2981236Y1780799D01*
Y1779733D01*
X2980703Y1779200D01*
X2979637D01*
X2979104Y1779733D01*
Y1780266D01*
X2979637Y1780799D01*
X2981236D01*
X2988167Y1791866D02*
X2988700Y1792399D01*
X2989767D01*
X2990300Y1791866D01*
Y1789733D01*
X2989767Y1789200D01*
X2988700D01*
X2988167Y1789733D01*
Y1790800D01*
X2989234D01*
X2987101Y1789200D02*
Y1792399D01*
X2985502D01*
X2984968Y1791866D01*
Y1790800D01*
X2985502Y1790266D01*
X2987101D01*
X2983902Y1789200D02*
X2982836D01*
X2983369D01*
Y1792399D01*
X2983902Y1791866D01*
X2981236Y1792399D02*
X2979104D01*
Y1791866D01*
X2981236Y1789733D01*
Y1789200D01*
X2988167Y1811866D02*
X2988700Y1812399D01*
X2989767D01*
X2990300Y1811866D01*
Y1809733D01*
X2989767Y1809200D01*
X2988700D01*
X2988167Y1809733D01*
Y1810799D01*
X2989234D01*
X2987101Y1809200D02*
Y1812399D01*
X2985502D01*
X2984968Y1811866D01*
Y1810799D01*
X2985502Y1810266D01*
X2987101D01*
X2983902Y1809200D02*
X2982836D01*
X2983369D01*
Y1812399D01*
X2983902Y1811866D01*
X2981236D02*
X2980703Y1812399D01*
X2979637D01*
X2979104Y1811866D01*
Y1811333D01*
X2979637Y1810799D01*
X2979104Y1810266D01*
Y1809733D01*
X2979637Y1809200D01*
X2980703D01*
X2981236Y1809733D01*
Y1810266D01*
X2980703Y1810799D01*
X2981236Y1811333D01*
Y1811866D01*
X2980703Y1810799D02*
X2979637D01*
X2988167Y1801866D02*
X2988700Y1802399D01*
X2989767D01*
X2990300Y1801866D01*
Y1799733D01*
X2989767Y1799200D01*
X2988700D01*
X2988167Y1799733D01*
Y1800800D01*
X2989234D01*
X2987101Y1799200D02*
Y1802399D01*
X2984968Y1799200D01*
Y1802399D01*
X2983902D02*
Y1799200D01*
X2982303D01*
X2981769Y1799733D01*
Y1801866D01*
X2982303Y1802399D01*
X2983902D01*
X2988167Y1821866D02*
X2988700Y1822399D01*
X2989767D01*
X2990300Y1821866D01*
Y1819733D01*
X2989767Y1819200D01*
X2988700D01*
X2988167Y1819733D01*
Y1820799D01*
X2989234D01*
X2987101Y1819200D02*
Y1822399D01*
X2985502D01*
X2984968Y1821866D01*
Y1820799D01*
X2985502Y1820266D01*
X2987101D01*
X2983902Y1819200D02*
X2982836D01*
X2983369D01*
Y1822399D01*
X2983902Y1821866D01*
X2981236Y1819733D02*
X2980703Y1819200D01*
X2979637D01*
X2979104Y1819733D01*
Y1821866D01*
X2979637Y1822399D01*
X2980703D01*
X2981236Y1821866D01*
Y1821333D01*
X2980703Y1820799D01*
X2979104D01*
X3100666Y1821866D02*
X3101200Y1822399D01*
X3102266D01*
X3102799Y1821866D01*
Y1819733D01*
X3102266Y1819200D01*
X3101200D01*
X3100666Y1819733D01*
Y1820799D01*
X3101733D01*
X3099600Y1819200D02*
Y1822399D01*
X3098001D01*
X3097467Y1821866D01*
Y1820799D01*
X3098001Y1820266D01*
X3099600D01*
X3096401Y1819200D02*
X3095335D01*
X3095868D01*
Y1822399D01*
X3096401Y1821866D01*
X3091603Y1819200D02*
X3093735D01*
X3091603Y1821333D01*
Y1821866D01*
X3092136Y1822399D01*
X3093202D01*
X3093735Y1821866D01*
X3097667Y1801866D02*
X3098200Y1802399D01*
X3099267D01*
X3099800Y1801866D01*
Y1799733D01*
X3099267Y1799200D01*
X3098200D01*
X3097667Y1799733D01*
Y1800800D01*
X3098734D01*
X3096601Y1799200D02*
Y1802399D01*
X3094468Y1799200D01*
Y1802399D01*
X3093402D02*
Y1799200D01*
X3091803D01*
X3091269Y1799733D01*
Y1801866D01*
X3091803Y1802399D01*
X3093402D01*
X3100666Y1811866D02*
X3101200Y1812399D01*
X3102266D01*
X3102799Y1811866D01*
Y1809733D01*
X3102266Y1809200D01*
X3101200D01*
X3100666Y1809733D01*
Y1810799D01*
X3101733D01*
X3099600Y1809200D02*
Y1812399D01*
X3098001D01*
X3097467Y1811866D01*
Y1810799D01*
X3098001Y1810266D01*
X3099600D01*
X3096401Y1809200D02*
X3095335D01*
X3095868D01*
Y1812399D01*
X3096401Y1811866D01*
X3093735D02*
X3093202Y1812399D01*
X3092136D01*
X3091603Y1811866D01*
Y1811333D01*
X3092136Y1810799D01*
X3092669D01*
X3092136D01*
X3091603Y1810266D01*
Y1809733D01*
X3092136Y1809200D01*
X3093202D01*
X3093735Y1809733D01*
X3100666Y1791866D02*
X3101200Y1792399D01*
X3102266D01*
X3102799Y1791866D01*
Y1789733D01*
X3102266Y1789200D01*
X3101200D01*
X3100666Y1789733D01*
Y1790800D01*
X3101733D01*
X3099600Y1789200D02*
Y1792399D01*
X3098001D01*
X3097467Y1791866D01*
Y1790800D01*
X3098001Y1790266D01*
X3099600D01*
X3096401Y1789200D02*
X3095335D01*
X3095868D01*
Y1792399D01*
X3096401Y1791866D01*
X3092136Y1789200D02*
Y1792399D01*
X3093735Y1790800D01*
X3091603D01*
X3100666Y1781866D02*
X3101200Y1782399D01*
X3102266D01*
X3102799Y1781866D01*
Y1779733D01*
X3102266Y1779200D01*
X3101200D01*
X3100666Y1779733D01*
Y1780799D01*
X3101733D01*
X3099600Y1779200D02*
Y1782399D01*
X3098001D01*
X3097467Y1781866D01*
Y1780799D01*
X3098001Y1780266D01*
X3099600D01*
X3096401Y1779200D02*
X3095335D01*
X3095868D01*
Y1782399D01*
X3096401Y1781866D01*
X3091603Y1782399D02*
X3093735D01*
Y1780799D01*
X3092669Y1781333D01*
X3092136D01*
X3091603Y1780799D01*
Y1779733D01*
X3092136Y1779200D01*
X3093202D01*
X3093735Y1779733D01*
X3097667Y1871866D02*
X3098200Y1872399D01*
X3099267D01*
X3099800Y1871866D01*
Y1869733D01*
X3099267Y1869200D01*
X3098200D01*
X3097667Y1869733D01*
Y1870799D01*
X3098734D01*
X3096601Y1869200D02*
Y1872399D01*
X3095002D01*
X3094468Y1871866D01*
Y1870799D01*
X3095002Y1870266D01*
X3096601D01*
X3093402Y1871866D02*
X3092869Y1872399D01*
X3091803D01*
X3091269Y1871866D01*
Y1871333D01*
X3091803Y1870799D01*
X3091269Y1870266D01*
Y1869733D01*
X3091803Y1869200D01*
X3092869D01*
X3093402Y1869733D01*
Y1870266D01*
X3092869Y1870799D01*
X3093402Y1871333D01*
Y1871866D01*
X3092869Y1870799D02*
X3091803D01*
X3097667Y1851866D02*
X3098200Y1852399D01*
X3099267D01*
X3099800Y1851866D01*
Y1849733D01*
X3099267Y1849200D01*
X3098200D01*
X3097667Y1849733D01*
Y1850800D01*
X3098734D01*
X3096601Y1849200D02*
Y1852399D01*
X3094468Y1849200D01*
Y1852399D01*
X3093402D02*
Y1849200D01*
X3091803D01*
X3091269Y1849733D01*
Y1851866D01*
X3091803Y1852399D01*
X3093402D01*
X3097667Y1861866D02*
X3098200Y1862399D01*
X3099267D01*
X3099800Y1861866D01*
Y1859733D01*
X3099267Y1859200D01*
X3098200D01*
X3097667Y1859733D01*
Y1860799D01*
X3098734D01*
X3096601Y1859200D02*
Y1862399D01*
X3095002D01*
X3094468Y1861866D01*
Y1860799D01*
X3095002Y1860266D01*
X3096601D01*
X3093402Y1859733D02*
X3092869Y1859200D01*
X3091803D01*
X3091269Y1859733D01*
Y1861866D01*
X3091803Y1862399D01*
X3092869D01*
X3093402Y1861866D01*
Y1861333D01*
X3092869Y1860799D01*
X3091269D01*
X3100666Y1841866D02*
X3101200Y1842399D01*
X3102266D01*
X3102799Y1841866D01*
Y1839733D01*
X3102266Y1839200D01*
X3101200D01*
X3100666Y1839733D01*
Y1840800D01*
X3101733D01*
X3099600Y1839200D02*
Y1842399D01*
X3098001D01*
X3097467Y1841866D01*
Y1840800D01*
X3098001Y1840266D01*
X3099600D01*
X3096401Y1839200D02*
X3095335D01*
X3095868D01*
Y1842399D01*
X3096401Y1841866D01*
X3093735D02*
X3093202Y1842399D01*
X3092136D01*
X3091603Y1841866D01*
Y1839733D01*
X3092136Y1839200D01*
X3093202D01*
X3093735Y1839733D01*
Y1841866D01*
X3099467Y1831866D02*
X3100000Y1832399D01*
X3101066D01*
X3101599Y1831866D01*
Y1829733D01*
X3101066Y1829200D01*
X3100000D01*
X3099467Y1829733D01*
Y1830799D01*
X3100533D01*
X3098400Y1829200D02*
Y1832399D01*
X3096801D01*
X3096268Y1831866D01*
Y1830799D01*
X3096801Y1830266D01*
X3098400D01*
X3095201Y1829200D02*
X3094135D01*
X3094668D01*
Y1832399D01*
X3095201Y1831866D01*
X3092536Y1829200D02*
X3091469D01*
X3092002D01*
Y1832399D01*
X3092536Y1831866D01*
X3097667Y1921866D02*
X3098200Y1922399D01*
X3099267D01*
X3099800Y1921866D01*
Y1919733D01*
X3099267Y1919200D01*
X3098200D01*
X3097667Y1919733D01*
Y1920799D01*
X3098734D01*
X3096601Y1919200D02*
Y1922399D01*
X3095002D01*
X3094468Y1921866D01*
Y1920799D01*
X3095002Y1920266D01*
X3096601D01*
X3091803Y1919200D02*
Y1922399D01*
X3093402Y1920799D01*
X3091269D01*
X3097667Y1901866D02*
X3098200Y1902399D01*
X3099267D01*
X3099800Y1901866D01*
Y1899733D01*
X3099267Y1899200D01*
X3098200D01*
X3097667Y1899733D01*
Y1900800D01*
X3098734D01*
X3096601Y1899200D02*
Y1902399D01*
X3094468Y1899200D01*
Y1902399D01*
X3093402D02*
Y1899200D01*
X3091803D01*
X3091269Y1899733D01*
Y1901866D01*
X3091803Y1902399D01*
X3093402D01*
X3097667Y1911866D02*
X3098200Y1912399D01*
X3099267D01*
X3099800Y1911866D01*
Y1909733D01*
X3099267Y1909200D01*
X3098200D01*
X3097667Y1909733D01*
Y1910799D01*
X3098734D01*
X3096601Y1909200D02*
Y1912399D01*
X3095002D01*
X3094468Y1911866D01*
Y1910799D01*
X3095002Y1910266D01*
X3096601D01*
X3091269Y1912399D02*
X3093402D01*
Y1910799D01*
X3092336Y1911333D01*
X3091803D01*
X3091269Y1910799D01*
Y1909733D01*
X3091803Y1909200D01*
X3092869D01*
X3093402Y1909733D01*
X3097667Y1891866D02*
X3098200Y1892399D01*
X3099267D01*
X3099800Y1891866D01*
Y1889733D01*
X3099267Y1889200D01*
X3098200D01*
X3097667Y1889733D01*
Y1890800D01*
X3098734D01*
X3096601Y1889200D02*
Y1892399D01*
X3095002D01*
X3094468Y1891866D01*
Y1890800D01*
X3095002Y1890266D01*
X3096601D01*
X3091269Y1892399D02*
X3092336Y1891866D01*
X3093402Y1890800D01*
Y1889733D01*
X3092869Y1889200D01*
X3091803D01*
X3091269Y1889733D01*
Y1890266D01*
X3091803Y1890800D01*
X3093402D01*
X3097667Y1881866D02*
X3098200Y1882399D01*
X3099267D01*
X3099800Y1881866D01*
Y1879733D01*
X3099267Y1879200D01*
X3098200D01*
X3097667Y1879733D01*
Y1880799D01*
X3098734D01*
X3096601Y1879200D02*
Y1882399D01*
X3095002D01*
X3094468Y1881866D01*
Y1880799D01*
X3095002Y1880266D01*
X3096601D01*
X3093402Y1882399D02*
X3091269D01*
Y1881866D01*
X3093402Y1879733D01*
Y1879200D01*
X3097667Y1931866D02*
X3098200Y1932399D01*
X3099267D01*
X3099800Y1931866D01*
Y1929733D01*
X3099267Y1929200D01*
X3098200D01*
X3097667Y1929733D01*
Y1930799D01*
X3098734D01*
X3096601Y1929200D02*
Y1932399D01*
X3095002D01*
X3094468Y1931866D01*
Y1930799D01*
X3095002Y1930266D01*
X3096601D01*
X3093402Y1931866D02*
X3092869Y1932399D01*
X3091803D01*
X3091269Y1931866D01*
Y1931333D01*
X3091803Y1930799D01*
X3092336D01*
X3091803D01*
X3091269Y1930266D01*
Y1929733D01*
X3091803Y1929200D01*
X3092869D01*
X3093402Y1929733D01*
X3097667Y1941866D02*
X3098200Y1942399D01*
X3099267D01*
X3099800Y1941866D01*
Y1939733D01*
X3099267Y1939200D01*
X3098200D01*
X3097667Y1939733D01*
Y1940800D01*
X3098734D01*
X3096601Y1939200D02*
Y1942399D01*
X3095002D01*
X3094468Y1941866D01*
Y1940800D01*
X3095002Y1940266D01*
X3096601D01*
X3091269Y1939200D02*
X3093402D01*
X3091269Y1941333D01*
Y1941866D01*
X3091803Y1942399D01*
X3092869D01*
X3093402Y1941866D01*
X3096468Y1961866D02*
X3097001Y1962399D01*
X3098067D01*
X3098600Y1961866D01*
Y1959733D01*
X3098067Y1959200D01*
X3097001D01*
X3096468Y1959733D01*
Y1960799D01*
X3097534D01*
X3095401Y1959200D02*
Y1962399D01*
X3093802D01*
X3093269Y1961866D01*
Y1960799D01*
X3093802Y1960266D01*
X3095401D01*
X3092202Y1959200D02*
X3091136D01*
X3091669D01*
Y1962399D01*
X3092202Y1961866D01*
X3097667Y1951866D02*
X3098200Y1952399D01*
X3099267D01*
X3099800Y1951866D01*
Y1949733D01*
X3099267Y1949200D01*
X3098200D01*
X3097667Y1949733D01*
Y1950800D01*
X3098734D01*
X3096601Y1949200D02*
Y1952399D01*
X3094468Y1949200D01*
Y1952399D01*
X3093402D02*
Y1949200D01*
X3091803D01*
X3091269Y1949733D01*
Y1951866D01*
X3091803Y1952399D01*
X3093402D01*
X3097667Y1971866D02*
X3098200Y1972399D01*
X3099267D01*
X3099800Y1971866D01*
Y1969733D01*
X3099267Y1969200D01*
X3098200D01*
X3097667Y1969733D01*
Y1970799D01*
X3098734D01*
X3096601Y1969200D02*
Y1972399D01*
X3095002D01*
X3094468Y1971866D01*
Y1970799D01*
X3095002Y1970266D01*
X3096601D01*
X3093402Y1971866D02*
X3092869Y1972399D01*
X3091803D01*
X3091269Y1971866D01*
Y1969733D01*
X3091803Y1969200D01*
X3092869D01*
X3093402Y1969733D01*
Y1971866D01*
D157*
X3339651Y1898984D02*
D03*
D158*
X3287500Y1721106D02*
D03*
D159*
X2938564Y1718234D02*
D03*
M02*
