M48
;Layer_Color=3158064
;FILE_FORMAT=2:5
INCH,LZ
;TYPE=PLATED
T1F00S00C0.01500
T2F00S00C0.03500
T3F00S00C0.04000
T4F00S00C0.04400
T5F00S00C0.06000
T6F00S00C0.12500
T7F00S00C0.30000
%
T01
X31174Y17181
X3104Y17122
X30975
X30329Y17149
X30252Y17148
X30095Y17105
X30063Y17131
X31274Y17181
X31374
X31474
X31282Y17477
Y1754
X31283Y17597
X31269Y17828
X31313
X31368Y17852
X31359Y17785
X31424Y17784
X31544Y17722
X31606
X3168Y17775
X31724Y17794
X31762Y17905
X31856Y17829
X31873Y1777
X31861Y17517
X3188Y17455
X31813Y17331
X32155Y17334
X32234
X32204Y17573
X32122Y17559
X32025Y17558
X32253Y17656
Y17724
Y17792
X3239
Y17724
Y17656
X32539Y17724
Y17792
Y1786
X32382Y17962
X32156Y17938
X32064
Y1802
X32006Y18142
X31876Y18116
X31758Y18286
Y1836
X31995Y18446
Y18516
Y18586
X32234Y18568
Y18628
Y18508
X32278Y18389
X32215Y18346
X32232Y18748
X3162Y18692
X3157Y18642
X3152Y18592
X31368Y18708
X31478Y18016
X31549Y17859
X31619
X31304Y17962
X31195Y17933
X31225Y17828
X31195Y17791
X30941Y17934
Y18074
Y18214
X30608Y18261
X30587Y18297
X30618Y18381
X30608Y18738
X305415
X30235Y18628
Y18562
Y18496
Y1843
Y18364
X30183Y184
Y18466
Y18532
Y18598
X2986008Y1864273
X29861Y1852
Y1839
X29866Y18154
X30186Y18024
X30299Y18045
X30301Y18128
X30299Y17799
X30359
X30419Y17798
X3041Y17705
X30455
X30308Y17732
X30258
X30208Y17731
X30211Y1779
X30173
X3013386Y1752856
X3008Y17471
X30025Y17488
X3001181Y1755218
X3004818Y1756399
X2998031Y1759549
X29996Y17421
X30126Y17279
X30288Y17256
X30336
X30391Y17255
X30439
X30317Y1739
X30257
X30317Y1745
X30643Y17465
X30673Y17519
X30914Y17509
Y17442
X31073Y17405
X31106Y17438
X3068Y17778
X30679Y17818
X29807Y17622
X29778Y17559
X29779Y17478
X29561Y17937
X29859Y18755
X29853Y19093
Y19361
X29837Y19434
X29803Y19463
X29845Y19491
X29844Y19531
X29748Y19406
X30132Y19472
X3024Y19385
X30264Y19065
X3026Y19001
X30261Y18959
X30215Y1898
X30214Y19022
X30393Y19039
X30439
Y18993
X30393
X30582Y18902
X30632
X3066529Y1912686
X3065742Y1916817
X30676Y1944
X30669Y19483
X30447Y19546
X31213Y19068
Y1898506
X31184Y18909
Y18839
X3118378Y1877214
X31254Y18909
X31256Y1901206
Y19068
X31343Y19208
X31399
X3139818Y1931164
X3135881Y1931164
X3131944
X3128007
X31528Y19249
X31569Y19209
X31629Y19331
X31623Y19369
X31598Y19408
X31747Y19366
X31784Y19368
X31772Y19286
X31736Y19287
X31797Y19258
X31873Y19331
X31904Y19359
X31949Y19396
X31985Y194
X32021Y19404
X3196Y19241
X32013Y19086
X32049Y19036
X32113Y19034
Y19086
X32082Y19132
X32162Y19174
X3221Y19116
X32232Y19042
Y18966
Y1889
Y18814
X32515Y1881261
Y18881
Y1894697
X32012Y18993
X3185Y18976
X31812Y19016
X31865Y19045
X31799Y18947
X31882Y18864
X31943
X31659Y18995
X31641Y19056
X31548Y18939
Y18899
X31863Y19545
T02
X3266906Y1741234
X2942902Y1740734
X2942542Y1946834
X3266546Y1947334
T03
X3319732Y1769253
X3309732
X3309832Y1759011
X3319832
X3127269Y1873
X2997559Y172827
X296687Y1758959
X3127269Y191237
T04
X3277402Y1713734
X3267402
X3257402
X3247401
X3237402
X3227402
X3217402
X3207402
X3197402
X3187402
X3177402
X3167402
X3147402Y1733234
X3137402
X3127402
X3117402
X3097402
X3087402
X3077402
X3067402
T05
X31368Y18451
X31579Y18005
X31182Y18129
T06
X2914402Y1713234
T07
X3322401Y1718734
Y1952234
M30
