M48
;Layer_Color=3158064
;FILE_FORMAT=2:5
INCH,LZ
;TYPE=PLATED
T1F00S00C0.03000
T2F00S00C0.04000
T3F00S00C0.12500
T4F00S00C0.30000
%
T01
X063Y0225
X064
X065
Y0235
X064
Y0245
X063
Y0235
Y0255
Y0265
Y0275
X064
Y0265
Y0255
X065
X066
Y0245
X065
Y0265
X066
Y0275
X067
Y0265
Y0255
X068Y0265
X069
Y0275
X068
Y0285
X067
X066
Y0295
Y0305
X067
Y0295
X068
X069
Y0285
Y0305
X068
X065
X064
Y0295
X063
Y0285
X064
X065
Y0275
Y0295
X063Y0305
X062
Y0295
Y0285
Y0275
Y0265
Y0255
Y0245
Y0235
Y0225
X061
X06
X059
X058
X057
X056
X055
X054
X053
X052
X051
X05
X049
X048
Y0235
Y0245
X047
Y0235
Y0255
Y0265
Y0275
X048
Y0265
Y0255
X049
X05
Y0245
Y0235
X051
Y0245
Y0255
Y0265
X05
Y0275
X051
X052
X053
X054
Y0265
Y0255
Y0245
Y0235
X053
Y0245
X052
Y0235
Y0255
Y0265
X053
Y0255
X055
X056
Y0245
X057
X058
Y0235
X057
X056
X055
Y0245
Y0265
X056
Y0275
X057
X058
Y0265
Y0255
X057
Y0265
X059
Y0275
X06
Y0265
Y0255
Y0245
X059
Y0235
X06
X061
Y0245
Y0255
Y0265
Y0275
Y0285
X06
Y0295
X059
X058
Y0285
X057
Y0295
X056
Y0285
X055
Y0275
X054Y0285
Y0295
Y0305
X053
Y0295
X052
X051
X05
Y0285
X051
X052
X053
X052Y0305
X051
X05
X049
X048
Y0295
X047
Y0285
X048
X049
Y0275
Y0265
Y0245
Y0235
Y0295
X047Y0305
X055
X056
X057
X058
X059
X06
X061
Y0295
X059Y0285
Y0255
X055Y0295
X046
Y0285
Y0275
Y0265
Y0255
Y0245
Y0235
Y0225
X045
X044
X043
X042
X041
X04
X039
X038
X037
X036
X035
X034
X033
X032
Y0235
Y0245
Y0255
Y0265
Y0275
X033
X034
Y0265
Y0255
Y0245
Y0235
X035
Y0245
Y0255
Y0265
Y0275
X036
X037
X038
Y0265
Y0255
Y0245
Y0235
X037
Y0245
X036
Y0235
Y0255
Y0265
X037
Y0255
X039
X04
Y0245
X041
X042
Y0235
X041
X04
X039
Y0245
Y0265
X04
Y0275
X041
X042
Y0265
Y0255
X041
Y0265
X043
Y0275
X044
Y0265
Y0255
Y0245
X043
Y0235
X044
X045
Y0245
Y0255
Y0265
Y0275
Y0285
X044
Y0295
X043
X042
Y0285
X041
Y0295
X04
Y0285
X039
Y0275
X038Y0285
Y0295
Y0305
X037
Y0295
X036
X035
X034
Y0285
X035
X036
X037
X036Y0305
X035
X034
X033
X032
Y0295
Y0285
X033
Y0295
Y0265
Y0255
Y0245
Y0235
X043Y0255
Y0285
Y0305
X042
X041
X04
X039
Y0295
X044Y0305
X045
X046
X045Y0295
X031
X03
Y0285
Y0275
Y0265
Y0255
Y0245
Y0235
Y0225
X029
Y0235
X028
Y0245
Y0255
Y0265
Y0275
X029
Y0265
Y0255
Y0245
X031
Y0235
Y0225
Y0255
Y0265
Y0275
Y0285
Y0305
X03
X029
X028
Y0295
Y0285
X029
Y0295
Y0315
X03
Y0325
X031
Y0315
Y0335
X03
Y0345
Y0355
Y0365
Y0375
X031
Y0365
Y0355
Y0345
X029
X028
Y0335
Y0325
Y0315
X029Y0325
Y0335
Y0355
X028
Y0365
Y0375
X029
Y0365
Y0385
Y0395
Y0405
Y0415
Y0425
X028
Y0415
Y0405
Y0395
Y0385
X03
X031
Y0395
Y0405
Y0415
Y0425
Y0435
Y0445
Y0455
Y0465
X03Y0425
Y0415
Y0405
Y0395
X032
X033
Y0405
Y0415
Y0425
Y0435
X034
Y0445
Y0455
Y0465
X035
Y0455
Y0445
Y0435
X036
X037
X038
Y0445
Y0455
Y0465
X037
X036
Y0455
X037
Y0445
X036
Y0425
Y0415
Y0405
X037
Y0415
Y0425
X038
X039
Y0435
X04
X041
Y0445
Y0455
Y0465
X04
Y0455
Y0445
X039
Y0455
Y0465
X043
X044
Y0455
Y0445
Y0435
X043
Y0445
Y0455
X045
X046
Y0465
X045
Y0445
X046
Y0435
X045
Y0425
Y0415
Y0405
Y0395
Y0385
Y0375
X046
Y0365
Y0355
Y0345
Y0335
Y0325
Y0315
X045
X044
Y0325
X043
X042
Y0315
X041
Y0325
X04
Y0315
X039
X038
Y0325
X037
X036
X035
X034
Y0315
X035
X036
X037
Y0335
X038
Y0345
Y0355
Y0365
Y0375
X037
X036
X035
X034
Y0365
Y0355
Y0345
Y0335
X035
Y0345
Y0355
Y0365
X036
X037
Y0355
Y0345
X036
Y0335
Y0355
X033
X032
Y0345
Y0335
Y0325
Y0315
X033
Y0325
Y0335
Y0345
Y0365
X032
Y0375
X033
Y0385
X032
Y0405
Y0415
Y0425
Y0435
Y0445
Y0455
Y0465
X033
Y0455
Y0445
X034Y0425
X035
Y0415
Y0405
Y0395
X036
Y0385
X037
Y0395
X038
X039
Y0405
Y0415
X04
Y0405
X041
Y0415
Y0425
X04
X042
X043
Y0415
Y0405
X044
Y0415
Y0425
X046
Y0415
Y0405
Y0395
Y0385
X044
Y0375
X043
X042
Y0365
Y0355
Y0345
Y0335
X041
Y0345
X04
Y0335
X039
Y0325
Y0345
Y0355
X04
Y0365
Y0375
X041
Y0365
Y0355
X043
Y0345
X044
Y0335
X043
Y0315
X045Y0325
Y0335
Y0345
Y0355
X044
Y0365
X043
X045
X043Y0385
Y0395
X044
X042
X041
Y0385
X04
X039
Y0375
Y0365
X038Y0385
Y0405
Y0415
X04Y0395
X042Y0405
Y0415
Y0385
X035
X034
Y0395
Y0405
Y0415
X047
Y0405
X048
X049
Y0415
Y0425
Y0435
X05
Y0445
Y0455
Y0465
X051
Y0455
Y0445
Y0435
Y0425
X052
Y0415
Y0405
X053
Y0415
Y0425
Y0435
X054
Y0445
X053
X055
X056
X057
X058
Y0435
X057
X056
X055
Y0425
Y0415
Y0405
Y0395
Y0385
Y0375
X054
Y0365
Y0355
Y0345
Y0335
Y0325
Y0315
X053
Y0325
X052
X051
X05
Y0315
X051
X052
Y0335
X051
X05
Y0345
Y0355
Y0365
Y0375
X051
Y0365
Y0355
Y0345
X052
X053
Y0335
Y0355
Y0365
Y0375
X052
Y0365
Y0355
X049
X048
Y0345
X047
Y0335
Y0325
X048
Y0315
X047
X049
Y0325
Y0335
X048
X049Y0345
Y0365
X048
Y0375
X047
Y0365
Y0355
Y0385
X048
X049
Y0375
Y0395
X048
X047
X048Y0415
Y0425
Y0435
Y0445
Y0455
Y0465
X049
Y0455
Y0445
X05Y0425
Y0415
X051
Y0405
Y0395
X052
Y0385
X053
Y0395
X054
Y0405
Y0415
Y0425
X056
Y0415
Y0405
X057
Y0415
Y0425
X058
X059
Y0435
Y0445
X06
Y0435
X061
X062
Y0445
X061
Y0425
Y0415
Y0405
Y0395
Y0385
Y0375
X062
Y0365
Y0355
Y0345
Y0335
Y0325
Y0315
X061
X06
Y0325
X059
X058
Y0315
X057
Y0325
X056
Y0315
X055
Y0325
Y0335
X056
Y0345
X057
X058
Y0335
X057
Y0355
X058
Y0365
Y0375
X057
X056
Y0365
X057
X056Y0355
X055
Y0345
Y0365
X056Y0385
X057
Y0395
X056
X058
X059
Y0405
X06
Y0415
X059
X058
Y0405
Y0385
X059
Y0375
X06
Y0365
X059
Y0355
Y0345
X06
Y0335
X059
Y0315
X061Y0325
Y0335
Y0345
Y0355
X06
X061Y0365
X06Y0385
Y0395
X062
Y0405
Y0415
Y0425
X06
X062Y0385
X054
X051
X05
Y0395
Y0405
X047Y0425
X063
Y0435
Y0445
X064
Y0435
Y0425
X065
Y0415
Y0405
Y0395
Y0385
Y0375
X066
Y0365
Y0355
Y0345
Y0335
Y0325
Y0315
X067
Y0325
X068
X069
Y0315
X068
Y0335
X067
Y0345
Y0355
Y0365
Y0375
X068
X069
Y0365
X068
Y0355
Y0345
X069
Y0335
Y0355
Y0385
X068
Y0395
Y0405
X069
Y0415
X068
Y0425
Y0435
X067
X066
Y0445
Y0455
X067
Y0445
X068
X069
Y0435
Y0425
X067
Y0415
Y0405
Y0395
Y0385
X066
Y0395
Y0405
Y0415
Y0425
X064Y0415
Y0405
X063
Y0415
Y0395
Y0385
Y0375
X064
Y0365
X063
Y0355
Y0345
X064
Y0335
Y0325
X063
Y0315
X064
X065
Y0325
Y0335
Y0345
Y0355
X064
X065Y0365
X064Y0385
Y0395
X069
Y0455
X068
X063Y0335
T02
X053Y0455
X054
X055
X056
X057
X058
X059
X06
X061
X062
X063
X064
X051Y0475
X05
X049
X048
X047
X046
X045
X044
X043
T03
X0276998Y0458058
T04
X0685Y0225
M30
